SplineFontDB: 3.2
FontName: Small-5x3
FullName: Small 5x3 Regular
FamilyName: Small 5x3
Weight: Book
Copyright: Copyright soxhead2000 2010
Version: 1.0
ItalicAngle: 0
UnderlinePosition: 77
UnderlineWidth: 51
Ascent: 819
Descent: 205
InvalidEm: 0
sfntRevision: 0x00010000
LayerCount: 2
Layer: 0 1 "Back" 1
Layer: 1 1 "Fore" 0
XUID: [1021 715 888985892 11973]
StyleMap: 0x0040
FSType: 4
OS2Version: 2
OS2_WeightWidthSlopeOnly: 0
OS2_UseTypoMetrics: 0
CreationTime: 1281335683
ModificationTime: 1281335683
PfmFamily: 81
TTFWeight: 400
TTFWidth: 5
LineGap: 0
VLineGap: 0
Panose: 0 0 4 0 0 0 0 0 0 0
OS2TypoAscent: 640
OS2TypoAOffset: 0
OS2TypoDescent: -128
OS2TypoDOffset: 0
OS2TypoLinegap: 0
OS2WinAscent: 768
OS2WinAOffset: 0
OS2WinDescent: 128
OS2WinDOffset: 0
HheadAscent: 768
HheadAOffset: 0
HheadDescent: -128
HheadDOffset: 0
OS2SubXSize: 512
OS2SubYSize: 512
OS2SubXOff: 0
OS2SubYOff: -64
OS2SupXSize: 512
OS2SupYSize: 512
OS2SupXOff: 0
OS2SupYOff: 512
OS2StrikeYSize: 51
OS2StrikeYPos: 204
OS2CapHeight: 640
OS2XHeight: 512
OS2Vendor: 'FSTR'
OS2CodePages: 000001ff.00000000
OS2UnicodeRanges: 80000087.0000000a.00000000.00000000
DEI: 91125
ShortTable: maxp 16
  1
  0
  360
  30
  6
  0
  0
  2
  0
  0
  0
  0
  0
  0
  0
  0
EndShort
LangName: 1033 "" "" "Regular" "FontStruct Small 5x3" "" "Version 1.0" "" "FontStruct is a trademark of FSI FontShop International GmbH" "http://fontstruct.fontshop.com" "soxhead2000" "+IBwA-Small 5x3+IB0A was built with FontStruct+AAoA" "http://www.fontshop.com" "http://fontstruct.fontshop.com/fontstructions/show/354865" "Creative Commons Attribution Share Alike" "http://creativecommons.org/licenses/by-sa/3.0/" "" "" "" "" "Five big quacking zephyrs jolt my wax bed"
Encoding: UnicodeBmp
UnicodeInterp: none
NameList: AGL For New Fonts
DisplaySize: -48
AntiAlias: 1
FitToEm: 0
WinInfo: 48 16 4
BeginChars: 65537 360

StartChar: .notdef
Encoding: 65536 -1 0
Width: 0
GlyphClass: 1
Flags: W
LayerCount: 2
Fore
SplineSet
320 90 m 1,0,-1
 320 192 l 1,1,-1
 218 192 l 1,2,-1
 218 90 l 1,3,-1
 320 90 l 1,0,-1
421 209 m 1,4,-1
 421 311 l 1,5,-1
 218 311 l 1,6,-1
 218 209 l 1,7,-1
 421 209 l 1,4,-1
320 328 m 1,8,-1
 320 430 l 1,9,-1
 218 430 l 1,10,-1
 218 328 l 1,11,-1
 320 328 l 1,8,-1
421 447 m 1,12,-1
 421 548 l 1,13,-1
 320 548 l 2,14,15
 277 548 277 548 248 519 c 0,16,17
 218 488 218 488 218 447 c 1,18,-1
 421 447 l 1,12,-1
0 0 m 1,19,-1
 0 640 l 1,20,-1
 640 640 l 1,21,-1
 640 0 l 1,22,-1
 0 0 l 1,19,-1
EndSplineSet
EndChar

StartChar: exclam
Encoding: 33 33 4
Width: 256
GlyphClass: 1
Flags: W
LayerCount: 2
Fore
SplineSet
0 0 m 1,0,-1
 0 128 l 1,1,-1
 128 128 l 1,2,-1
 128 0 l 1,3,-1
 0 0 l 1,0,-1
0 256 m 1,4,-1
 0 640 l 1,5,-1
 128 640 l 1,6,-1
 128 256 l 1,7,-1
 0 256 l 1,4,-1
EndSplineSet
EndChar

StartChar: quotedbl
Encoding: 34 34 5
Width: 512
GlyphClass: 1
Flags: W
LayerCount: 2
Fore
SplineSet
0 384 m 1,0,-1
 0 640 l 1,1,-1
 128 640 l 1,2,-1
 128 384 l 1,3,-1
 0 384 l 1,0,-1
256 384 m 1,4,-1
 256 640 l 1,5,-1
 384 640 l 1,6,-1
 384 384 l 1,7,-1
 256 384 l 1,4,-1
EndSplineSet
EndChar

StartChar: numbersign
Encoding: 35 35 6
Width: 512
GlyphClass: 1
Flags: W
LayerCount: 2
Fore
SplineSet
256 256 m 1,0,-1
 256 384 l 1,1,-1
 128 384 l 1,2,-1
 128 256 l 1,3,-1
 256 256 l 1,0,-1
0 0 m 1,4,-1
 0 640 l 1,5,-1
 128 640 l 1,6,-1
 128 512 l 1,7,-1
 256 512 l 1,8,-1
 256 640 l 1,9,-1
 384 640 l 1,10,-1
 384 0 l 1,11,-1
 256 0 l 1,12,-1
 256 128 l 1,13,-1
 128 128 l 1,14,-1
 128 0 l 1,15,-1
 0 0 l 1,4,-1
EndSplineSet
EndChar

StartChar: dollar
Encoding: 36 36 7
Width: 512
GlyphClass: 1
Flags: W
LayerCount: 2
Fore
SplineSet
0 0 m 1,0,-1
 0 128 l 1,1,-1
 128 128 l 1,2,-1
 128 256 l 1,3,-1
 0 256 l 1,4,-1
 0 640 l 1,5,-1
 384 640 l 1,6,-1
 384 512 l 1,7,-1
 256 512 l 1,8,-1
 256 384 l 1,9,-1
 384 384 l 1,10,-1
 384 0 l 1,11,-1
 0 0 l 1,0,-1
EndSplineSet
EndChar

StartChar: percent
Encoding: 37 37 8
Width: 512
GlyphClass: 1
Flags: W
LayerCount: 2
Fore
SplineSet
256 0 m 1,0,-1
 256 128 l 1,1,-1
 384 128 l 1,2,-1
 384 0 l 1,3,-1
 256 0 l 1,0,-1
0 128 m 1,4,-1
 0 256 l 1,5,-1
 128 256 l 1,6,-1
 128 128 l 1,7,-1
 0 128 l 1,4,-1
128 256 m 1,8,-1
 128 384 l 1,9,-1
 256 384 l 1,10,-1
 256 256 l 1,11,-1
 128 256 l 1,8,-1
256 384 m 1,12,-1
 256 512 l 1,13,-1
 384 512 l 1,14,-1
 384 384 l 1,15,-1
 256 384 l 1,12,-1
0 512 m 1,16,-1
 0 640 l 1,17,-1
 128 640 l 1,18,-1
 128 512 l 1,19,-1
 0 512 l 1,16,-1
EndSplineSet
EndChar

StartChar: ampersand
Encoding: 38 38 9
Width: 512
GlyphClass: 1
Flags: W
LayerCount: 2
Fore
SplineSet
128 0 m 1,0,-1
 128 128 l 1,1,-1
 0 128 l 1,2,-1
 0 512 l 1,3,-1
 128 512 l 1,4,-1
 128 640 l 1,5,-1
 256 640 l 1,6,-1
 256 512 l 1,7,-1
 384 512 l 1,8,-1
 384 384 l 1,9,-1
 128 384 l 1,10,-1
 128 256 l 1,11,-1
 384 256 l 1,12,-1
 384 128 l 1,13,-1
 256 128 l 1,14,-1
 256 0 l 1,15,-1
 128 0 l 1,0,-1
EndSplineSet
EndChar

StartChar: quotesingle
Encoding: 39 39 10
Width: 256
GlyphClass: 1
Flags: W
LayerCount: 2
Fore
SplineSet
0 384 m 1,0,-1
 0 640 l 1,1,-1
 128 640 l 1,2,-1
 128 384 l 1,3,-1
 0 384 l 1,0,-1
EndSplineSet
EndChar

StartChar: parenleft
Encoding: 40 40 11
Width: 384
GlyphClass: 1
Flags: W
LayerCount: 2
Fore
SplineSet
128 0 m 1,0,-1
 128 128 l 1,1,-1
 256 128 l 1,2,-1
 256 0 l 1,3,-1
 128 0 l 1,0,-1
0 128 m 1,4,-1
 0 512 l 1,5,-1
 128 512 l 1,6,-1
 128 128 l 1,7,-1
 0 128 l 1,4,-1
128 512 m 1,8,-1
 128 640 l 1,9,-1
 256 640 l 1,10,-1
 256 512 l 1,11,-1
 128 512 l 1,8,-1
EndSplineSet
EndChar

StartChar: parenright
Encoding: 41 41 12
Width: 384
GlyphClass: 1
Flags: W
LayerCount: 2
Fore
SplineSet
0 0 m 1,0,-1
 0 128 l 1,1,-1
 128 128 l 1,2,-1
 128 0 l 1,3,-1
 0 0 l 1,0,-1
128 128 m 1,4,-1
 128 512 l 1,5,-1
 256 512 l 1,6,-1
 256 128 l 1,7,-1
 128 128 l 1,4,-1
0 512 m 1,8,-1
 0 640 l 1,9,-1
 128 640 l 1,10,-1
 128 512 l 1,11,-1
 0 512 l 1,8,-1
EndSplineSet
EndChar

StartChar: asterisk
Encoding: 42 42 13
Width: 512
GlyphClass: 1
Flags: W
LayerCount: 2
Fore
SplineSet
128 128 m 1,0,-1
 128 256 l 1,1,-1
 256 256 l 1,2,-1
 256 128 l 1,3,-1
 128 128 l 1,0,-1
0 256 m 1,4,-1
 0 384 l 1,5,-1
 128 384 l 1,6,-1
 128 256 l 1,7,-1
 0 256 l 1,4,-1
256 256 m 1,8,-1
 256 384 l 1,9,-1
 384 384 l 1,10,-1
 384 256 l 1,11,-1
 256 256 l 1,8,-1
128 384 m 1,12,-1
 128 512 l 1,13,-1
 256 512 l 1,14,-1
 256 384 l 1,15,-1
 128 384 l 1,12,-1
EndSplineSet
EndChar

StartChar: plus
Encoding: 43 43 14
Width: 512
GlyphClass: 1
Flags: W
LayerCount: 2
Fore
SplineSet
128 128 m 1,0,-1
 128 256 l 1,1,-1
 0 256 l 1,2,-1
 0 384 l 1,3,-1
 128 384 l 1,4,-1
 128 512 l 1,5,-1
 256 512 l 1,6,-1
 256 384 l 1,7,-1
 384 384 l 1,8,-1
 384 256 l 1,9,-1
 256 256 l 1,10,-1
 256 128 l 1,11,-1
 128 128 l 1,0,-1
EndSplineSet
EndChar

StartChar: comma
Encoding: 44 44 15
Width: 384
GlyphClass: 1
Flags: W
LayerCount: 2
Fore
SplineSet
0 0 m 1,0,-1
 0 128 l 1,1,-1
 128 128 l 1,2,-1
 128 256 l 1,3,-1
 256 256 l 1,4,-1
 256 0 l 1,5,-1
 0 0 l 1,0,-1
EndSplineSet
EndChar

StartChar: hyphen
Encoding: 45 45 16
Width: 512
GlyphClass: 1
Flags: W
LayerCount: 2
Fore
SplineSet
0 256 m 1,0,-1
 0 384 l 1,1,-1
 384 384 l 1,2,-1
 384 256 l 1,3,-1
 0 256 l 1,0,-1
EndSplineSet
EndChar

StartChar: period
Encoding: 46 46 17
Width: 256
GlyphClass: 1
Flags: W
LayerCount: 2
Fore
SplineSet
0 0 m 1,0,-1
 0 128 l 1,1,-1
 128 128 l 1,2,-1
 128 0 l 1,3,-1
 0 0 l 1,0,-1
EndSplineSet
EndChar

StartChar: slash
Encoding: 47 47 18
Width: 512
GlyphClass: 1
Flags: W
LayerCount: 2
Fore
SplineSet
0 128 m 1,0,-1
 0 256 l 1,1,-1
 128 256 l 1,2,-1
 128 128 l 1,3,-1
 0 128 l 1,0,-1
128 256 m 1,4,-1
 128 384 l 1,5,-1
 256 384 l 1,6,-1
 256 256 l 1,7,-1
 128 256 l 1,4,-1
256 384 m 1,8,-1
 256 512 l 1,9,-1
 384 512 l 1,10,-1
 384 384 l 1,11,-1
 256 384 l 1,8,-1
EndSplineSet
EndChar

StartChar: zero
Encoding: 48 48 19
Width: 512
GlyphClass: 1
Flags: W
LayerCount: 2
Fore
SplineSet
256 128 m 1,0,-1
 256 512 l 1,1,-1
 128 512 l 1,2,-1
 128 128 l 1,3,-1
 256 128 l 1,0,-1
0 0 m 1,4,-1
 0 640 l 1,5,-1
 384 640 l 1,6,-1
 384 0 l 1,7,-1
 0 0 l 1,4,-1
EndSplineSet
EndChar

StartChar: one
Encoding: 49 49 20
Width: 512
GlyphClass: 1
Flags: WO
LayerCount: 2
Fore
SplineSet
256 0 m 1,0,-1
 256 641 l 1,1,-1
 384 641 l 1,2,-1
 384 0 l 5,3,-1
 256 0 l 1,0,-1
EndSplineSet
EndChar

StartChar: two
Encoding: 50 50 21
Width: 512
GlyphClass: 1
Flags: W
LayerCount: 2
Fore
SplineSet
0 0 m 1,0,-1
 0 384 l 1,1,-1
 256 384 l 1,2,-1
 256 512 l 1,3,-1
 0 512 l 1,4,-1
 0 640 l 1,5,-1
 384 640 l 1,6,-1
 384 256 l 1,7,-1
 128 256 l 1,8,-1
 128 128 l 1,9,-1
 384 128 l 1,10,-1
 384 0 l 1,11,-1
 0 0 l 1,0,-1
EndSplineSet
EndChar

StartChar: three
Encoding: 51 51 22
Width: 512
GlyphClass: 1
Flags: W
LayerCount: 2
Fore
SplineSet
0 0 m 1,0,-1
 0 128 l 1,1,-1
 256 128 l 1,2,-1
 256 256 l 1,3,-1
 0 256 l 1,4,-1
 0 384 l 1,5,-1
 256 384 l 1,6,-1
 256 512 l 1,7,-1
 0 512 l 1,8,-1
 0 640 l 1,9,-1
 384 640 l 1,10,-1
 384 0 l 1,11,-1
 0 0 l 1,0,-1
EndSplineSet
EndChar

StartChar: four
Encoding: 52 52 23
Width: 512
GlyphClass: 1
Flags: W
LayerCount: 2
Fore
SplineSet
256 0 m 1,0,-1
 256 256 l 1,1,-1
 0 256 l 1,2,-1
 0 640 l 1,3,-1
 128 640 l 1,4,-1
 128 384 l 1,5,-1
 256 384 l 1,6,-1
 256 640 l 1,7,-1
 384 640 l 1,8,-1
 384 0 l 1,9,-1
 256 0 l 1,0,-1
EndSplineSet
EndChar

StartChar: five
Encoding: 53 53 24
Width: 512
GlyphClass: 1
Flags: W
LayerCount: 2
Fore
SplineSet
0 0 m 1,0,-1
 0 128 l 1,1,-1
 256 128 l 1,2,-1
 256 256 l 1,3,-1
 0 256 l 1,4,-1
 0 640 l 1,5,-1
 384 640 l 1,6,-1
 384 512 l 1,7,-1
 128 512 l 1,8,-1
 128 384 l 1,9,-1
 384 384 l 1,10,-1
 384 0 l 1,11,-1
 0 0 l 1,0,-1
EndSplineSet
EndChar

StartChar: six
Encoding: 54 54 25
Width: 512
GlyphClass: 1
Flags: W
LayerCount: 2
Fore
SplineSet
256 128 m 1,0,-1
 256 256 l 1,1,-1
 128 256 l 1,2,-1
 128 128 l 1,3,-1
 256 128 l 1,0,-1
0 0 m 1,4,-1
 0 640 l 1,5,-1
 384 640 l 1,6,-1
 384 512 l 1,7,-1
 128 512 l 1,8,-1
 128 384 l 1,9,-1
 384 384 l 1,10,-1
 384 0 l 1,11,-1
 0 0 l 1,4,-1
EndSplineSet
EndChar

StartChar: seven
Encoding: 55 55 26
Width: 512
GlyphClass: 1
Flags: W
LayerCount: 2
Fore
SplineSet
256 0 m 1,0,-1
 256 512 l 1,1,-1
 0 512 l 1,2,-1
 0 640 l 1,3,-1
 384 640 l 1,4,-1
 384 0 l 1,5,-1
 256 0 l 1,0,-1
EndSplineSet
EndChar

StartChar: eight
Encoding: 56 56 27
Width: 512
GlyphClass: 1
Flags: W
LayerCount: 2
Fore
SplineSet
256 128 m 1,0,-1
 256 256 l 1,1,-1
 128 256 l 1,2,-1
 128 128 l 1,3,-1
 256 128 l 1,0,-1
256 384 m 1,4,-1
 256 512 l 1,5,-1
 128 512 l 1,6,-1
 128 384 l 1,7,-1
 256 384 l 1,4,-1
0 0 m 1,8,-1
 0 640 l 1,9,-1
 384 640 l 1,10,-1
 384 0 l 1,11,-1
 0 0 l 1,8,-1
EndSplineSet
EndChar

StartChar: nine
Encoding: 57 57 28
Width: 512
GlyphClass: 1
Flags: W
LayerCount: 2
Fore
SplineSet
256 384 m 1,0,-1
 256 512 l 1,1,-1
 128 512 l 1,2,-1
 128 384 l 1,3,-1
 256 384 l 1,0,-1
0 0 m 1,4,-1
 0 128 l 1,5,-1
 256 128 l 1,6,-1
 256 256 l 1,7,-1
 0 256 l 1,8,-1
 0 640 l 1,9,-1
 384 640 l 1,10,-1
 384 0 l 1,11,-1
 0 0 l 1,4,-1
EndSplineSet
EndChar

StartChar: colon
Encoding: 58 58 29
Width: 256
GlyphClass: 1
Flags: W
LayerCount: 2
Fore
SplineSet
0 128 m 1,0,-1
 0 256 l 1,1,-1
 128 256 l 1,2,-1
 128 128 l 1,3,-1
 0 128 l 1,0,-1
0 384 m 1,4,-1
 0 512 l 1,5,-1
 128 512 l 1,6,-1
 128 384 l 1,7,-1
 0 384 l 1,4,-1
EndSplineSet
EndChar

StartChar: semicolon
Encoding: 59 59 30
Width: 384
GlyphClass: 1
Flags: W
LayerCount: 2
Fore
SplineSet
0 0 m 1,0,-1
 0 128 l 1,1,-1
 128 128 l 1,2,-1
 128 256 l 1,3,-1
 256 256 l 1,4,-1
 256 0 l 1,5,-1
 0 0 l 1,0,-1
128 384 m 1,6,-1
 128 512 l 1,7,-1
 256 512 l 1,8,-1
 256 384 l 1,9,-1
 128 384 l 1,6,-1
EndSplineSet
EndChar

StartChar: less
Encoding: 60 60 31
Width: 512
GlyphClass: 1
Flags: W
LayerCount: 2
Fore
SplineSet
256 0 m 1,0,-1
 256 128 l 1,1,-1
 384 128 l 1,2,-1
 384 0 l 1,3,-1
 256 0 l 1,0,-1
128 128 m 1,4,-1
 128 256 l 1,5,-1
 256 256 l 1,6,-1
 256 128 l 1,7,-1
 128 128 l 1,4,-1
0 256 m 1,8,-1
 0 384 l 1,9,-1
 128 384 l 1,10,-1
 128 256 l 1,11,-1
 0 256 l 1,8,-1
128 384 m 1,12,-1
 128 512 l 1,13,-1
 256 512 l 1,14,-1
 256 384 l 1,15,-1
 128 384 l 1,12,-1
256 512 m 1,16,-1
 256 640 l 1,17,-1
 384 640 l 1,18,-1
 384 512 l 1,19,-1
 256 512 l 1,16,-1
EndSplineSet
EndChar

StartChar: equal
Encoding: 61 61 32
Width: 512
GlyphClass: 1
Flags: W
LayerCount: 2
Fore
SplineSet
0 128 m 1,0,-1
 0 256 l 1,1,-1
 384 256 l 1,2,-1
 384 128 l 1,3,-1
 0 128 l 1,0,-1
0 384 m 1,4,-1
 0 512 l 1,5,-1
 384 512 l 1,6,-1
 384 384 l 1,7,-1
 0 384 l 1,4,-1
EndSplineSet
EndChar

StartChar: greater
Encoding: 62 62 33
Width: 512
GlyphClass: 1
Flags: W
LayerCount: 2
Fore
SplineSet
0 0 m 1,0,-1
 0 128 l 1,1,-1
 128 128 l 1,2,-1
 128 0 l 1,3,-1
 0 0 l 1,0,-1
128 128 m 1,4,-1
 128 256 l 1,5,-1
 256 256 l 1,6,-1
 256 128 l 1,7,-1
 128 128 l 1,4,-1
256 256 m 1,8,-1
 256 384 l 1,9,-1
 384 384 l 1,10,-1
 384 256 l 1,11,-1
 256 256 l 1,8,-1
128 384 m 1,12,-1
 128 512 l 1,13,-1
 256 512 l 1,14,-1
 256 384 l 1,15,-1
 128 384 l 1,12,-1
0 512 m 1,16,-1
 0 640 l 1,17,-1
 128 640 l 1,18,-1
 128 512 l 1,19,-1
 0 512 l 1,16,-1
EndSplineSet
EndChar

StartChar: question
Encoding: 63 63 34
Width: 512
GlyphClass: 1
Flags: W
LayerCount: 2
Fore
SplineSet
128 0 m 1,0,-1
 128 128 l 1,1,-1
 256 128 l 1,2,-1
 256 0 l 1,3,-1
 128 0 l 1,0,-1
128 256 m 1,4,-1
 128 384 l 1,5,-1
 256 384 l 1,6,-1
 256 512 l 1,7,-1
 0 512 l 1,8,-1
 0 640 l 1,9,-1
 384 640 l 1,10,-1
 384 256 l 1,11,-1
 128 256 l 1,4,-1
EndSplineSet
EndChar

StartChar: at
Encoding: 64 64 35
Width: 512
GlyphClass: 1
Flags: W
LayerCount: 2
Fore
SplineSet
0 0 m 1,0,-1
 0 640 l 1,1,-1
 384 640 l 1,2,-1
 384 256 l 1,3,-1
 256 256 l 1,4,-1
 256 512 l 1,5,-1
 128 512 l 1,6,-1
 128 128 l 1,7,-1
 384 128 l 1,8,-1
 384 0 l 1,9,-1
 0 0 l 1,0,-1
EndSplineSet
EndChar

StartChar: A
Encoding: 65 65 36
Width: 512
GlyphClass: 1
Flags: W
LayerCount: 2
Fore
SplineSet
256 384 m 1,0,-1
 256 512 l 1,1,-1
 128 512 l 1,2,-1
 128 384 l 1,3,-1
 256 384 l 1,0,-1
0 0 m 1,4,-1
 0 640 l 1,5,-1
 384 640 l 1,6,-1
 384 0 l 1,7,-1
 256 0 l 1,8,-1
 256 256 l 1,9,-1
 128 256 l 1,10,-1
 128 0 l 1,11,-1
 0 0 l 1,4,-1
EndSplineSet
EndChar

StartChar: B
Encoding: 66 66 37
Width: 512
GlyphClass: 1
Flags: W
LayerCount: 2
Fore
SplineSet
0 0 m 1,0,-1
 0 640 l 1,1,-1
 384 640 l 1,2,-1
 384 384 l 1,3,-1
 256 384 l 1,4,-1
 256 512 l 1,5,-1
 128 512 l 1,6,-1
 128 384 l 1,7,-1
 256 384 l 1,8,-1
 256 256 l 1,9,-1
 128 256 l 1,10,-1
 128 128 l 1,11,-1
 256 128 l 1,12,-1
 256 256 l 1,13,-1
 384 256 l 1,14,-1
 384 0 l 1,15,-1
 0 0 l 1,0,-1
EndSplineSet
EndChar

StartChar: C
Encoding: 67 67 38
Width: 512
GlyphClass: 1
Flags: W
LayerCount: 2
Fore
SplineSet
0 0 m 1,0,-1
 0 640 l 1,1,-1
 384 640 l 1,2,-1
 384 512 l 1,3,-1
 128 512 l 1,4,-1
 128 128 l 1,5,-1
 384 128 l 1,6,-1
 384 0 l 1,7,-1
 0 0 l 1,0,-1
EndSplineSet
EndChar

StartChar: D
Encoding: 68 68 39
Width: 512
GlyphClass: 1
Flags: W
LayerCount: 2
Fore
SplineSet
256 128 m 1,0,-1
 256 512 l 1,1,-1
 384 512 l 1,2,-1
 384 128 l 1,3,-1
 256 128 l 1,0,-1
0 0 m 1,4,-1
 0 640 l 1,5,-1
 256 640 l 1,6,-1
 256 512 l 1,7,-1
 128 512 l 1,8,-1
 128 128 l 1,9,-1
 256 128 l 1,10,-1
 256 0 l 1,11,-1
 0 0 l 1,4,-1
EndSplineSet
EndChar

StartChar: E
Encoding: 69 69 40
Width: 512
GlyphClass: 1
Flags: W
LayerCount: 2
Fore
SplineSet
0 0 m 1,0,-1
 0 640 l 1,1,-1
 384 640 l 1,2,-1
 384 512 l 1,3,-1
 128 512 l 1,4,-1
 128 384 l 1,5,-1
 384 384 l 1,6,-1
 384 256 l 1,7,-1
 128 256 l 1,8,-1
 128 128 l 1,9,-1
 384 128 l 1,10,-1
 384 0 l 1,11,-1
 0 0 l 1,0,-1
EndSplineSet
EndChar

StartChar: F
Encoding: 70 70 41
Width: 512
GlyphClass: 1
Flags: W
LayerCount: 2
Fore
SplineSet
0 0 m 1,0,-1
 0 640 l 1,1,-1
 384 640 l 1,2,-1
 384 512 l 1,3,-1
 128 512 l 1,4,-1
 128 384 l 1,5,-1
 384 384 l 1,6,-1
 384 256 l 1,7,-1
 128 256 l 1,8,-1
 128 0 l 1,9,-1
 0 0 l 1,0,-1
EndSplineSet
EndChar

StartChar: G
Encoding: 71 71 42
Width: 512
GlyphClass: 1
Flags: W
LayerCount: 2
Fore
SplineSet
0 0 m 1,0,-1
 0 640 l 1,1,-1
 384 640 l 1,2,-1
 384 512 l 1,3,-1
 128 512 l 1,4,-1
 128 128 l 1,5,-1
 256 128 l 1,6,-1
 256 384 l 1,7,-1
 384 384 l 1,8,-1
 384 0 l 1,9,-1
 0 0 l 1,0,-1
EndSplineSet
EndChar

StartChar: H
Encoding: 72 72 43
Width: 512
GlyphClass: 1
Flags: W
LayerCount: 2
Fore
SplineSet
0 0 m 1,0,-1
 0 640 l 1,1,-1
 128 640 l 1,2,-1
 128 384 l 1,3,-1
 256 384 l 1,4,-1
 256 640 l 1,5,-1
 384 640 l 1,6,-1
 384 0 l 1,7,-1
 256 0 l 1,8,-1
 256 256 l 1,9,-1
 128 256 l 1,10,-1
 128 0 l 1,11,-1
 0 0 l 1,0,-1
EndSplineSet
EndChar

StartChar: I
Encoding: 73 73 44
Width: 512
GlyphClass: 1
Flags: W
LayerCount: 2
Fore
SplineSet
0 0 m 1,0,-1
 0 128 l 1,1,-1
 128 128 l 1,2,-1
 128 512 l 1,3,-1
 0 512 l 1,4,-1
 0 640 l 1,5,-1
 384 640 l 1,6,-1
 384 512 l 1,7,-1
 256 512 l 1,8,-1
 256 128 l 1,9,-1
 384 128 l 1,10,-1
 384 0 l 1,11,-1
 0 0 l 1,0,-1
EndSplineSet
EndChar

StartChar: J
Encoding: 74 74 45
Width: 512
GlyphClass: 1
Flags: W
LayerCount: 2
Fore
SplineSet
0 0 m 1,0,-1
 0 256 l 1,1,-1
 128 256 l 1,2,-1
 128 128 l 1,3,-1
 256 128 l 1,4,-1
 256 640 l 1,5,-1
 384 640 l 1,6,-1
 384 0 l 1,7,-1
 0 0 l 1,0,-1
EndSplineSet
EndChar

StartChar: K
Encoding: 75 75 46
Width: 512
GlyphClass: 1
Flags: W
LayerCount: 2
Fore
SplineSet
256 0 m 1,0,-1
 256 256 l 1,1,-1
 384 256 l 1,2,-1
 384 0 l 1,3,-1
 256 0 l 1,0,-1
0 0 m 1,4,-1
 0 640 l 1,5,-1
 128 640 l 1,6,-1
 128 384 l 1,7,-1
 256 384 l 1,8,-1
 256 256 l 1,9,-1
 128 256 l 1,10,-1
 128 0 l 1,11,-1
 0 0 l 1,4,-1
256 384 m 1,12,-1
 256 640 l 1,13,-1
 384 640 l 1,14,-1
 384 384 l 1,15,-1
 256 384 l 1,12,-1
EndSplineSet
EndChar

StartChar: L
Encoding: 76 76 47
Width: 512
GlyphClass: 1
Flags: W
LayerCount: 2
Fore
SplineSet
0 0 m 1,0,-1
 0 640 l 1,1,-1
 128 640 l 1,2,-1
 128 128 l 1,3,-1
 384 128 l 1,4,-1
 384 0 l 1,5,-1
 0 0 l 1,0,-1
EndSplineSet
EndChar

StartChar: M
Encoding: 77 77 48
Width: 768
GlyphClass: 1
Flags: W
LayerCount: 2
Fore
SplineSet
0 0 m 1,0,-1
 0 640 l 1,1,-1
 640 640 l 1,2,-1
 640 0 l 1,3,-1
 512 0 l 1,4,-1
 512 512 l 1,5,-1
 384 512 l 1,6,-1
 384 0 l 1,7,-1
 256 0 l 1,8,-1
 256 512 l 1,9,-1
 128 512 l 1,10,-1
 128 0 l 1,11,-1
 0 0 l 1,0,-1
EndSplineSet
EndChar

StartChar: N
Encoding: 78 78 49
Width: 512
GlyphClass: 1
Flags: W
LayerCount: 2
Fore
SplineSet
0 0 m 1,0,-1
 0 640 l 1,1,-1
 384 640 l 1,2,-1
 384 0 l 1,3,-1
 256 0 l 1,4,-1
 256 512 l 1,5,-1
 128 512 l 1,6,-1
 128 0 l 1,7,-1
 0 0 l 1,0,-1
EndSplineSet
EndChar

StartChar: O
Encoding: 79 79 50
Width: 512
GlyphClass: 1
Flags: W
LayerCount: 2
Fore
SplineSet
256 128 m 1,0,-1
 256 512 l 1,1,-1
 128 512 l 1,2,-1
 128 128 l 1,3,-1
 256 128 l 1,0,-1
0 0 m 1,4,-1
 0 640 l 1,5,-1
 384 640 l 1,6,-1
 384 0 l 1,7,-1
 0 0 l 1,4,-1
EndSplineSet
EndChar

StartChar: P
Encoding: 80 80 51
Width: 512
GlyphClass: 1
Flags: W
LayerCount: 2
Fore
SplineSet
256 384 m 1,0,-1
 256 512 l 1,1,-1
 128 512 l 1,2,-1
 128 384 l 1,3,-1
 256 384 l 1,0,-1
0 0 m 1,4,-1
 0 640 l 1,5,-1
 384 640 l 1,6,-1
 384 256 l 1,7,-1
 128 256 l 1,8,-1
 128 0 l 1,9,-1
 0 0 l 1,4,-1
EndSplineSet
EndChar

StartChar: Q
Encoding: 81 81 52
Width: 512
GlyphClass: 1
Flags: W
LayerCount: 2
Fore
SplineSet
256 128 m 1,0,-1
 256 512 l 1,1,-1
 128 512 l 1,2,-1
 128 128 l 1,3,-1
 256 128 l 1,0,-1
128 -128 m 1,4,-1
 128 0 l 1,5,-1
 0 0 l 1,6,-1
 0 640 l 1,7,-1
 384 640 l 1,8,-1
 384 0 l 1,9,-1
 256 0 l 1,10,-1
 256 -128 l 1,11,-1
 128 -128 l 1,4,-1
EndSplineSet
EndChar

StartChar: R
Encoding: 82 82 53
Width: 512
GlyphClass: 1
Flags: W
LayerCount: 2
Fore
SplineSet
256 0 m 1,0,-1
 256 256 l 1,1,-1
 384 256 l 1,2,-1
 384 0 l 1,3,-1
 256 0 l 1,0,-1
0 0 m 1,4,-1
 0 640 l 1,5,-1
 384 640 l 1,6,-1
 384 384 l 1,7,-1
 256 384 l 1,8,-1
 256 512 l 1,9,-1
 128 512 l 1,10,-1
 128 384 l 1,11,-1
 256 384 l 1,12,-1
 256 256 l 1,13,-1
 128 256 l 1,14,-1
 128 0 l 1,15,-1
 0 0 l 1,4,-1
EndSplineSet
EndChar

StartChar: S
Encoding: 83 83 54
Width: 512
GlyphClass: 1
Flags: W
LayerCount: 2
Fore
SplineSet
0 0 m 1,0,-1
 0 128 l 1,1,-1
 256 128 l 1,2,-1
 256 256 l 1,3,-1
 0 256 l 1,4,-1
 0 640 l 1,5,-1
 384 640 l 1,6,-1
 384 512 l 1,7,-1
 128 512 l 1,8,-1
 128 384 l 1,9,-1
 384 384 l 1,10,-1
 384 0 l 1,11,-1
 0 0 l 1,0,-1
EndSplineSet
EndChar

StartChar: T
Encoding: 84 84 55
Width: 512
GlyphClass: 1
Flags: W
LayerCount: 2
Fore
SplineSet
128 0 m 1,0,-1
 128 512 l 1,1,-1
 0 512 l 1,2,-1
 0 640 l 1,3,-1
 384 640 l 1,4,-1
 384 512 l 1,5,-1
 256 512 l 1,6,-1
 256 0 l 1,7,-1
 128 0 l 1,0,-1
EndSplineSet
EndChar

StartChar: U
Encoding: 85 85 56
Width: 512
GlyphClass: 1
Flags: W
LayerCount: 2
Fore
SplineSet
0 0 m 1,0,-1
 0 640 l 1,1,-1
 128 640 l 1,2,-1
 128 128 l 1,3,-1
 256 128 l 1,4,-1
 256 640 l 1,5,-1
 384 640 l 1,6,-1
 384 0 l 1,7,-1
 0 0 l 1,0,-1
EndSplineSet
EndChar

StartChar: V
Encoding: 86 86 57
Width: 512
GlyphClass: 1
Flags: W
LayerCount: 2
Fore
SplineSet
128 0 m 1,0,-1
 128 128 l 1,1,-1
 256 128 l 1,2,-1
 256 0 l 1,3,-1
 128 0 l 1,0,-1
0 128 m 1,4,-1
 0 640 l 1,5,-1
 128 640 l 1,6,-1
 128 128 l 1,7,-1
 0 128 l 1,4,-1
256 128 m 1,8,-1
 256 640 l 1,9,-1
 384 640 l 1,10,-1
 384 128 l 1,11,-1
 256 128 l 1,8,-1
EndSplineSet
EndChar

StartChar: W
Encoding: 87 87 58
Width: 768
GlyphClass: 1
Flags: W
LayerCount: 2
Fore
SplineSet
0 0 m 1,0,-1
 0 640 l 1,1,-1
 128 640 l 1,2,-1
 128 128 l 1,3,-1
 256 128 l 1,4,-1
 256 640 l 1,5,-1
 384 640 l 1,6,-1
 384 128 l 1,7,-1
 512 128 l 1,8,-1
 512 640 l 1,9,-1
 640 640 l 1,10,-1
 640 0 l 1,11,-1
 0 0 l 1,0,-1
EndSplineSet
EndChar

StartChar: X
Encoding: 88 88 59
Width: 512
GlyphClass: 1
Flags: W
LayerCount: 2
Fore
SplineSet
0 0 m 1,0,-1
 0 256 l 1,1,-1
 128 256 l 1,2,-1
 128 0 l 1,3,-1
 0 0 l 1,0,-1
256 0 m 1,4,-1
 256 256 l 1,5,-1
 384 256 l 1,6,-1
 384 0 l 1,7,-1
 256 0 l 1,4,-1
128 256 m 1,8,-1
 128 384 l 1,9,-1
 256 384 l 1,10,-1
 256 256 l 1,11,-1
 128 256 l 1,8,-1
0 384 m 1,12,-1
 0 640 l 1,13,-1
 128 640 l 1,14,-1
 128 384 l 1,15,-1
 0 384 l 1,12,-1
256 384 m 1,16,-1
 256 640 l 1,17,-1
 384 640 l 1,18,-1
 384 384 l 1,19,-1
 256 384 l 1,16,-1
EndSplineSet
EndChar

StartChar: Y
Encoding: 89 89 60
Width: 512
GlyphClass: 1
Flags: W
LayerCount: 2
Fore
SplineSet
128 0 m 1,0,-1
 128 256 l 1,1,-1
 0 256 l 1,2,-1
 0 640 l 1,3,-1
 128 640 l 1,4,-1
 128 384 l 1,5,-1
 256 384 l 1,6,-1
 256 640 l 1,7,-1
 384 640 l 1,8,-1
 384 256 l 1,9,-1
 256 256 l 1,10,-1
 256 0 l 1,11,-1
 128 0 l 1,0,-1
EndSplineSet
EndChar

StartChar: Z
Encoding: 90 90 61
Width: 512
GlyphClass: 1
Flags: W
LayerCount: 2
Fore
SplineSet
0 0 m 1,0,-1
 0 256 l 1,1,-1
 128 256 l 1,2,-1
 128 128 l 1,3,-1
 384 128 l 1,4,-1
 384 0 l 1,5,-1
 0 0 l 1,0,-1
128 256 m 1,6,-1
 128 384 l 1,7,-1
 256 384 l 1,8,-1
 256 256 l 1,9,-1
 128 256 l 1,6,-1
256 384 m 1,10,-1
 256 512 l 1,11,-1
 0 512 l 1,12,-1
 0 640 l 1,13,-1
 384 640 l 1,14,-1
 384 384 l 1,15,-1
 256 384 l 1,10,-1
EndSplineSet
EndChar

StartChar: bracketleft
Encoding: 91 91 62
Width: 384
GlyphClass: 1
Flags: W
LayerCount: 2
Fore
SplineSet
0 0 m 1,0,-1
 0 640 l 1,1,-1
 256 640 l 1,2,-1
 256 512 l 1,3,-1
 128 512 l 1,4,-1
 128 128 l 1,5,-1
 256 128 l 1,6,-1
 256 0 l 1,7,-1
 0 0 l 1,0,-1
EndSplineSet
EndChar

StartChar: backslash
Encoding: 92 92 63
Width: 512
GlyphClass: 1
Flags: W
LayerCount: 2
Fore
SplineSet
256 128 m 1,0,-1
 256 256 l 1,1,-1
 384 256 l 1,2,-1
 384 128 l 1,3,-1
 256 128 l 1,0,-1
128 256 m 1,4,-1
 128 384 l 1,5,-1
 256 384 l 1,6,-1
 256 256 l 1,7,-1
 128 256 l 1,4,-1
0 384 m 1,8,-1
 0 512 l 1,9,-1
 128 512 l 1,10,-1
 128 384 l 1,11,-1
 0 384 l 1,8,-1
EndSplineSet
EndChar

StartChar: bracketright
Encoding: 93 93 64
Width: 384
GlyphClass: 1
Flags: W
LayerCount: 2
Fore
SplineSet
0 0 m 1,0,-1
 0 128 l 1,1,-1
 128 128 l 1,2,-1
 128 512 l 1,3,-1
 0 512 l 1,4,-1
 0 640 l 1,5,-1
 256 640 l 1,6,-1
 256 0 l 1,7,-1
 0 0 l 1,0,-1
EndSplineSet
EndChar

StartChar: asciicircum
Encoding: 94 94 65
Width: 512
GlyphClass: 1
Flags: W
LayerCount: 2
Fore
SplineSet
0 384 m 1,0,-1
 0 512 l 1,1,-1
 128 512 l 1,2,-1
 128 384 l 1,3,-1
 0 384 l 1,0,-1
256 384 m 1,4,-1
 256 512 l 1,5,-1
 384 512 l 1,6,-1
 384 384 l 1,7,-1
 256 384 l 1,4,-1
128 512 m 1,8,-1
 128 640 l 1,9,-1
 256 640 l 1,10,-1
 256 512 l 1,11,-1
 128 512 l 1,8,-1
EndSplineSet
EndChar

StartChar: underscore
Encoding: 95 95 66
Width: 512
GlyphClass: 1
Flags: W
LayerCount: 2
Fore
SplineSet
0 0 m 1,0,-1
 0 128 l 1,1,-1
 384 128 l 1,2,-1
 384 0 l 1,3,-1
 0 0 l 1,0,-1
EndSplineSet
EndChar

StartChar: grave
Encoding: 96 96 67
Width: 384
GlyphClass: 1
Flags: W
LayerCount: 2
Fore
SplineSet
128 384 m 1,0,-1
 128 512 l 1,1,-1
 256 512 l 1,2,-1
 256 384 l 1,3,-1
 128 384 l 1,0,-1
0 512 m 1,4,-1
 0 640 l 1,5,-1
 128 640 l 1,6,-1
 128 512 l 1,7,-1
 0 512 l 1,4,-1
EndSplineSet
EndChar

StartChar: a
Encoding: 97 97 68
Width: 512
GlyphClass: 1
Flags: W
LayerCount: 2
Fore
SplineSet
0 128 m 1,0,-1
 0 384 l 1,1,-1
 128 384 l 1,2,-1
 128 128 l 1,3,-1
 0 128 l 1,0,-1
128 0 m 1,4,-1
 128 128 l 1,5,-1
 256 128 l 1,6,-1
 256 384 l 1,7,-1
 128 384 l 1,8,-1
 128 512 l 1,9,-1
 384 512 l 1,10,-1
 384 0 l 1,11,-1
 128 0 l 1,4,-1
EndSplineSet
EndChar

StartChar: b
Encoding: 98 98 69
Width: 512
GlyphClass: 1
Flags: W
LayerCount: 2
Fore
SplineSet
256 128 m 1,0,-1
 256 384 l 1,1,-1
 384 384 l 1,2,-1
 384 128 l 1,3,-1
 256 128 l 1,0,-1
0 0 m 1,4,-1
 0 640 l 1,5,-1
 128 640 l 1,6,-1
 128 512 l 1,7,-1
 256 512 l 1,8,-1
 256 384 l 1,9,-1
 128 384 l 1,10,-1
 128 128 l 1,11,-1
 256 128 l 1,12,-1
 256 0 l 1,13,-1
 0 0 l 1,4,-1
EndSplineSet
EndChar

StartChar: c
Encoding: 99 99 70
Width: 512
GlyphClass: 1
Flags: W
LayerCount: 2
Fore
SplineSet
0 0 m 1,0,-1
 0 512 l 1,1,-1
 384 512 l 1,2,-1
 384 384 l 1,3,-1
 128 384 l 1,4,-1
 128 128 l 1,5,-1
 384 128 l 1,6,-1
 384 0 l 1,7,-1
 0 0 l 1,0,-1
EndSplineSet
EndChar

StartChar: d
Encoding: 100 100 71
Width: 512
GlyphClass: 1
Flags: W
LayerCount: 2
Fore
SplineSet
0 128 m 1,0,-1
 0 384 l 1,1,-1
 128 384 l 1,2,-1
 128 128 l 1,3,-1
 0 128 l 1,0,-1
128 0 m 1,4,-1
 128 128 l 1,5,-1
 256 128 l 1,6,-1
 256 384 l 1,7,-1
 128 384 l 1,8,-1
 128 512 l 1,9,-1
 256 512 l 1,10,-1
 256 640 l 1,11,-1
 384 640 l 1,12,-1
 384 0 l 1,13,-1
 128 0 l 1,4,-1
EndSplineSet
EndChar

StartChar: e
Encoding: 101 101 72
Width: 512
GlyphClass: 1
Flags: W
LayerCount: 2
Fore
SplineSet
128 0 m 1,0,-1
 128 128 l 1,1,-1
 0 128 l 1,2,-1
 0 384 l 1,3,-1
 128 384 l 1,4,-1
 128 256 l 1,5,-1
 256 256 l 1,6,-1
 256 128 l 1,7,-1
 384 128 l 1,8,-1
 384 0 l 1,9,-1
 128 0 l 1,0,-1
256 256 m 1,10,-1
 256 384 l 1,11,-1
 384 384 l 1,12,-1
 384 256 l 1,13,-1
 256 256 l 1,10,-1
128 384 m 1,14,-1
 128 512 l 1,15,-1
 256 512 l 1,16,-1
 256 384 l 1,17,-1
 128 384 l 1,14,-1
EndSplineSet
EndChar

StartChar: f
Encoding: 102 102 73
Width: 512
GlyphClass: 1
Flags: W
LayerCount: 2
Fore
SplineSet
128 0 m 1,0,-1
 128 256 l 1,1,-1
 0 256 l 1,2,-1
 0 384 l 1,3,-1
 128 384 l 1,4,-1
 128 640 l 1,5,-1
 384 640 l 1,6,-1
 384 512 l 1,7,-1
 256 512 l 1,8,-1
 256 384 l 1,9,-1
 384 384 l 1,10,-1
 384 256 l 1,11,-1
 256 256 l 1,12,-1
 256 0 l 1,13,-1
 128 0 l 1,0,-1
EndSplineSet
EndChar

StartChar: g
Encoding: 103 103 74
Width: 512
GlyphClass: 1
Flags: W
LayerCount: 2
Fore
SplineSet
0 -128 m 1,0,-1
 0 0 l 1,1,-1
 256 0 l 1,2,-1
 256 -128 l 1,3,-1
 0 -128 l 1,0,-1
256 256 m 1,4,-1
 256 384 l 1,5,-1
 128 384 l 1,6,-1
 128 256 l 1,7,-1
 256 256 l 1,4,-1
256 0 m 1,8,-1
 256 128 l 1,9,-1
 0 128 l 1,10,-1
 0 512 l 1,11,-1
 384 512 l 1,12,-1
 384 0 l 1,13,-1
 256 0 l 1,8,-1
EndSplineSet
EndChar

StartChar: h
Encoding: 104 104 75
Width: 512
GlyphClass: 1
Flags: W
LayerCount: 2
Fore
SplineSet
256 0 m 1,0,-1
 256 384 l 1,1,-1
 384 384 l 1,2,-1
 384 0 l 1,3,-1
 256 0 l 1,0,-1
0 0 m 1,4,-1
 0 640 l 1,5,-1
 128 640 l 1,6,-1
 128 512 l 1,7,-1
 256 512 l 1,8,-1
 256 384 l 1,9,-1
 128 384 l 1,10,-1
 128 0 l 1,11,-1
 0 0 l 1,4,-1
EndSplineSet
EndChar

StartChar: i
Encoding: 105 105 76
Width: 256
GlyphClass: 1
Flags: W
LayerCount: 2
Fore
SplineSet
0 0 m 1,0,-1
 0 384 l 1,1,-1
 128 384 l 1,2,-1
 128 0 l 1,3,-1
 0 0 l 1,0,-1
0 512 m 1,4,-1
 0 640 l 1,5,-1
 128 640 l 1,6,-1
 128 512 l 1,7,-1
 0 512 l 1,4,-1
EndSplineSet
EndChar

StartChar: j
Encoding: 106 106 77
Width: 384
GlyphClass: 1
Flags: W
LayerCount: 2
Fore
SplineSet
0 -128 m 1,0,-1
 0 0 l 1,1,-1
 128 0 l 1,2,-1
 128 -128 l 1,3,-1
 0 -128 l 1,0,-1
128 0 m 1,4,-1
 128 384 l 1,5,-1
 256 384 l 1,6,-1
 256 0 l 1,7,-1
 128 0 l 1,4,-1
128 512 m 1,8,-1
 128 640 l 1,9,-1
 256 640 l 1,10,-1
 256 512 l 1,11,-1
 128 512 l 1,8,-1
EndSplineSet
EndChar

StartChar: k
Encoding: 107 107 78
Width: 512
GlyphClass: 1
Flags: W
LayerCount: 2
Fore
SplineSet
256 0 m 1,0,-1
 256 256 l 1,1,-1
 384 256 l 1,2,-1
 384 0 l 1,3,-1
 256 0 l 1,0,-1
256 384 m 1,4,-1
 256 512 l 1,5,-1
 384 512 l 1,6,-1
 384 384 l 1,7,-1
 256 384 l 1,4,-1
0 0 m 1,8,-1
 0 640 l 1,9,-1
 128 640 l 1,10,-1
 128 384 l 1,11,-1
 256 384 l 1,12,-1
 256 256 l 1,13,-1
 128 256 l 1,14,-1
 128 0 l 1,15,-1
 0 0 l 1,8,-1
EndSplineSet
EndChar

StartChar: l
Encoding: 108 108 79
Width: 384
GlyphClass: 1
Flags: W
LayerCount: 2
Fore
SplineSet
128 0 m 1,0,-1
 128 512 l 1,1,-1
 0 512 l 1,2,-1
 0 640 l 1,3,-1
 256 640 l 1,4,-1
 256 0 l 1,5,-1
 128 0 l 1,0,-1
EndSplineSet
EndChar

StartChar: m
Encoding: 109 109 80
Width: 768
GlyphClass: 1
Flags: W
LayerCount: 2
Fore
SplineSet
0 0 m 1,0,-1
 0 512 l 1,1,-1
 640 512 l 1,2,-1
 640 0 l 1,3,-1
 512 0 l 1,4,-1
 512 384 l 1,5,-1
 384 384 l 1,6,-1
 384 0 l 1,7,-1
 256 0 l 1,8,-1
 256 384 l 1,9,-1
 128 384 l 1,10,-1
 128 0 l 1,11,-1
 0 0 l 1,0,-1
EndSplineSet
EndChar

StartChar: n
Encoding: 110 110 81
Width: 512
GlyphClass: 1
Flags: W
LayerCount: 2
Fore
SplineSet
0 0 m 1,0,-1
 0 512 l 1,1,-1
 384 512 l 1,2,-1
 384 0 l 1,3,-1
 256 0 l 1,4,-1
 256 384 l 1,5,-1
 128 384 l 1,6,-1
 128 0 l 1,7,-1
 0 0 l 1,0,-1
EndSplineSet
EndChar

StartChar: o
Encoding: 111 111 82
Width: 512
GlyphClass: 1
Flags: W
LayerCount: 2
Fore
SplineSet
256 128 m 1,0,-1
 256 384 l 1,1,-1
 128 384 l 1,2,-1
 128 128 l 1,3,-1
 256 128 l 1,0,-1
0 0 m 1,4,-1
 0 512 l 1,5,-1
 384 512 l 1,6,-1
 384 0 l 1,7,-1
 0 0 l 1,4,-1
EndSplineSet
EndChar

StartChar: p
Encoding: 112 112 83
Width: 512
GlyphClass: 1
Flags: W
LayerCount: 2
Fore
SplineSet
256 128 m 1,0,-1
 256 384 l 1,1,-1
 384 384 l 1,2,-1
 384 128 l 1,3,-1
 256 128 l 1,0,-1
0 -128 m 1,4,-1
 0 512 l 1,5,-1
 256 512 l 1,6,-1
 256 384 l 1,7,-1
 128 384 l 1,8,-1
 128 128 l 1,9,-1
 256 128 l 1,10,-1
 256 0 l 1,11,-1
 128 0 l 1,12,-1
 128 -128 l 1,13,-1
 0 -128 l 1,4,-1
EndSplineSet
EndChar

StartChar: q
Encoding: 113 113 84
Width: 512
GlyphClass: 1
Flags: W
LayerCount: 2
Fore
SplineSet
0 128 m 1,0,-1
 0 384 l 1,1,-1
 128 384 l 1,2,-1
 128 128 l 1,3,-1
 0 128 l 1,0,-1
256 -128 m 1,4,-1
 256 0 l 1,5,-1
 128 0 l 1,6,-1
 128 128 l 1,7,-1
 256 128 l 1,8,-1
 256 384 l 1,9,-1
 128 384 l 1,10,-1
 128 512 l 1,11,-1
 384 512 l 1,12,-1
 384 -128 l 1,13,-1
 256 -128 l 1,4,-1
EndSplineSet
EndChar

StartChar: r
Encoding: 114 114 85
Width: 512
GlyphClass: 1
Flags: W
LayerCount: 2
Fore
SplineSet
0 0 m 1,0,-1
 0 512 l 1,1,-1
 384 512 l 1,2,-1
 384 256 l 1,3,-1
 256 256 l 1,4,-1
 256 384 l 1,5,-1
 128 384 l 1,6,-1
 128 0 l 1,7,-1
 0 0 l 1,0,-1
EndSplineSet
EndChar

StartChar: s
Encoding: 115 115 86
Width: 512
GlyphClass: 1
Flags: W
LayerCount: 2
Fore
SplineSet
0 0 m 1,0,-1
 0 128 l 1,1,-1
 256 128 l 1,2,-1
 256 0 l 1,3,-1
 0 0 l 1,0,-1
256 128 m 1,4,-1
 256 256 l 1,5,-1
 384 256 l 1,6,-1
 384 128 l 1,7,-1
 256 128 l 1,4,-1
0 256 m 1,8,-1
 0 384 l 1,9,-1
 128 384 l 1,10,-1
 128 256 l 1,11,-1
 0 256 l 1,8,-1
128 384 m 1,12,-1
 128 512 l 1,13,-1
 384 512 l 1,14,-1
 384 384 l 1,15,-1
 128 384 l 1,12,-1
EndSplineSet
EndChar

StartChar: t
Encoding: 116 116 87
Width: 512
GlyphClass: 1
Flags: W
LayerCount: 2
Fore
SplineSet
128 0 m 1,0,-1
 128 384 l 1,1,-1
 0 384 l 1,2,-1
 0 512 l 1,3,-1
 128 512 l 1,4,-1
 128 640 l 1,5,-1
 256 640 l 1,6,-1
 256 512 l 1,7,-1
 384 512 l 1,8,-1
 384 384 l 1,9,-1
 256 384 l 1,10,-1
 256 128 l 1,11,-1
 384 128 l 1,12,-1
 384 0 l 1,13,-1
 128 0 l 1,0,-1
EndSplineSet
EndChar

StartChar: u
Encoding: 117 117 88
Width: 512
GlyphClass: 1
Flags: W
LayerCount: 2
Fore
SplineSet
0 0 m 1,0,-1
 0 512 l 1,1,-1
 128 512 l 1,2,-1
 128 128 l 1,3,-1
 256 128 l 1,4,-1
 256 512 l 1,5,-1
 384 512 l 1,6,-1
 384 0 l 1,7,-1
 0 0 l 1,0,-1
EndSplineSet
EndChar

StartChar: v
Encoding: 118 118 89
Width: 512
GlyphClass: 1
Flags: W
LayerCount: 2
Fore
SplineSet
128 0 m 1,0,-1
 128 128 l 1,1,-1
 256 128 l 1,2,-1
 256 0 l 1,3,-1
 128 0 l 1,0,-1
0 128 m 1,4,-1
 0 512 l 1,5,-1
 128 512 l 1,6,-1
 128 128 l 1,7,-1
 0 128 l 1,4,-1
256 128 m 1,8,-1
 256 512 l 1,9,-1
 384 512 l 1,10,-1
 384 128 l 1,11,-1
 256 128 l 1,8,-1
EndSplineSet
EndChar

StartChar: w
Encoding: 119 119 90
Width: 768
GlyphClass: 1
Flags: W
LayerCount: 2
Fore
SplineSet
0 0 m 1,0,-1
 0 512 l 1,1,-1
 128 512 l 1,2,-1
 128 128 l 1,3,-1
 256 128 l 1,4,-1
 256 512 l 1,5,-1
 384 512 l 1,6,-1
 384 128 l 1,7,-1
 512 128 l 1,8,-1
 512 512 l 1,9,-1
 640 512 l 1,10,-1
 640 0 l 1,11,-1
 0 0 l 1,0,-1
EndSplineSet
EndChar

StartChar: x
Encoding: 120 120 91
Width: 512
GlyphClass: 1
Flags: W
LayerCount: 2
Fore
SplineSet
0 0 m 1,0,-1
 0 256 l 1,1,-1
 128 256 l 1,2,-1
 128 0 l 1,3,-1
 0 0 l 1,0,-1
256 0 m 1,4,-1
 256 256 l 1,5,-1
 384 256 l 1,6,-1
 384 0 l 1,7,-1
 256 0 l 1,4,-1
128 256 m 1,8,-1
 128 384 l 1,9,-1
 256 384 l 1,10,-1
 256 256 l 1,11,-1
 128 256 l 1,8,-1
0 384 m 1,12,-1
 0 512 l 1,13,-1
 128 512 l 1,14,-1
 128 384 l 1,15,-1
 0 384 l 1,12,-1
256 384 m 1,16,-1
 256 512 l 1,17,-1
 384 512 l 1,18,-1
 384 384 l 1,19,-1
 256 384 l 1,16,-1
EndSplineSet
EndChar

StartChar: y
Encoding: 121 121 92
Width: 512
GlyphClass: 1
Flags: W
LayerCount: 2
Fore
SplineSet
0 -128 m 1,0,-1
 0 0 l 1,1,-1
 256 0 l 1,2,-1
 256 -128 l 1,3,-1
 0 -128 l 1,0,-1
256 0 m 1,4,-1
 256 128 l 1,5,-1
 0 128 l 1,6,-1
 0 512 l 1,7,-1
 128 512 l 1,8,-1
 128 256 l 1,9,-1
 256 256 l 1,10,-1
 256 512 l 1,11,-1
 384 512 l 1,12,-1
 384 0 l 1,13,-1
 256 0 l 1,4,-1
EndSplineSet
EndChar

StartChar: z
Encoding: 122 122 93
Width: 512
GlyphClass: 1
Flags: W
LayerCount: 2
Fore
SplineSet
0 0 m 1,0,-1
 0 256 l 1,1,-1
 128 256 l 1,2,-1
 128 128 l 1,3,-1
 384 128 l 1,4,-1
 384 0 l 1,5,-1
 0 0 l 1,0,-1
256 256 m 1,6,-1
 256 384 l 1,7,-1
 0 384 l 1,8,-1
 0 512 l 1,9,-1
 384 512 l 1,10,-1
 384 256 l 1,11,-1
 256 256 l 1,6,-1
EndSplineSet
EndChar

StartChar: braceleft
Encoding: 123 123 94
Width: 512
GlyphClass: 1
Flags: W
LayerCount: 2
Fore
SplineSet
128 0 m 1,0,-1
 128 256 l 1,1,-1
 0 256 l 1,2,-1
 0 384 l 1,3,-1
 128 384 l 1,4,-1
 128 640 l 1,5,-1
 384 640 l 1,6,-1
 384 512 l 1,7,-1
 256 512 l 1,8,-1
 256 128 l 1,9,-1
 384 128 l 1,10,-1
 384 0 l 1,11,-1
 128 0 l 1,0,-1
EndSplineSet
EndChar

StartChar: bar
Encoding: 124 124 95
Width: 256
GlyphClass: 1
Flags: W
LayerCount: 2
Fore
SplineSet
0 0 m 1,0,-1
 0 640 l 1,1,-1
 128 640 l 1,2,-1
 128 0 l 1,3,-1
 0 0 l 1,0,-1
EndSplineSet
EndChar

StartChar: braceright
Encoding: 125 125 96
Width: 512
GlyphClass: 1
Flags: W
LayerCount: 2
Fore
SplineSet
0 0 m 1,0,-1
 0 128 l 1,1,-1
 128 128 l 1,2,-1
 128 512 l 1,3,-1
 0 512 l 1,4,-1
 0 640 l 1,5,-1
 256 640 l 1,6,-1
 256 384 l 1,7,-1
 384 384 l 1,8,-1
 384 256 l 1,9,-1
 256 256 l 1,10,-1
 256 0 l 1,11,-1
 0 0 l 1,0,-1
EndSplineSet
EndChar

StartChar: asciitilde
Encoding: 126 126 97
Width: 640
GlyphClass: 1
Flags: W
LayerCount: 2
Fore
SplineSet
0 256 m 1,0,-1
 0 384 l 1,1,-1
 128 384 l 1,2,-1
 128 256 l 1,3,-1
 0 256 l 1,0,-1
256 256 m 1,4,-1
 256 384 l 1,5,-1
 384 384 l 1,6,-1
 384 256 l 1,7,-1
 256 256 l 1,4,-1
128 384 m 1,8,-1
 128 512 l 1,9,-1
 256 512 l 1,10,-1
 256 384 l 1,11,-1
 128 384 l 1,8,-1
384 384 m 1,12,-1
 384 512 l 1,13,-1
 512 512 l 1,14,-1
 512 384 l 1,15,-1
 384 384 l 1,12,-1
EndSplineSet
EndChar

StartChar: exclamdown
Encoding: 161 161 99
Width: 384
GlyphClass: 1
Flags: W
LayerCount: 2
Fore
SplineSet
128 -128 m 1,0,-1
 128 256 l 1,1,-1
 256 256 l 1,2,-1
 256 -128 l 1,3,-1
 128 -128 l 1,0,-1
128 384 m 1,4,-1
 128 512 l 1,5,-1
 256 512 l 1,6,-1
 256 384 l 1,7,-1
 128 384 l 1,4,-1
EndSplineSet
EndChar

StartChar: cent
Encoding: 162 162 100
Width: 512
GlyphClass: 1
Flags: W
LayerCount: 2
Fore
SplineSet
128 0 m 1,0,-1
 128 128 l 1,1,-1
 0 128 l 1,2,-1
 0 512 l 1,3,-1
 128 512 l 1,4,-1
 128 640 l 1,5,-1
 256 640 l 1,6,-1
 256 512 l 1,7,-1
 384 512 l 1,8,-1
 384 384 l 1,9,-1
 128 384 l 1,10,-1
 128 256 l 1,11,-1
 384 256 l 1,12,-1
 384 128 l 1,13,-1
 256 128 l 1,14,-1
 256 0 l 1,15,-1
 128 0 l 1,0,-1
EndSplineSet
EndChar

StartChar: sterling
Encoding: 163 163 101
Width: 512
GlyphClass: 1
Flags: W
LayerCount: 2
Fore
SplineSet
0 0 m 1,0,-1
 0 128 l 1,1,-1
 128 128 l 1,2,-1
 128 256 l 1,3,-1
 0 256 l 1,4,-1
 0 384 l 1,5,-1
 128 384 l 1,6,-1
 128 640 l 1,7,-1
 384 640 l 1,8,-1
 384 512 l 1,9,-1
 256 512 l 1,10,-1
 256 384 l 1,11,-1
 384 384 l 1,12,-1
 384 256 l 1,13,-1
 256 256 l 1,14,-1
 256 128 l 1,15,-1
 384 128 l 1,16,-1
 384 0 l 1,17,-1
 0 0 l 1,0,-1
EndSplineSet
EndChar

StartChar: yen
Encoding: 165 165 102
Width: 512
GlyphClass: 1
Flags: W
LayerCount: 2
Fore
SplineSet
128 0 m 1,0,-1
 128 128 l 1,1,-1
 0 128 l 1,2,-1
 0 256 l 1,3,-1
 128 256 l 1,4,-1
 128 384 l 1,5,-1
 0 384 l 1,6,-1
 0 640 l 1,7,-1
 128 640 l 1,8,-1
 128 512 l 1,9,-1
 256 512 l 1,10,-1
 256 640 l 1,11,-1
 384 640 l 1,12,-1
 384 384 l 1,13,-1
 256 384 l 1,14,-1
 256 256 l 1,15,-1
 384 256 l 1,16,-1
 384 128 l 1,17,-1
 256 128 l 1,18,-1
 256 0 l 1,19,-1
 128 0 l 1,0,-1
EndSplineSet
EndChar

StartChar: brokenbar
Encoding: 166 166 103
Width: 256
GlyphClass: 1
Flags: W
LayerCount: 2
Fore
SplineSet
0 0 m 1,0,-1
 0 256 l 1,1,-1
 128 256 l 1,2,-1
 128 0 l 1,3,-1
 0 0 l 1,0,-1
0 384 m 1,4,-1
 0 640 l 1,5,-1
 128 640 l 1,6,-1
 128 384 l 1,7,-1
 0 384 l 1,4,-1
EndSplineSet
EndChar

StartChar: section
Encoding: 167 167 104
Width: 512
GlyphClass: 1
Flags: W
LayerCount: 2
Fore
SplineSet
0 0 m 1,0,-1
 0 128 l 1,1,-1
 256 128 l 1,2,-1
 256 256 l 1,3,-1
 384 256 l 1,4,-1
 384 0 l 1,5,-1
 0 0 l 1,0,-1
128 256 m 1,6,-1
 128 384 l 1,7,-1
 256 384 l 1,8,-1
 256 256 l 1,9,-1
 128 256 l 1,6,-1
0 384 m 1,10,-1
 0 640 l 1,11,-1
 384 640 l 1,12,-1
 384 512 l 1,13,-1
 128 512 l 1,14,-1
 128 384 l 1,15,-1
 0 384 l 1,10,-1
EndSplineSet
EndChar

StartChar: dieresis
Encoding: 168 168 105
Width: 512
GlyphClass: 1
Flags: W
LayerCount: 2
Fore
SplineSet
0 512 m 1,0,-1
 0 640 l 1,1,-1
 128 640 l 1,2,-1
 128 512 l 1,3,-1
 0 512 l 1,0,-1
256 512 m 1,4,-1
 256 640 l 1,5,-1
 384 640 l 1,6,-1
 384 512 l 1,7,-1
 256 512 l 1,4,-1
EndSplineSet
EndChar

StartChar: copyright
Encoding: 169 169 106
Width: 512
GlyphClass: 1
Flags: W
LayerCount: 2
Fore
SplineSet
0 128 m 1,0,-1
 0 512 l 1,1,-1
 384 512 l 1,2,-1
 384 384 l 1,3,-1
 128 384 l 1,4,-1
 128 256 l 1,5,-1
 384 256 l 1,6,-1
 384 128 l 1,7,-1
 0 128 l 1,0,-1
EndSplineSet
EndChar

StartChar: ordfeminine
Encoding: 170 170 107
Width: 512
GlyphClass: 1
Flags: W
LayerCount: 2
Fore
SplineSet
0 384 m 1,0,-1
 0 512 l 1,1,-1
 128 512 l 1,2,-1
 128 384 l 1,3,-1
 0 384 l 1,0,-1
128 256 m 1,4,-1
 128 384 l 1,5,-1
 256 384 l 1,6,-1
 256 512 l 1,7,-1
 128 512 l 1,8,-1
 128 640 l 1,9,-1
 384 640 l 1,10,-1
 384 256 l 1,11,-1
 128 256 l 1,4,-1
EndSplineSet
EndChar

StartChar: guillemotleft
Encoding: 171 171 108
Width: 768
GlyphClass: 1
Flags: W
LayerCount: 2
Fore
SplineSet
128 128 m 1,0,-1
 128 256 l 1,1,-1
 256 256 l 1,2,-1
 256 128 l 1,3,-1
 128 128 l 1,0,-1
512 128 m 1,4,-1
 512 256 l 1,5,-1
 640 256 l 1,6,-1
 640 128 l 1,7,-1
 512 128 l 1,4,-1
0 256 m 1,8,-1
 0 384 l 1,9,-1
 128 384 l 1,10,-1
 128 256 l 1,11,-1
 0 256 l 1,8,-1
384 256 m 1,12,-1
 384 384 l 1,13,-1
 512 384 l 1,14,-1
 512 256 l 1,15,-1
 384 256 l 1,12,-1
128 384 m 1,16,-1
 128 512 l 1,17,-1
 256 512 l 1,18,-1
 256 384 l 1,19,-1
 128 384 l 1,16,-1
512 384 m 1,20,-1
 512 512 l 1,21,-1
 640 512 l 1,22,-1
 640 384 l 1,23,-1
 512 384 l 1,20,-1
EndSplineSet
EndChar

StartChar: logicalnot
Encoding: 172 172 109
Width: 512
GlyphClass: 1
Flags: W
LayerCount: 2
Fore
SplineSet
256 128 m 1,0,-1
 256 256 l 1,1,-1
 0 256 l 1,2,-1
 0 384 l 1,3,-1
 384 384 l 1,4,-1
 384 128 l 1,5,-1
 256 128 l 1,0,-1
EndSplineSet
EndChar

StartChar: uni00AD
Encoding: 173 173 110
Width: 384
GlyphClass: 1
Flags: W
LayerCount: 2
Fore
SplineSet
0 256 m 1,0,-1
 0 384 l 1,1,-1
 256 384 l 1,2,-1
 256 256 l 1,3,-1
 0 256 l 1,0,-1
EndSplineSet
EndChar

StartChar: registered
Encoding: 174 174 111
Width: 512
GlyphClass: 1
Flags: W
LayerCount: 2
Fore
SplineSet
256 128 m 1,0,-1
 256 256 l 1,1,-1
 384 256 l 1,2,-1
 384 128 l 1,3,-1
 256 128 l 1,0,-1
0 128 m 1,4,-1
 0 512 l 1,5,-1
 384 512 l 1,6,-1
 384 384 l 1,7,-1
 256 384 l 1,8,-1
 256 256 l 1,9,-1
 128 256 l 1,10,-1
 128 128 l 1,11,-1
 0 128 l 1,4,-1
EndSplineSet
EndChar

StartChar: macron
Encoding: 175 175 112
Width: 512
GlyphClass: 1
Flags: W
LayerCount: 2
Fore
SplineSet
0 512 m 1,0,-1
 0 640 l 1,1,-1
 384 640 l 1,2,-1
 384 512 l 1,3,-1
 0 512 l 1,0,-1
EndSplineSet
EndChar

StartChar: degree
Encoding: 176 176 113
Width: 256
GlyphClass: 1
Flags: W
LayerCount: 2
Fore
SplineSet
0 512 m 1,0,-1
 0 640 l 1,1,-1
 128 640 l 1,2,-1
 128 512 l 1,3,-1
 0 512 l 1,0,-1
EndSplineSet
EndChar

StartChar: plusminus
Encoding: 177 177 114
Width: 512
GlyphClass: 1
Flags: W
LayerCount: 2
Fore
SplineSet
0 0 m 1,0,-1
 0 128 l 1,1,-1
 384 128 l 1,2,-1
 384 0 l 1,3,-1
 0 0 l 1,0,-1
128 256 m 1,4,-1
 128 384 l 1,5,-1
 0 384 l 1,6,-1
 0 512 l 1,7,-1
 128 512 l 1,8,-1
 128 640 l 1,9,-1
 256 640 l 1,10,-1
 256 512 l 1,11,-1
 384 512 l 1,12,-1
 384 384 l 1,13,-1
 256 384 l 1,14,-1
 256 256 l 1,15,-1
 128 256 l 1,4,-1
EndSplineSet
EndChar

StartChar: uni00B2
Encoding: 178 178 115
Width: 512
GlyphClass: 1
Flags: W
LayerCount: 2
Fore
SplineSet
128 256 m 1,0,-1
 128 512 l 1,1,-1
 0 512 l 1,2,-1
 0 640 l 1,3,-1
 256 640 l 1,4,-1
 256 384 l 1,5,-1
 384 384 l 1,6,-1
 384 256 l 1,7,-1
 128 256 l 1,0,-1
EndSplineSet
EndChar

StartChar: uni00B3
Encoding: 179 179 116
Width: 384
GlyphClass: 1
Flags: W
LayerCount: 2
Fore
SplineSet
0 256 m 1,0,-1
 0 384 l 1,1,-1
 128 384 l 1,2,-1
 128 512 l 1,3,-1
 0 512 l 1,4,-1
 0 640 l 1,5,-1
 256 640 l 1,6,-1
 256 256 l 1,7,-1
 0 256 l 1,0,-1
EndSplineSet
EndChar

StartChar: acute
Encoding: 180 180 117
Width: 384
GlyphClass: 1
Flags: W
LayerCount: 2
Fore
SplineSet
0 384 m 1,0,-1
 0 512 l 1,1,-1
 128 512 l 1,2,-1
 128 384 l 1,3,-1
 0 384 l 1,0,-1
128 512 m 1,4,-1
 128 640 l 1,5,-1
 256 640 l 1,6,-1
 256 512 l 1,7,-1
 128 512 l 1,4,-1
EndSplineSet
EndChar

StartChar: mu
Encoding: 181 181 118
Width: 512
GlyphClass: 1
Flags: W
LayerCount: 2
Fore
SplineSet
0 -128 m 1,0,-1
 0 512 l 1,1,-1
 128 512 l 1,2,-1
 128 128 l 1,3,-1
 256 128 l 1,4,-1
 256 512 l 1,5,-1
 384 512 l 1,6,-1
 384 0 l 1,7,-1
 128 0 l 1,8,-1
 128 -128 l 1,9,-1
 0 -128 l 1,0,-1
EndSplineSet
EndChar

StartChar: paragraph
Encoding: 182 182 119
Width: 512
GlyphClass: 1
Flags: W
LayerCount: 2
Fore
SplineSet
128 0 m 1,0,-1
 128 256 l 1,1,-1
 0 256 l 1,2,-1
 0 640 l 1,3,-1
 384 640 l 1,4,-1
 384 0 l 1,5,-1
 128 0 l 1,0,-1
EndSplineSet
EndChar

StartChar: periodcentered
Encoding: 183 183 120
Width: 256
GlyphClass: 1
Flags: W
LayerCount: 2
Fore
SplineSet
0 256 m 1,0,-1
 0 384 l 1,1,-1
 128 384 l 1,2,-1
 128 256 l 1,3,-1
 0 256 l 1,0,-1
EndSplineSet
EndChar

StartChar: cedilla
Encoding: 184 184 121
Width: 256
GlyphClass: 1
Flags: W
LayerCount: 2
Fore
SplineSet
0 -128 m 1,0,-1
 0 0 l 1,1,-1
 128 0 l 1,2,-1
 128 -128 l 1,3,-1
 0 -128 l 1,0,-1
EndSplineSet
EndChar

StartChar: uni00B9
Encoding: 185 185 122
Width: 384
GlyphClass: 1
Flags: W
LayerCount: 2
Fore
SplineSet
128 256 m 1,0,-1
 128 512 l 1,1,-1
 0 512 l 1,2,-1
 0 640 l 1,3,-1
 256 640 l 1,4,-1
 256 256 l 1,5,-1
 128 256 l 1,0,-1
EndSplineSet
EndChar

StartChar: ordmasculine
Encoding: 186 186 123
Width: 512
GlyphClass: 1
Flags: W
LayerCount: 2
Fore
SplineSet
256 384 m 1,0,-1
 256 512 l 1,1,-1
 128 512 l 1,2,-1
 128 384 l 1,3,-1
 256 384 l 1,0,-1
0 256 m 1,4,-1
 0 640 l 1,5,-1
 384 640 l 1,6,-1
 384 256 l 1,7,-1
 0 256 l 1,4,-1
EndSplineSet
EndChar

StartChar: guillemotright
Encoding: 187 187 124
Width: 768
GlyphClass: 1
Flags: W
LayerCount: 2
Fore
SplineSet
0 128 m 1,0,-1
 0 256 l 1,1,-1
 128 256 l 1,2,-1
 128 128 l 1,3,-1
 0 128 l 1,0,-1
384 128 m 1,4,-1
 384 256 l 1,5,-1
 512 256 l 1,6,-1
 512 128 l 1,7,-1
 384 128 l 1,4,-1
128 256 m 1,8,-1
 128 384 l 1,9,-1
 256 384 l 1,10,-1
 256 256 l 1,11,-1
 128 256 l 1,8,-1
512 256 m 1,12,-1
 512 384 l 1,13,-1
 640 384 l 1,14,-1
 640 256 l 1,15,-1
 512 256 l 1,12,-1
0 384 m 1,16,-1
 0 512 l 1,17,-1
 128 512 l 1,18,-1
 128 384 l 1,19,-1
 0 384 l 1,16,-1
384 384 m 1,20,-1
 384 512 l 1,21,-1
 512 512 l 1,22,-1
 512 384 l 1,23,-1
 384 384 l 1,20,-1
EndSplineSet
EndChar

StartChar: onequarter
Encoding: 188 188 125
Width: 768
GlyphClass: 1
Flags: W
LayerCount: 2
Fore
SplineSet
512 0 m 1,0,-1
 512 128 l 1,1,-1
 256 128 l 1,2,-1
 256 384 l 1,3,-1
 384 384 l 1,4,-1
 384 256 l 1,5,-1
 512 256 l 1,6,-1
 512 384 l 1,7,-1
 640 384 l 1,8,-1
 640 0 l 1,9,-1
 512 0 l 1,0,-1
0 256 m 1,10,-1
 0 640 l 1,11,-1
 128 640 l 1,12,-1
 128 256 l 1,13,-1
 0 256 l 1,10,-1
EndSplineSet
EndChar

StartChar: onehalf
Encoding: 189 189 126
Width: 768
GlyphClass: 1
Flags: W
LayerCount: 2
Fore
SplineSet
384 0 m 1,0,-1
 384 256 l 1,1,-1
 256 256 l 1,2,-1
 256 384 l 1,3,-1
 512 384 l 1,4,-1
 512 128 l 1,5,-1
 640 128 l 1,6,-1
 640 0 l 1,7,-1
 384 0 l 1,0,-1
0 256 m 1,8,-1
 0 640 l 1,9,-1
 128 640 l 1,10,-1
 128 256 l 1,11,-1
 0 256 l 1,8,-1
EndSplineSet
EndChar

StartChar: threequarters
Encoding: 190 190 127
Width: 768
GlyphClass: 1
Flags: W
LayerCount: 2
Fore
SplineSet
512 0 m 1,0,-1
 512 128 l 1,1,-1
 384 128 l 1,2,-1
 384 384 l 1,3,-1
 640 384 l 1,4,-1
 640 0 l 1,5,-1
 512 0 l 1,0,-1
0 256 m 1,6,-1
 0 384 l 1,7,-1
 128 384 l 1,8,-1
 128 512 l 1,9,-1
 0 512 l 1,10,-1
 0 640 l 1,11,-1
 256 640 l 1,12,-1
 256 256 l 1,13,-1
 0 256 l 1,6,-1
EndSplineSet
EndChar

StartChar: questiondown
Encoding: 191 191 128
Width: 512
GlyphClass: 1
Flags: W
LayerCount: 2
Fore
SplineSet
0 -128 m 1,0,-1
 0 256 l 1,1,-1
 256 256 l 1,2,-1
 256 128 l 1,3,-1
 128 128 l 1,4,-1
 128 0 l 1,5,-1
 384 0 l 1,6,-1
 384 -128 l 1,7,-1
 0 -128 l 1,0,-1
128 384 m 1,8,-1
 128 512 l 1,9,-1
 256 512 l 1,10,-1
 256 384 l 1,11,-1
 128 384 l 1,8,-1
EndSplineSet
EndChar

StartChar: Agrave
Encoding: 192 192 129
Width: 512
GlyphClass: 1
Flags: W
LayerCount: 2
Fore
SplineSet
256 256 m 1,0,-1
 256 384 l 1,1,-1
 128 384 l 1,2,-1
 128 256 l 1,3,-1
 256 256 l 1,0,-1
0 0 m 1,4,-1
 0 512 l 1,5,-1
 384 512 l 1,6,-1
 384 0 l 1,7,-1
 256 0 l 1,8,-1
 256 128 l 1,9,-1
 128 128 l 1,10,-1
 128 0 l 1,11,-1
 0 0 l 1,4,-1
0 640 m 1,12,-1
 0 768 l 1,13,-1
 256 768 l 1,14,-1
 256 640 l 1,15,-1
 0 640 l 1,12,-1
EndSplineSet
EndChar

StartChar: Aacute
Encoding: 193 193 130
Width: 512
GlyphClass: 1
Flags: W
LayerCount: 2
Fore
SplineSet
256 256 m 1,0,-1
 256 384 l 1,1,-1
 128 384 l 1,2,-1
 128 256 l 1,3,-1
 256 256 l 1,0,-1
0 0 m 1,4,-1
 0 512 l 1,5,-1
 384 512 l 1,6,-1
 384 0 l 1,7,-1
 256 0 l 1,8,-1
 256 128 l 1,9,-1
 128 128 l 1,10,-1
 128 0 l 1,11,-1
 0 0 l 1,4,-1
128 640 m 1,12,-1
 128 768 l 1,13,-1
 384 768 l 1,14,-1
 384 640 l 1,15,-1
 128 640 l 1,12,-1
EndSplineSet
EndChar

StartChar: Acircumflex
Encoding: 194 194 131
Width: 512
GlyphClass: 1
Flags: W
LayerCount: 2
Fore
SplineSet
256 256 m 1,0,-1
 256 384 l 1,1,-1
 128 384 l 1,2,-1
 128 256 l 1,3,-1
 256 256 l 1,0,-1
0 0 m 1,4,-1
 0 512 l 1,5,-1
 384 512 l 1,6,-1
 384 0 l 1,7,-1
 256 0 l 1,8,-1
 256 128 l 1,9,-1
 128 128 l 1,10,-1
 128 0 l 1,11,-1
 0 0 l 1,4,-1
0 640 m 1,12,-1
 0 768 l 1,13,-1
 384 768 l 1,14,-1
 384 640 l 1,15,-1
 0 640 l 1,12,-1
EndSplineSet
EndChar

StartChar: Atilde
Encoding: 195 195 132
Width: 512
GlyphClass: 1
Flags: W
LayerCount: 2
Fore
SplineSet
256 256 m 1,0,-1
 256 384 l 1,1,-1
 128 384 l 1,2,-1
 128 256 l 1,3,-1
 256 256 l 1,0,-1
0 0 m 1,4,-1
 0 512 l 1,5,-1
 384 512 l 1,6,-1
 384 0 l 1,7,-1
 256 0 l 1,8,-1
 256 128 l 1,9,-1
 128 128 l 1,10,-1
 128 0 l 1,11,-1
 0 0 l 1,4,-1
0 640 m 1,12,-1
 0 768 l 1,13,-1
 384 768 l 1,14,-1
 384 640 l 1,15,-1
 0 640 l 1,12,-1
EndSplineSet
EndChar

StartChar: Adieresis
Encoding: 196 196 133
Width: 512
GlyphClass: 1
Flags: W
LayerCount: 2
Fore
SplineSet
256 256 m 1,0,-1
 256 384 l 1,1,-1
 128 384 l 1,2,-1
 128 256 l 1,3,-1
 256 256 l 1,0,-1
0 0 m 1,4,-1
 0 512 l 1,5,-1
 384 512 l 1,6,-1
 384 0 l 1,7,-1
 256 0 l 1,8,-1
 256 128 l 1,9,-1
 128 128 l 1,10,-1
 128 0 l 1,11,-1
 0 0 l 1,4,-1
0 640 m 1,12,-1
 0 768 l 1,13,-1
 128 768 l 1,14,-1
 128 640 l 1,15,-1
 0 640 l 1,12,-1
256 640 m 1,16,-1
 256 768 l 1,17,-1
 384 768 l 1,18,-1
 384 640 l 1,19,-1
 256 640 l 1,16,-1
EndSplineSet
EndChar

StartChar: Aring
Encoding: 197 197 134
Width: 512
GlyphClass: 1
Flags: W
LayerCount: 2
Fore
SplineSet
256 256 m 1,0,-1
 256 384 l 1,1,-1
 128 384 l 1,2,-1
 128 256 l 1,3,-1
 256 256 l 1,0,-1
0 0 m 1,4,-1
 0 512 l 1,5,-1
 384 512 l 1,6,-1
 384 0 l 1,7,-1
 256 0 l 1,8,-1
 256 128 l 1,9,-1
 128 128 l 1,10,-1
 128 0 l 1,11,-1
 0 0 l 1,4,-1
128 640 m 1,12,-1
 128 768 l 1,13,-1
 256 768 l 1,14,-1
 256 640 l 1,15,-1
 128 640 l 1,12,-1
EndSplineSet
EndChar

StartChar: AE
Encoding: 198 198 135
Width: 768
GlyphClass: 1
Flags: W
LayerCount: 2
Fore
SplineSet
256 384 m 1,0,-1
 256 512 l 1,1,-1
 128 512 l 1,2,-1
 128 384 l 1,3,-1
 256 384 l 1,0,-1
0 0 m 1,4,-1
 0 640 l 1,5,-1
 640 640 l 1,6,-1
 640 512 l 1,7,-1
 384 512 l 1,8,-1
 384 384 l 1,9,-1
 640 384 l 1,10,-1
 640 256 l 1,11,-1
 384 256 l 1,12,-1
 384 128 l 1,13,-1
 640 128 l 1,14,-1
 640 0 l 1,15,-1
 256 0 l 1,16,-1
 256 256 l 1,17,-1
 128 256 l 1,18,-1
 128 0 l 1,19,-1
 0 0 l 1,4,-1
EndSplineSet
EndChar

StartChar: Ccedilla
Encoding: 199 199 136
Width: 512
GlyphClass: 1
Flags: W
LayerCount: 2
Fore
SplineSet
128 -128 m 1,0,-1
 128 0 l 1,1,-1
 0 0 l 1,2,-1
 0 640 l 1,3,-1
 384 640 l 1,4,-1
 384 512 l 1,5,-1
 128 512 l 1,6,-1
 128 128 l 1,7,-1
 384 128 l 1,8,-1
 384 0 l 1,9,-1
 256 0 l 1,10,-1
 256 -128 l 1,11,-1
 128 -128 l 1,0,-1
EndSplineSet
EndChar

StartChar: Egrave
Encoding: 200 200 137
Width: 512
GlyphClass: 1
Flags: W
LayerCount: 2
Fore
SplineSet
0 0 m 1,0,-1
 0 512 l 1,1,-1
 384 512 l 1,2,-1
 384 384 l 1,3,-1
 256 384 l 1,4,-1
 256 256 l 1,5,-1
 128 256 l 1,6,-1
 128 128 l 1,7,-1
 384 128 l 1,8,-1
 384 0 l 1,9,-1
 0 0 l 1,0,-1
0 640 m 1,10,-1
 0 768 l 1,11,-1
 256 768 l 1,12,-1
 256 640 l 1,13,-1
 0 640 l 1,10,-1
EndSplineSet
EndChar

StartChar: Eacute
Encoding: 201 201 138
Width: 512
GlyphClass: 1
Flags: W
LayerCount: 2
Fore
SplineSet
0 0 m 1,0,-1
 0 512 l 1,1,-1
 384 512 l 1,2,-1
 384 384 l 1,3,-1
 256 384 l 1,4,-1
 256 256 l 1,5,-1
 128 256 l 1,6,-1
 128 128 l 1,7,-1
 384 128 l 1,8,-1
 384 0 l 1,9,-1
 0 0 l 1,0,-1
128 640 m 1,10,-1
 128 768 l 1,11,-1
 384 768 l 1,12,-1
 384 640 l 1,13,-1
 128 640 l 1,10,-1
EndSplineSet
EndChar

StartChar: Ecircumflex
Encoding: 202 202 139
Width: 512
GlyphClass: 1
Flags: W
LayerCount: 2
Fore
SplineSet
0 0 m 1,0,-1
 0 512 l 1,1,-1
 384 512 l 1,2,-1
 384 384 l 1,3,-1
 256 384 l 1,4,-1
 256 256 l 1,5,-1
 128 256 l 1,6,-1
 128 128 l 1,7,-1
 384 128 l 1,8,-1
 384 0 l 1,9,-1
 0 0 l 1,0,-1
0 640 m 1,10,-1
 0 768 l 1,11,-1
 384 768 l 1,12,-1
 384 640 l 1,13,-1
 0 640 l 1,10,-1
EndSplineSet
EndChar

StartChar: Edieresis
Encoding: 203 203 140
Width: 512
GlyphClass: 1
Flags: W
LayerCount: 2
Fore
SplineSet
0 0 m 1,0,-1
 0 512 l 1,1,-1
 384 512 l 1,2,-1
 384 384 l 1,3,-1
 256 384 l 1,4,-1
 256 256 l 1,5,-1
 128 256 l 1,6,-1
 128 128 l 1,7,-1
 384 128 l 1,8,-1
 384 0 l 1,9,-1
 0 0 l 1,0,-1
0 640 m 1,10,-1
 0 768 l 1,11,-1
 128 768 l 1,12,-1
 128 640 l 1,13,-1
 0 640 l 1,10,-1
256 640 m 1,14,-1
 256 768 l 1,15,-1
 384 768 l 1,16,-1
 384 640 l 1,17,-1
 256 640 l 1,14,-1
EndSplineSet
EndChar

StartChar: Igrave
Encoding: 204 204 141
Width: 512
GlyphClass: 1
Flags: W
LayerCount: 2
Fore
SplineSet
0 0 m 1,0,-1
 0 128 l 1,1,-1
 128 128 l 1,2,-1
 128 384 l 1,3,-1
 0 384 l 1,4,-1
 0 512 l 1,5,-1
 384 512 l 1,6,-1
 384 384 l 1,7,-1
 256 384 l 1,8,-1
 256 128 l 1,9,-1
 384 128 l 1,10,-1
 384 0 l 1,11,-1
 0 0 l 1,0,-1
0 640 m 1,12,-1
 0 768 l 1,13,-1
 256 768 l 1,14,-1
 256 640 l 1,15,-1
 0 640 l 1,12,-1
EndSplineSet
EndChar

StartChar: Iacute
Encoding: 205 205 142
Width: 512
GlyphClass: 1
Flags: W
LayerCount: 2
Fore
SplineSet
0 0 m 1,0,-1
 0 128 l 1,1,-1
 128 128 l 1,2,-1
 128 384 l 1,3,-1
 0 384 l 1,4,-1
 0 512 l 1,5,-1
 384 512 l 1,6,-1
 384 384 l 1,7,-1
 256 384 l 1,8,-1
 256 128 l 1,9,-1
 384 128 l 1,10,-1
 384 0 l 1,11,-1
 0 0 l 1,0,-1
128 640 m 1,12,-1
 128 768 l 1,13,-1
 384 768 l 1,14,-1
 384 640 l 1,15,-1
 128 640 l 1,12,-1
EndSplineSet
EndChar

StartChar: Icircumflex
Encoding: 206 206 143
Width: 512
GlyphClass: 1
Flags: W
LayerCount: 2
Fore
SplineSet
0 0 m 1,0,-1
 0 128 l 1,1,-1
 128 128 l 1,2,-1
 128 384 l 1,3,-1
 0 384 l 1,4,-1
 0 512 l 1,5,-1
 384 512 l 1,6,-1
 384 384 l 1,7,-1
 256 384 l 1,8,-1
 256 128 l 1,9,-1
 384 128 l 1,10,-1
 384 0 l 1,11,-1
 0 0 l 1,0,-1
0 640 m 1,12,-1
 0 768 l 1,13,-1
 384 768 l 1,14,-1
 384 640 l 1,15,-1
 0 640 l 1,12,-1
EndSplineSet
EndChar

StartChar: Idieresis
Encoding: 207 207 144
Width: 512
GlyphClass: 1
Flags: W
LayerCount: 2
Fore
SplineSet
0 0 m 1,0,-1
 0 128 l 1,1,-1
 128 128 l 1,2,-1
 128 384 l 1,3,-1
 0 384 l 1,4,-1
 0 512 l 1,5,-1
 384 512 l 1,6,-1
 384 384 l 1,7,-1
 256 384 l 1,8,-1
 256 128 l 1,9,-1
 384 128 l 1,10,-1
 384 0 l 1,11,-1
 0 0 l 1,0,-1
0 640 m 1,12,-1
 0 768 l 1,13,-1
 128 768 l 1,14,-1
 128 640 l 1,15,-1
 0 640 l 1,12,-1
256 640 m 1,16,-1
 256 768 l 1,17,-1
 384 768 l 1,18,-1
 384 640 l 1,19,-1
 256 640 l 1,16,-1
EndSplineSet
EndChar

StartChar: Eth
Encoding: 208 208 145
Width: 512
GlyphClass: 1
Flags: W
LayerCount: 2
Fore
SplineSet
0 0 m 1,0,-1
 0 256 l 1,1,-1
 128 256 l 1,2,-1
 128 128 l 1,3,-1
 256 128 l 1,4,-1
 256 0 l 1,5,-1
 0 0 l 1,0,-1
256 128 m 1,6,-1
 256 512 l 1,7,-1
 384 512 l 1,8,-1
 384 128 l 1,9,-1
 256 128 l 1,6,-1
0 384 m 1,10,-1
 0 640 l 1,11,-1
 256 640 l 1,12,-1
 256 512 l 1,13,-1
 128 512 l 1,14,-1
 128 384 l 1,15,-1
 0 384 l 1,10,-1
EndSplineSet
EndChar

StartChar: Ntilde
Encoding: 209 209 146
Width: 512
GlyphClass: 1
Flags: W
LayerCount: 2
Fore
SplineSet
0 0 m 1,0,-1
 0 512 l 1,1,-1
 384 512 l 1,2,-1
 384 0 l 1,3,-1
 256 0 l 1,4,-1
 256 384 l 1,5,-1
 128 384 l 1,6,-1
 128 0 l 1,7,-1
 0 0 l 1,0,-1
0 640 m 1,8,-1
 0 768 l 1,9,-1
 384 768 l 1,10,-1
 384 640 l 1,11,-1
 0 640 l 1,8,-1
EndSplineSet
EndChar

StartChar: Ograve
Encoding: 210 210 147
Width: 512
GlyphClass: 1
Flags: W
LayerCount: 2
Fore
SplineSet
256 128 m 1,0,-1
 256 384 l 1,1,-1
 128 384 l 1,2,-1
 128 128 l 1,3,-1
 256 128 l 1,0,-1
0 0 m 1,4,-1
 0 512 l 1,5,-1
 384 512 l 1,6,-1
 384 0 l 1,7,-1
 0 0 l 1,4,-1
0 640 m 1,8,-1
 0 768 l 1,9,-1
 256 768 l 1,10,-1
 256 640 l 1,11,-1
 0 640 l 1,8,-1
EndSplineSet
EndChar

StartChar: Oacute
Encoding: 211 211 148
Width: 512
GlyphClass: 1
Flags: W
LayerCount: 2
Fore
SplineSet
256 128 m 1,0,-1
 256 384 l 1,1,-1
 128 384 l 1,2,-1
 128 128 l 1,3,-1
 256 128 l 1,0,-1
0 0 m 1,4,-1
 0 512 l 1,5,-1
 384 512 l 1,6,-1
 384 0 l 1,7,-1
 0 0 l 1,4,-1
128 640 m 1,8,-1
 128 768 l 1,9,-1
 384 768 l 1,10,-1
 384 640 l 1,11,-1
 128 640 l 1,8,-1
EndSplineSet
EndChar

StartChar: Ocircumflex
Encoding: 212 212 149
Width: 512
GlyphClass: 1
Flags: W
LayerCount: 2
Fore
SplineSet
256 128 m 1,0,-1
 256 384 l 1,1,-1
 128 384 l 1,2,-1
 128 128 l 1,3,-1
 256 128 l 1,0,-1
0 0 m 1,4,-1
 0 512 l 1,5,-1
 384 512 l 1,6,-1
 384 0 l 1,7,-1
 0 0 l 1,4,-1
0 640 m 1,8,-1
 0 768 l 1,9,-1
 384 768 l 1,10,-1
 384 640 l 1,11,-1
 0 640 l 1,8,-1
EndSplineSet
EndChar

StartChar: Otilde
Encoding: 213 213 150
Width: 512
GlyphClass: 1
Flags: W
LayerCount: 2
Fore
SplineSet
256 128 m 1,0,-1
 256 384 l 1,1,-1
 128 384 l 1,2,-1
 128 128 l 1,3,-1
 256 128 l 1,0,-1
0 0 m 1,4,-1
 0 512 l 1,5,-1
 384 512 l 1,6,-1
 384 0 l 1,7,-1
 0 0 l 1,4,-1
0 640 m 1,8,-1
 0 768 l 1,9,-1
 384 768 l 1,10,-1
 384 640 l 1,11,-1
 0 640 l 1,8,-1
EndSplineSet
EndChar

StartChar: Odieresis
Encoding: 214 214 151
Width: 512
GlyphClass: 1
Flags: W
LayerCount: 2
Fore
SplineSet
256 128 m 1,0,-1
 256 384 l 1,1,-1
 128 384 l 1,2,-1
 128 128 l 1,3,-1
 256 128 l 1,0,-1
0 0 m 1,4,-1
 0 512 l 1,5,-1
 384 512 l 1,6,-1
 384 0 l 1,7,-1
 0 0 l 1,4,-1
0 640 m 1,8,-1
 0 768 l 1,9,-1
 128 768 l 1,10,-1
 128 640 l 1,11,-1
 0 640 l 1,8,-1
256 640 m 1,12,-1
 256 768 l 1,13,-1
 384 768 l 1,14,-1
 384 640 l 1,15,-1
 256 640 l 1,12,-1
EndSplineSet
EndChar

StartChar: multiply
Encoding: 215 215 152
Width: 512
GlyphClass: 1
Flags: W
LayerCount: 2
Fore
SplineSet
0 128 m 1,0,-1
 0 256 l 1,1,-1
 128 256 l 1,2,-1
 128 128 l 1,3,-1
 0 128 l 1,0,-1
256 128 m 1,4,-1
 256 256 l 1,5,-1
 384 256 l 1,6,-1
 384 128 l 1,7,-1
 256 128 l 1,4,-1
128 256 m 1,8,-1
 128 384 l 1,9,-1
 256 384 l 1,10,-1
 256 256 l 1,11,-1
 128 256 l 1,8,-1
0 384 m 1,12,-1
 0 512 l 1,13,-1
 128 512 l 1,14,-1
 128 384 l 1,15,-1
 0 384 l 1,12,-1
256 384 m 1,16,-1
 256 512 l 1,17,-1
 384 512 l 1,18,-1
 384 384 l 1,19,-1
 256 384 l 1,16,-1
EndSplineSet
EndChar

StartChar: Oslash
Encoding: 216 216 153
Width: 640
GlyphClass: 1
Flags: W
LayerCount: 2
Fore
SplineSet
384 128 m 1,0,-1
 384 384 l 1,1,-1
 256 384 l 1,2,-1
 256 512 l 1,3,-1
 128 512 l 1,4,-1
 128 384 l 1,5,-1
 256 384 l 1,6,-1
 256 256 l 1,7,-1
 128 256 l 1,8,-1
 128 128 l 1,9,-1
 384 128 l 1,0,-1
0 0 m 1,10,-1
 0 640 l 1,11,-1
 512 640 l 1,12,-1
 512 0 l 1,13,-1
 0 0 l 1,10,-1
EndSplineSet
EndChar

StartChar: Ugrave
Encoding: 217 217 154
Width: 512
GlyphClass: 1
Flags: W
LayerCount: 2
Fore
SplineSet
0 0 m 1,0,-1
 0 512 l 1,1,-1
 128 512 l 1,2,-1
 128 128 l 1,3,-1
 256 128 l 1,4,-1
 256 512 l 1,5,-1
 384 512 l 1,6,-1
 384 0 l 1,7,-1
 0 0 l 1,0,-1
0 640 m 1,8,-1
 0 768 l 1,9,-1
 256 768 l 1,10,-1
 256 640 l 1,11,-1
 0 640 l 1,8,-1
EndSplineSet
EndChar

StartChar: Uacute
Encoding: 218 218 155
Width: 512
GlyphClass: 1
Flags: W
LayerCount: 2
Fore
SplineSet
0 0 m 1,0,-1
 0 512 l 1,1,-1
 128 512 l 1,2,-1
 128 128 l 1,3,-1
 256 128 l 1,4,-1
 256 512 l 1,5,-1
 384 512 l 1,6,-1
 384 0 l 1,7,-1
 0 0 l 1,0,-1
128 640 m 1,8,-1
 128 768 l 1,9,-1
 384 768 l 1,10,-1
 384 640 l 1,11,-1
 128 640 l 1,8,-1
EndSplineSet
EndChar

StartChar: Ucircumflex
Encoding: 219 219 156
Width: 512
GlyphClass: 1
Flags: W
LayerCount: 2
Fore
SplineSet
0 0 m 1,0,-1
 0 512 l 1,1,-1
 128 512 l 1,2,-1
 128 128 l 1,3,-1
 256 128 l 1,4,-1
 256 512 l 1,5,-1
 384 512 l 1,6,-1
 384 0 l 1,7,-1
 0 0 l 1,0,-1
0 640 m 1,8,-1
 0 768 l 1,9,-1
 384 768 l 1,10,-1
 384 640 l 1,11,-1
 0 640 l 1,8,-1
EndSplineSet
EndChar

StartChar: Udieresis
Encoding: 220 220 157
Width: 512
GlyphClass: 1
Flags: W
LayerCount: 2
Fore
SplineSet
0 0 m 1,0,-1
 0 512 l 1,1,-1
 128 512 l 1,2,-1
 128 128 l 1,3,-1
 256 128 l 1,4,-1
 256 512 l 1,5,-1
 384 512 l 1,6,-1
 384 0 l 1,7,-1
 0 0 l 1,0,-1
0 640 m 1,8,-1
 0 768 l 1,9,-1
 128 768 l 1,10,-1
 128 640 l 1,11,-1
 0 640 l 1,8,-1
256 640 m 1,12,-1
 256 768 l 1,13,-1
 384 768 l 1,14,-1
 384 640 l 1,15,-1
 256 640 l 1,12,-1
EndSplineSet
EndChar

StartChar: Yacute
Encoding: 221 221 158
Width: 512
GlyphClass: 1
Flags: W
LayerCount: 2
Fore
SplineSet
128 0 m 1,0,-1
 128 256 l 1,1,-1
 0 256 l 1,2,-1
 0 512 l 1,3,-1
 128 512 l 1,4,-1
 128 384 l 1,5,-1
 256 384 l 1,6,-1
 256 512 l 1,7,-1
 384 512 l 1,8,-1
 384 256 l 1,9,-1
 256 256 l 1,10,-1
 256 0 l 1,11,-1
 128 0 l 1,0,-1
128 640 m 1,12,-1
 128 768 l 1,13,-1
 384 768 l 1,14,-1
 384 640 l 1,15,-1
 128 640 l 1,12,-1
EndSplineSet
EndChar

StartChar: Thorn
Encoding: 222 222 159
Width: 512
GlyphClass: 1
Flags: W
LayerCount: 2
Fore
SplineSet
256 256 m 1,0,-1
 256 384 l 1,1,-1
 128 384 l 1,2,-1
 128 256 l 1,3,-1
 256 256 l 1,0,-1
0 0 m 1,4,-1
 0 640 l 1,5,-1
 128 640 l 1,6,-1
 128 512 l 1,7,-1
 384 512 l 1,8,-1
 384 128 l 1,9,-1
 128 128 l 1,10,-1
 128 0 l 1,11,-1
 0 0 l 1,4,-1
EndSplineSet
EndChar

StartChar: germandbls
Encoding: 223 223 160
Width: 512
GlyphClass: 1
Flags: W
LayerCount: 2
Fore
SplineSet
256 128 m 1,0,-1
 256 256 l 1,1,-1
 384 256 l 1,2,-1
 384 128 l 1,3,-1
 256 128 l 1,0,-1
256 384 m 1,4,-1
 256 512 l 1,5,-1
 384 512 l 1,6,-1
 384 384 l 1,7,-1
 256 384 l 1,4,-1
0 -128 m 1,8,-1
 0 640 l 1,9,-1
 256 640 l 1,10,-1
 256 512 l 1,11,-1
 128 512 l 1,12,-1
 128 384 l 1,13,-1
 256 384 l 1,14,-1
 256 256 l 1,15,-1
 128 256 l 1,16,-1
 128 128 l 1,17,-1
 256 128 l 1,18,-1
 256 0 l 1,19,-1
 128 0 l 1,20,-1
 128 -128 l 1,21,-1
 0 -128 l 1,8,-1
EndSplineSet
EndChar

StartChar: agrave
Encoding: 224 224 161
Width: 512
GlyphClass: 1
Flags: W
LayerCount: 2
Fore
SplineSet
0 128 m 1,0,-1
 0 256 l 1,1,-1
 128 256 l 1,2,-1
 128 128 l 1,3,-1
 0 128 l 1,0,-1
128 0 m 1,4,-1
 128 128 l 1,5,-1
 256 128 l 1,6,-1
 256 256 l 1,7,-1
 128 256 l 1,8,-1
 128 384 l 1,9,-1
 384 384 l 1,10,-1
 384 0 l 1,11,-1
 128 0 l 1,4,-1
0 512 m 1,12,-1
 0 640 l 1,13,-1
 256 640 l 1,14,-1
 256 512 l 1,15,-1
 0 512 l 1,12,-1
EndSplineSet
EndChar

StartChar: aacute
Encoding: 225 225 162
Width: 512
GlyphClass: 1
Flags: W
LayerCount: 2
Fore
SplineSet
0 128 m 1,0,-1
 0 256 l 1,1,-1
 128 256 l 1,2,-1
 128 128 l 1,3,-1
 0 128 l 1,0,-1
128 0 m 1,4,-1
 128 128 l 1,5,-1
 256 128 l 1,6,-1
 256 256 l 1,7,-1
 128 256 l 1,8,-1
 128 384 l 1,9,-1
 384 384 l 1,10,-1
 384 0 l 1,11,-1
 128 0 l 1,4,-1
128 512 m 1,12,-1
 128 640 l 1,13,-1
 384 640 l 1,14,-1
 384 512 l 1,15,-1
 128 512 l 1,12,-1
EndSplineSet
EndChar

StartChar: acircumflex
Encoding: 226 226 163
Width: 512
GlyphClass: 1
Flags: W
LayerCount: 2
Fore
SplineSet
0 128 m 1,0,-1
 0 256 l 1,1,-1
 128 256 l 1,2,-1
 128 128 l 1,3,-1
 0 128 l 1,0,-1
128 0 m 1,4,-1
 128 128 l 1,5,-1
 256 128 l 1,6,-1
 256 256 l 1,7,-1
 128 256 l 1,8,-1
 128 384 l 1,9,-1
 384 384 l 1,10,-1
 384 0 l 1,11,-1
 128 0 l 1,4,-1
0 512 m 1,12,-1
 0 640 l 1,13,-1
 384 640 l 1,14,-1
 384 512 l 1,15,-1
 0 512 l 1,12,-1
EndSplineSet
EndChar

StartChar: atilde
Encoding: 227 227 164
Width: 512
GlyphClass: 1
Flags: W
LayerCount: 2
Fore
SplineSet
0 128 m 1,0,-1
 0 256 l 1,1,-1
 128 256 l 1,2,-1
 128 128 l 1,3,-1
 0 128 l 1,0,-1
128 0 m 1,4,-1
 128 128 l 1,5,-1
 256 128 l 1,6,-1
 256 256 l 1,7,-1
 128 256 l 1,8,-1
 128 384 l 1,9,-1
 384 384 l 1,10,-1
 384 0 l 1,11,-1
 128 0 l 1,4,-1
0 512 m 1,12,-1
 0 640 l 1,13,-1
 384 640 l 1,14,-1
 384 512 l 1,15,-1
 0 512 l 1,12,-1
EndSplineSet
EndChar

StartChar: adieresis
Encoding: 228 228 165
Width: 512
GlyphClass: 1
Flags: W
LayerCount: 2
Fore
SplineSet
0 128 m 1,0,-1
 0 256 l 1,1,-1
 128 256 l 1,2,-1
 128 128 l 1,3,-1
 0 128 l 1,0,-1
128 0 m 1,4,-1
 128 128 l 1,5,-1
 256 128 l 1,6,-1
 256 256 l 1,7,-1
 128 256 l 1,8,-1
 128 384 l 1,9,-1
 384 384 l 1,10,-1
 384 0 l 1,11,-1
 128 0 l 1,4,-1
0 512 m 1,12,-1
 0 640 l 1,13,-1
 128 640 l 1,14,-1
 128 512 l 1,15,-1
 0 512 l 1,12,-1
256 512 m 1,16,-1
 256 640 l 1,17,-1
 384 640 l 1,18,-1
 384 512 l 1,19,-1
 256 512 l 1,16,-1
EndSplineSet
EndChar

StartChar: aring
Encoding: 229 229 166
Width: 512
GlyphClass: 1
Flags: W
LayerCount: 2
Fore
SplineSet
0 128 m 1,0,-1
 0 256 l 1,1,-1
 128 256 l 1,2,-1
 128 128 l 1,3,-1
 0 128 l 1,0,-1
128 0 m 1,4,-1
 128 128 l 1,5,-1
 256 128 l 1,6,-1
 256 256 l 1,7,-1
 128 256 l 1,8,-1
 128 384 l 1,9,-1
 384 384 l 1,10,-1
 384 0 l 1,11,-1
 128 0 l 1,4,-1
128 512 m 1,12,-1
 128 640 l 1,13,-1
 256 640 l 1,14,-1
 256 512 l 1,15,-1
 128 512 l 1,12,-1
EndSplineSet
EndChar

StartChar: ae
Encoding: 230 230 167
Width: 768
GlyphClass: 1
Flags: W
LayerCount: 2
Fore
SplineSet
0 128 m 1,0,-1
 0 384 l 1,1,-1
 128 384 l 1,2,-1
 128 128 l 1,3,-1
 0 128 l 1,0,-1
512 256 m 1,4,-1
 512 384 l 1,5,-1
 640 384 l 1,6,-1
 640 256 l 1,7,-1
 512 256 l 1,4,-1
128 0 m 1,8,-1
 128 128 l 1,9,-1
 256 128 l 1,10,-1
 256 384 l 1,11,-1
 128 384 l 1,12,-1
 128 512 l 1,13,-1
 512 512 l 1,14,-1
 512 384 l 1,15,-1
 384 384 l 1,16,-1
 384 256 l 1,17,-1
 512 256 l 1,18,-1
 512 128 l 1,19,-1
 640 128 l 1,20,-1
 640 0 l 1,21,-1
 128 0 l 1,8,-1
EndSplineSet
EndChar

StartChar: ccedilla
Encoding: 231 231 168
Width: 512
GlyphClass: 1
Flags: W
LayerCount: 2
Fore
SplineSet
128 -128 m 1,0,-1
 128 0 l 1,1,-1
 0 0 l 1,2,-1
 0 512 l 1,3,-1
 384 512 l 1,4,-1
 384 384 l 1,5,-1
 128 384 l 1,6,-1
 128 128 l 1,7,-1
 384 128 l 1,8,-1
 384 0 l 1,9,-1
 256 0 l 1,10,-1
 256 -128 l 1,11,-1
 128 -128 l 1,0,-1
EndSplineSet
EndChar

StartChar: egrave
Encoding: 232 232 169
Width: 512
GlyphClass: 1
Flags: W
LayerCount: 2
Fore
SplineSet
128 0 m 1,0,-1
 128 128 l 1,1,-1
 384 128 l 1,2,-1
 384 0 l 1,3,-1
 128 0 l 1,0,-1
0 128 m 1,4,-1
 0 256 l 1,5,-1
 128 256 l 1,6,-1
 128 128 l 1,7,-1
 0 128 l 1,4,-1
128 256 m 1,8,-1
 128 384 l 1,9,-1
 384 384 l 1,10,-1
 384 256 l 1,11,-1
 128 256 l 1,8,-1
0 512 m 1,12,-1
 0 640 l 1,13,-1
 256 640 l 1,14,-1
 256 512 l 1,15,-1
 0 512 l 1,12,-1
EndSplineSet
EndChar

StartChar: eacute
Encoding: 233 233 170
Width: 512
GlyphClass: 1
Flags: W
LayerCount: 2
Fore
SplineSet
128 0 m 1,0,-1
 128 128 l 1,1,-1
 384 128 l 1,2,-1
 384 0 l 1,3,-1
 128 0 l 1,0,-1
0 128 m 1,4,-1
 0 256 l 1,5,-1
 128 256 l 1,6,-1
 128 128 l 1,7,-1
 0 128 l 1,4,-1
128 256 m 1,8,-1
 128 384 l 1,9,-1
 384 384 l 1,10,-1
 384 256 l 1,11,-1
 128 256 l 1,8,-1
128 512 m 1,12,-1
 128 640 l 1,13,-1
 384 640 l 1,14,-1
 384 512 l 1,15,-1
 128 512 l 1,12,-1
EndSplineSet
EndChar

StartChar: ecircumflex
Encoding: 234 234 171
Width: 512
GlyphClass: 1
Flags: W
LayerCount: 2
Fore
SplineSet
128 0 m 1,0,-1
 128 128 l 1,1,-1
 384 128 l 1,2,-1
 384 0 l 1,3,-1
 128 0 l 1,0,-1
0 128 m 1,4,-1
 0 256 l 1,5,-1
 128 256 l 1,6,-1
 128 128 l 1,7,-1
 0 128 l 1,4,-1
128 256 m 1,8,-1
 128 384 l 1,9,-1
 384 384 l 1,10,-1
 384 256 l 1,11,-1
 128 256 l 1,8,-1
0 512 m 1,12,-1
 0 640 l 1,13,-1
 384 640 l 1,14,-1
 384 512 l 1,15,-1
 0 512 l 1,12,-1
EndSplineSet
EndChar

StartChar: edieresis
Encoding: 235 235 172
Width: 512
GlyphClass: 1
Flags: W
LayerCount: 2
Fore
SplineSet
128 0 m 1,0,-1
 128 128 l 1,1,-1
 384 128 l 1,2,-1
 384 0 l 1,3,-1
 128 0 l 1,0,-1
0 128 m 1,4,-1
 0 256 l 1,5,-1
 128 256 l 1,6,-1
 128 128 l 1,7,-1
 0 128 l 1,4,-1
128 256 m 1,8,-1
 128 384 l 1,9,-1
 384 384 l 1,10,-1
 384 256 l 1,11,-1
 128 256 l 1,8,-1
0 512 m 1,12,-1
 0 640 l 1,13,-1
 128 640 l 1,14,-1
 128 512 l 1,15,-1
 0 512 l 1,12,-1
256 512 m 1,16,-1
 256 640 l 1,17,-1
 384 640 l 1,18,-1
 384 512 l 1,19,-1
 256 512 l 1,16,-1
EndSplineSet
EndChar

StartChar: igrave
Encoding: 236 236 173
Width: 384
GlyphClass: 1
Flags: W
LayerCount: 2
Fore
SplineSet
128 0 m 1,0,-1
 128 384 l 1,1,-1
 256 384 l 1,2,-1
 256 0 l 1,3,-1
 128 0 l 1,0,-1
0 512 m 1,4,-1
 0 640 l 1,5,-1
 256 640 l 1,6,-1
 256 512 l 1,7,-1
 0 512 l 1,4,-1
EndSplineSet
EndChar

StartChar: iacute
Encoding: 237 237 174
Width: 512
GlyphClass: 1
Flags: W
LayerCount: 2
Fore
SplineSet
128 0 m 1,0,-1
 128 384 l 1,1,-1
 256 384 l 1,2,-1
 256 0 l 1,3,-1
 128 0 l 1,0,-1
128 512 m 1,4,-1
 128 640 l 1,5,-1
 384 640 l 1,6,-1
 384 512 l 1,7,-1
 128 512 l 1,4,-1
EndSplineSet
EndChar

StartChar: icircumflex
Encoding: 238 238 175
Width: 512
GlyphClass: 1
Flags: W
LayerCount: 2
Fore
SplineSet
128 0 m 1,0,-1
 128 256 l 1,1,-1
 256 256 l 1,2,-1
 256 0 l 1,3,-1
 128 0 l 1,0,-1
0 384 m 1,4,-1
 0 512 l 1,5,-1
 128 512 l 1,6,-1
 128 384 l 1,7,-1
 0 384 l 1,4,-1
256 384 m 1,8,-1
 256 512 l 1,9,-1
 384 512 l 1,10,-1
 384 384 l 1,11,-1
 256 384 l 1,8,-1
128 512 m 1,12,-1
 128 640 l 1,13,-1
 256 640 l 1,14,-1
 256 512 l 1,15,-1
 128 512 l 1,12,-1
EndSplineSet
EndChar

StartChar: idieresis
Encoding: 239 239 176
Width: 512
GlyphClass: 1
Flags: W
LayerCount: 2
Fore
SplineSet
128 0 m 1,0,-1
 128 384 l 1,1,-1
 256 384 l 1,2,-1
 256 0 l 1,3,-1
 128 0 l 1,0,-1
0 512 m 1,4,-1
 0 640 l 1,5,-1
 128 640 l 1,6,-1
 128 512 l 1,7,-1
 0 512 l 1,4,-1
256 512 m 1,8,-1
 256 640 l 1,9,-1
 384 640 l 1,10,-1
 384 512 l 1,11,-1
 256 512 l 1,8,-1
EndSplineSet
EndChar

StartChar: eth
Encoding: 240 240 177
Width: 512
GlyphClass: 1
Flags: W
LayerCount: 2
Fore
SplineSet
0 128 m 1,0,-1
 0 256 l 1,1,-1
 128 256 l 1,2,-1
 128 128 l 1,3,-1
 0 128 l 1,0,-1
128 0 m 1,4,-1
 128 128 l 1,5,-1
 256 128 l 1,6,-1
 256 256 l 1,7,-1
 128 256 l 1,8,-1
 128 384 l 1,9,-1
 256 384 l 1,10,-1
 256 512 l 1,11,-1
 384 512 l 1,12,-1
 384 0 l 1,13,-1
 128 0 l 1,4,-1
0 512 m 1,14,-1
 0 640 l 1,15,-1
 256 640 l 1,16,-1
 256 512 l 1,17,-1
 0 512 l 1,14,-1
EndSplineSet
EndChar

StartChar: ntilde
Encoding: 241 241 178
Width: 512
GlyphClass: 1
Flags: W
LayerCount: 2
Fore
SplineSet
0 0 m 1,0,-1
 0 384 l 1,1,-1
 384 384 l 1,2,-1
 384 0 l 1,3,-1
 256 0 l 1,4,-1
 256 256 l 1,5,-1
 128 256 l 1,6,-1
 128 0 l 1,7,-1
 0 0 l 1,0,-1
0 512 m 1,8,-1
 0 640 l 1,9,-1
 384 640 l 1,10,-1
 384 512 l 1,11,-1
 0 512 l 1,8,-1
EndSplineSet
EndChar

StartChar: ograve
Encoding: 242 242 179
Width: 512
GlyphClass: 1
Flags: W
LayerCount: 2
Fore
SplineSet
256 128 m 1,0,-1
 256 256 l 1,1,-1
 128 256 l 1,2,-1
 128 128 l 1,3,-1
 256 128 l 1,0,-1
0 0 m 1,4,-1
 0 384 l 1,5,-1
 384 384 l 1,6,-1
 384 0 l 1,7,-1
 0 0 l 1,4,-1
0 512 m 1,8,-1
 0 640 l 1,9,-1
 256 640 l 1,10,-1
 256 512 l 1,11,-1
 0 512 l 1,8,-1
EndSplineSet
EndChar

StartChar: oacute
Encoding: 243 243 180
Width: 512
GlyphClass: 1
Flags: W
LayerCount: 2
Fore
SplineSet
256 128 m 1,0,-1
 256 256 l 1,1,-1
 128 256 l 1,2,-1
 128 128 l 1,3,-1
 256 128 l 1,0,-1
0 0 m 1,4,-1
 0 384 l 1,5,-1
 384 384 l 1,6,-1
 384 0 l 1,7,-1
 0 0 l 1,4,-1
128 512 m 1,8,-1
 128 640 l 1,9,-1
 384 640 l 1,10,-1
 384 512 l 1,11,-1
 128 512 l 1,8,-1
EndSplineSet
EndChar

StartChar: ocircumflex
Encoding: 244 244 181
Width: 512
GlyphClass: 1
Flags: W
LayerCount: 2
Fore
SplineSet
256 128 m 1,0,-1
 256 256 l 1,1,-1
 128 256 l 1,2,-1
 128 128 l 1,3,-1
 256 128 l 1,0,-1
0 0 m 1,4,-1
 0 384 l 1,5,-1
 384 384 l 1,6,-1
 384 0 l 1,7,-1
 0 0 l 1,4,-1
0 512 m 1,8,-1
 0 640 l 1,9,-1
 384 640 l 1,10,-1
 384 512 l 1,11,-1
 0 512 l 1,8,-1
EndSplineSet
EndChar

StartChar: otilde
Encoding: 245 245 182
Width: 512
GlyphClass: 1
Flags: W
LayerCount: 2
Fore
SplineSet
256 128 m 1,0,-1
 256 256 l 1,1,-1
 128 256 l 1,2,-1
 128 128 l 1,3,-1
 256 128 l 1,0,-1
0 0 m 1,4,-1
 0 384 l 1,5,-1
 384 384 l 1,6,-1
 384 0 l 1,7,-1
 0 0 l 1,4,-1
0 512 m 1,8,-1
 0 640 l 1,9,-1
 384 640 l 1,10,-1
 384 512 l 1,11,-1
 0 512 l 1,8,-1
EndSplineSet
EndChar

StartChar: odieresis
Encoding: 246 246 183
Width: 512
GlyphClass: 1
Flags: W
LayerCount: 2
Fore
SplineSet
256 128 m 1,0,-1
 256 256 l 1,1,-1
 128 256 l 1,2,-1
 128 128 l 1,3,-1
 256 128 l 1,0,-1
0 0 m 1,4,-1
 0 384 l 1,5,-1
 384 384 l 1,6,-1
 384 0 l 1,7,-1
 0 0 l 1,4,-1
0 512 m 1,8,-1
 0 640 l 1,9,-1
 128 640 l 1,10,-1
 128 512 l 1,11,-1
 0 512 l 1,8,-1
256 512 m 1,12,-1
 256 640 l 1,13,-1
 384 640 l 1,14,-1
 384 512 l 1,15,-1
 256 512 l 1,12,-1
EndSplineSet
EndChar

StartChar: divide
Encoding: 247 247 184
Width: 512
GlyphClass: 1
Flags: W
LayerCount: 2
Fore
SplineSet
128 0 m 1,0,-1
 128 128 l 1,1,-1
 256 128 l 1,2,-1
 256 0 l 1,3,-1
 128 0 l 1,0,-1
0 256 m 1,4,-1
 0 384 l 1,5,-1
 384 384 l 1,6,-1
 384 256 l 1,7,-1
 0 256 l 1,4,-1
128 512 m 1,8,-1
 128 640 l 1,9,-1
 256 640 l 1,10,-1
 256 512 l 1,11,-1
 128 512 l 1,8,-1
EndSplineSet
EndChar

StartChar: oslash
Encoding: 248 248 185
Width: 640
GlyphClass: 1
Flags: W
LayerCount: 2
Fore
SplineSet
128 0 m 1,0,-1
 128 128 l 1,1,-1
 0 128 l 1,2,-1
 0 384 l 1,3,-1
 128 384 l 1,4,-1
 128 256 l 1,5,-1
 256 256 l 1,6,-1
 256 128 l 1,7,-1
 384 128 l 1,8,-1
 384 0 l 1,9,-1
 128 0 l 1,0,-1
384 128 m 1,10,-1
 384 256 l 1,11,-1
 256 256 l 1,12,-1
 256 384 l 1,13,-1
 128 384 l 1,14,-1
 128 512 l 1,15,-1
 384 512 l 1,16,-1
 384 384 l 1,17,-1
 512 384 l 1,18,-1
 512 128 l 1,19,-1
 384 128 l 1,10,-1
EndSplineSet
EndChar

StartChar: ugrave
Encoding: 249 249 186
Width: 512
GlyphClass: 1
Flags: W
LayerCount: 2
Fore
SplineSet
0 0 m 1,0,-1
 0 384 l 1,1,-1
 128 384 l 1,2,-1
 128 128 l 1,3,-1
 256 128 l 1,4,-1
 256 384 l 1,5,-1
 384 384 l 1,6,-1
 384 0 l 1,7,-1
 0 0 l 1,0,-1
0 512 m 1,8,-1
 0 640 l 1,9,-1
 256 640 l 1,10,-1
 256 512 l 1,11,-1
 0 512 l 1,8,-1
EndSplineSet
EndChar

StartChar: uacute
Encoding: 250 250 187
Width: 512
GlyphClass: 1
Flags: W
LayerCount: 2
Fore
SplineSet
0 0 m 1,0,-1
 0 384 l 1,1,-1
 128 384 l 1,2,-1
 128 128 l 1,3,-1
 256 128 l 1,4,-1
 256 384 l 1,5,-1
 384 384 l 1,6,-1
 384 0 l 1,7,-1
 0 0 l 1,0,-1
128 512 m 1,8,-1
 128 640 l 1,9,-1
 384 640 l 1,10,-1
 384 512 l 1,11,-1
 128 512 l 1,8,-1
EndSplineSet
EndChar

StartChar: ucircumflex
Encoding: 251 251 188
Width: 512
GlyphClass: 1
Flags: W
LayerCount: 2
Fore
SplineSet
0 0 m 1,0,-1
 0 384 l 1,1,-1
 128 384 l 1,2,-1
 128 128 l 1,3,-1
 256 128 l 1,4,-1
 256 384 l 1,5,-1
 384 384 l 1,6,-1
 384 0 l 1,7,-1
 0 0 l 1,0,-1
0 512 m 1,8,-1
 0 640 l 1,9,-1
 384 640 l 1,10,-1
 384 512 l 1,11,-1
 0 512 l 1,8,-1
EndSplineSet
EndChar

StartChar: udieresis
Encoding: 252 252 189
Width: 512
GlyphClass: 1
Flags: W
LayerCount: 2
Fore
SplineSet
0 0 m 1,0,-1
 0 384 l 1,1,-1
 128 384 l 1,2,-1
 128 128 l 1,3,-1
 256 128 l 1,4,-1
 256 384 l 1,5,-1
 384 384 l 1,6,-1
 384 0 l 1,7,-1
 0 0 l 1,0,-1
0 512 m 1,8,-1
 0 640 l 1,9,-1
 128 640 l 1,10,-1
 128 512 l 1,11,-1
 0 512 l 1,8,-1
256 512 m 1,12,-1
 256 640 l 1,13,-1
 384 640 l 1,14,-1
 384 512 l 1,15,-1
 256 512 l 1,12,-1
EndSplineSet
EndChar

StartChar: yacute
Encoding: 253 253 190
Width: 512
GlyphClass: 1
Flags: W
LayerCount: 2
Fore
SplineSet
0 -128 m 1,0,-1
 0 0 l 1,1,-1
 256 0 l 1,2,-1
 256 -128 l 1,3,-1
 0 -128 l 1,0,-1
256 0 m 1,4,-1
 256 128 l 1,5,-1
 0 128 l 1,6,-1
 0 384 l 1,7,-1
 128 384 l 1,8,-1
 128 256 l 1,9,-1
 256 256 l 1,10,-1
 256 384 l 1,11,-1
 384 384 l 1,12,-1
 384 0 l 1,13,-1
 256 0 l 1,4,-1
128 512 m 1,14,-1
 128 640 l 1,15,-1
 384 640 l 1,16,-1
 384 512 l 1,17,-1
 128 512 l 1,14,-1
EndSplineSet
EndChar

StartChar: thorn
Encoding: 254 254 191
Width: 512
GlyphClass: 1
Flags: W
LayerCount: 2
Fore
SplineSet
256 128 m 1,0,-1
 256 256 l 1,1,-1
 128 256 l 1,2,-1
 128 128 l 1,3,-1
 256 128 l 1,0,-1
0 -128 m 1,4,-1
 0 512 l 1,5,-1
 128 512 l 1,6,-1
 128 384 l 1,7,-1
 384 384 l 1,8,-1
 384 0 l 1,9,-1
 128 0 l 1,10,-1
 128 -128 l 1,11,-1
 0 -128 l 1,4,-1
EndSplineSet
EndChar

StartChar: ydieresis
Encoding: 255 255 192
Width: 512
GlyphClass: 1
Flags: W
LayerCount: 2
Fore
SplineSet
0 -128 m 1,0,-1
 0 0 l 1,1,-1
 256 0 l 1,2,-1
 256 -128 l 1,3,-1
 0 -128 l 1,0,-1
256 0 m 1,4,-1
 256 128 l 1,5,-1
 0 128 l 1,6,-1
 0 384 l 1,7,-1
 128 384 l 1,8,-1
 128 256 l 1,9,-1
 256 256 l 1,10,-1
 256 384 l 1,11,-1
 384 384 l 1,12,-1
 384 0 l 1,13,-1
 256 0 l 1,4,-1
0 512 m 1,14,-1
 0 640 l 1,15,-1
 128 640 l 1,16,-1
 128 512 l 1,17,-1
 0 512 l 1,14,-1
256 512 m 1,18,-1
 256 640 l 1,19,-1
 384 640 l 1,20,-1
 384 512 l 1,21,-1
 256 512 l 1,18,-1
EndSplineSet
EndChar

StartChar: Aogonek
Encoding: 260 260 193
Width: 512
GlyphClass: 1
Flags: W
LayerCount: 2
Fore
SplineSet
128 -128 m 1,0,-1
 128 0 l 1,1,-1
 384 0 l 1,2,-1
 384 -128 l 1,3,-1
 128 -128 l 1,0,-1
256 384 m 1,4,-1
 256 512 l 1,5,-1
 128 512 l 1,6,-1
 128 384 l 1,7,-1
 256 384 l 1,4,-1
0 128 m 1,8,-1
 0 640 l 1,9,-1
 384 640 l 1,10,-1
 384 128 l 1,11,-1
 256 128 l 1,12,-1
 256 256 l 1,13,-1
 128 256 l 1,14,-1
 128 128 l 1,15,-1
 0 128 l 1,8,-1
EndSplineSet
EndChar

StartChar: aogonek
Encoding: 261 261 194
Width: 512
GlyphClass: 1
Flags: W
LayerCount: 2
Fore
SplineSet
0 128 m 1,0,-1
 0 384 l 1,1,-1
 128 384 l 1,2,-1
 128 128 l 1,3,-1
 0 128 l 1,0,-1
128 -128 m 1,4,-1
 128 128 l 1,5,-1
 256 128 l 1,6,-1
 256 384 l 1,7,-1
 128 384 l 1,8,-1
 128 512 l 1,9,-1
 384 512 l 1,10,-1
 384 0 l 1,11,-1
 256 0 l 1,12,-1
 256 -128 l 1,13,-1
 128 -128 l 1,4,-1
EndSplineSet
EndChar

StartChar: Cacute
Encoding: 262 262 195
Width: 512
GlyphClass: 1
Flags: W
LayerCount: 2
Fore
SplineSet
0 0 m 1,0,-1
 0 512 l 1,1,-1
 384 512 l 1,2,-1
 384 384 l 1,3,-1
 128 384 l 1,4,-1
 128 128 l 1,5,-1
 384 128 l 1,6,-1
 384 0 l 1,7,-1
 0 0 l 1,0,-1
128 640 m 1,8,-1
 128 768 l 1,9,-1
 384 768 l 1,10,-1
 384 640 l 1,11,-1
 128 640 l 1,8,-1
EndSplineSet
EndChar

StartChar: cacute
Encoding: 263 263 196
Width: 512
GlyphClass: 1
Flags: W
LayerCount: 2
Fore
SplineSet
0 0 m 1,0,-1
 0 384 l 1,1,-1
 384 384 l 1,2,-1
 384 256 l 1,3,-1
 128 256 l 1,4,-1
 128 128 l 1,5,-1
 384 128 l 1,6,-1
 384 0 l 1,7,-1
 0 0 l 1,0,-1
128 512 m 1,8,-1
 128 640 l 1,9,-1
 384 640 l 1,10,-1
 384 512 l 1,11,-1
 128 512 l 1,8,-1
EndSplineSet
EndChar

StartChar: Eogonek
Encoding: 280 280 197
Width: 512
GlyphClass: 1
Flags: W
LayerCount: 2
Fore
SplineSet
128 -128 m 1,0,-1
 128 0 l 1,1,-1
 0 0 l 1,2,-1
 0 640 l 1,3,-1
 384 640 l 1,4,-1
 384 512 l 1,5,-1
 128 512 l 1,6,-1
 128 384 l 1,7,-1
 384 384 l 1,8,-1
 384 256 l 1,9,-1
 128 256 l 1,10,-1
 128 128 l 1,11,-1
 384 128 l 1,12,-1
 384 0 l 1,13,-1
 256 0 l 1,14,-1
 256 -128 l 1,15,-1
 128 -128 l 1,0,-1
EndSplineSet
EndChar

StartChar: eogonek
Encoding: 281 281 198
Width: 512
GlyphClass: 1
Flags: W
LayerCount: 2
Fore
SplineSet
128 -128 m 1,0,-1
 128 128 l 1,1,-1
 0 128 l 1,2,-1
 0 384 l 1,3,-1
 128 384 l 1,4,-1
 128 256 l 1,5,-1
 256 256 l 1,6,-1
 256 128 l 1,7,-1
 384 128 l 1,8,-1
 384 0 l 1,9,-1
 256 0 l 1,10,-1
 256 -128 l 1,11,-1
 128 -128 l 1,0,-1
256 256 m 1,12,-1
 256 384 l 1,13,-1
 384 384 l 1,14,-1
 384 256 l 1,15,-1
 256 256 l 1,12,-1
128 384 m 1,16,-1
 128 512 l 1,17,-1
 256 512 l 1,18,-1
 256 384 l 1,19,-1
 128 384 l 1,16,-1
EndSplineSet
EndChar

StartChar: IJ
Encoding: 306 306 199
Width: 640
GlyphClass: 1
Flags: W
LayerCount: 2
Fore
SplineSet
256 0 m 1,0,-1
 256 128 l 1,1,-1
 384 128 l 1,2,-1
 384 0 l 1,3,-1
 256 0 l 1,0,-1
0 0 m 1,4,-1
 0 640 l 1,5,-1
 128 640 l 1,6,-1
 128 0 l 1,7,-1
 0 0 l 1,4,-1
384 128 m 1,8,-1
 384 640 l 1,9,-1
 512 640 l 1,10,-1
 512 128 l 1,11,-1
 384 128 l 1,8,-1
EndSplineSet
EndChar

StartChar: ij
Encoding: 307 307 200
Width: 640
GlyphClass: 1
Flags: W
LayerCount: 2
Fore
SplineSet
256 -128 m 1,0,-1
 256 0 l 1,1,-1
 384 0 l 1,2,-1
 384 -128 l 1,3,-1
 256 -128 l 1,0,-1
0 0 m 1,4,-1
 0 384 l 1,5,-1
 128 384 l 1,6,-1
 128 0 l 1,7,-1
 0 0 l 1,4,-1
384 0 m 1,8,-1
 384 384 l 1,9,-1
 512 384 l 1,10,-1
 512 0 l 1,11,-1
 384 0 l 1,8,-1
0 512 m 1,12,-1
 0 640 l 1,13,-1
 128 640 l 1,14,-1
 128 512 l 1,15,-1
 0 512 l 1,12,-1
384 512 m 1,16,-1
 384 640 l 1,17,-1
 512 640 l 1,18,-1
 512 512 l 1,19,-1
 384 512 l 1,16,-1
EndSplineSet
EndChar

StartChar: Lslash
Encoding: 321 321 201
Width: 512
GlyphClass: 1
Flags: W
LayerCount: 2
Fore
SplineSet
128 0 m 1,0,-1
 128 256 l 1,1,-1
 0 256 l 1,2,-1
 0 384 l 1,3,-1
 128 384 l 1,4,-1
 128 640 l 1,5,-1
 256 640 l 1,6,-1
 256 512 l 1,7,-1
 384 512 l 1,8,-1
 384 384 l 1,9,-1
 256 384 l 1,10,-1
 256 128 l 1,11,-1
 384 128 l 1,12,-1
 384 0 l 1,13,-1
 128 0 l 1,0,-1
EndSplineSet
EndChar

StartChar: lslash
Encoding: 322 322 202
Width: 512
GlyphClass: 1
Flags: W
LayerCount: 2
Fore
SplineSet
128 0 m 1,0,-1
 128 128 l 1,1,-1
 0 128 l 1,2,-1
 0 256 l 1,3,-1
 128 256 l 1,4,-1
 128 512 l 1,5,-1
 0 512 l 1,6,-1
 0 640 l 1,7,-1
 256 640 l 1,8,-1
 256 384 l 1,9,-1
 384 384 l 1,10,-1
 384 256 l 1,11,-1
 256 256 l 1,12,-1
 256 0 l 1,13,-1
 128 0 l 1,0,-1
EndSplineSet
EndChar

StartChar: Nacute
Encoding: 323 323 203
Width: 512
GlyphClass: 1
Flags: W
LayerCount: 2
Fore
SplineSet
0 0 m 1,0,-1
 0 512 l 1,1,-1
 384 512 l 1,2,-1
 384 0 l 1,3,-1
 256 0 l 1,4,-1
 256 384 l 1,5,-1
 128 384 l 1,6,-1
 128 0 l 1,7,-1
 0 0 l 1,0,-1
128 640 m 1,8,-1
 128 768 l 1,9,-1
 384 768 l 1,10,-1
 384 640 l 1,11,-1
 128 640 l 1,8,-1
EndSplineSet
EndChar

StartChar: nacute
Encoding: 324 324 204
Width: 512
GlyphClass: 1
Flags: W
LayerCount: 2
Fore
SplineSet
0 0 m 1,0,-1
 0 384 l 1,1,-1
 384 384 l 1,2,-1
 384 0 l 1,3,-1
 256 0 l 1,4,-1
 256 256 l 1,5,-1
 128 256 l 1,6,-1
 128 0 l 1,7,-1
 0 0 l 1,0,-1
128 512 m 1,8,-1
 128 640 l 1,9,-1
 384 640 l 1,10,-1
 384 512 l 1,11,-1
 128 512 l 1,8,-1
EndSplineSet
EndChar

StartChar: OE
Encoding: 338 338 205
Width: 768
GlyphClass: 1
Flags: W
LayerCount: 2
Fore
SplineSet
256 128 m 1,0,-1
 256 512 l 1,1,-1
 128 512 l 1,2,-1
 128 128 l 1,3,-1
 256 128 l 1,0,-1
0 0 m 1,4,-1
 0 640 l 1,5,-1
 640 640 l 1,6,-1
 640 512 l 1,7,-1
 384 512 l 1,8,-1
 384 384 l 1,9,-1
 640 384 l 1,10,-1
 640 256 l 1,11,-1
 384 256 l 1,12,-1
 384 128 l 1,13,-1
 640 128 l 1,14,-1
 640 0 l 1,15,-1
 0 0 l 1,4,-1
EndSplineSet
EndChar

StartChar: oe
Encoding: 339 339 206
Width: 768
GlyphClass: 1
Flags: W
LayerCount: 2
Fore
SplineSet
128 0 m 1,0,-1
 128 128 l 1,1,-1
 256 128 l 1,2,-1
 256 0 l 1,3,-1
 128 0 l 1,0,-1
0 128 m 1,4,-1
 0 384 l 1,5,-1
 128 384 l 1,6,-1
 128 128 l 1,7,-1
 0 128 l 1,4,-1
384 0 m 1,8,-1
 384 128 l 1,9,-1
 256 128 l 1,10,-1
 256 384 l 1,11,-1
 384 384 l 1,12,-1
 384 256 l 1,13,-1
 512 256 l 1,14,-1
 512 128 l 1,15,-1
 640 128 l 1,16,-1
 640 0 l 1,17,-1
 384 0 l 1,8,-1
512 256 m 1,18,-1
 512 384 l 1,19,-1
 640 384 l 1,20,-1
 640 256 l 1,21,-1
 512 256 l 1,18,-1
128 384 m 1,22,-1
 128 512 l 1,23,-1
 256 512 l 1,24,-1
 256 384 l 1,25,-1
 128 384 l 1,22,-1
384 384 m 1,26,-1
 384 512 l 1,27,-1
 512 512 l 1,28,-1
 512 384 l 1,29,-1
 384 384 l 1,26,-1
EndSplineSet
EndChar

StartChar: Sacute
Encoding: 346 346 207
Width: 512
GlyphClass: 1
Flags: W
LayerCount: 2
Fore
SplineSet
0 0 m 1,0,-1
 0 128 l 1,1,-1
 256 128 l 1,2,-1
 256 256 l 1,3,-1
 384 256 l 1,4,-1
 384 0 l 1,5,-1
 0 0 l 1,0,-1
0 256 m 1,6,-1
 0 512 l 1,7,-1
 384 512 l 1,8,-1
 384 384 l 1,9,-1
 128 384 l 1,10,-1
 128 256 l 1,11,-1
 0 256 l 1,6,-1
128 640 m 1,12,-1
 128 768 l 1,13,-1
 384 768 l 1,14,-1
 384 640 l 1,15,-1
 128 640 l 1,12,-1
EndSplineSet
EndChar

StartChar: sacute
Encoding: 347 347 208
Width: 512
GlyphClass: 1
Flags: W
LayerCount: 2
Fore
SplineSet
0 0 m 1,0,-1
 0 128 l 1,1,-1
 128 128 l 1,2,-1
 128 384 l 1,3,-1
 384 384 l 1,4,-1
 384 256 l 1,5,-1
 256 256 l 1,6,-1
 256 0 l 1,7,-1
 0 0 l 1,0,-1
128 512 m 1,8,-1
 128 640 l 1,9,-1
 384 640 l 1,10,-1
 384 512 l 1,11,-1
 128 512 l 1,8,-1
EndSplineSet
EndChar

StartChar: Wcircumflex
Encoding: 372 372 209
Width: 768
GlyphClass: 1
Flags: W
LayerCount: 2
Fore
SplineSet
0 0 m 1,0,-1
 0 512 l 1,1,-1
 128 512 l 1,2,-1
 128 128 l 1,3,-1
 256 128 l 1,4,-1
 256 512 l 1,5,-1
 384 512 l 1,6,-1
 384 128 l 1,7,-1
 512 128 l 1,8,-1
 512 512 l 1,9,-1
 640 512 l 1,10,-1
 640 0 l 1,11,-1
 0 0 l 1,0,-1
128 640 m 1,12,-1
 128 768 l 1,13,-1
 512 768 l 1,14,-1
 512 640 l 1,15,-1
 128 640 l 1,12,-1
EndSplineSet
EndChar

StartChar: wcircumflex
Encoding: 373 373 210
Width: 768
GlyphClass: 1
Flags: W
LayerCount: 2
Fore
SplineSet
0 0 m 1,0,-1
 0 384 l 1,1,-1
 128 384 l 1,2,-1
 128 128 l 1,3,-1
 256 128 l 1,4,-1
 256 384 l 1,5,-1
 384 384 l 1,6,-1
 384 128 l 1,7,-1
 512 128 l 1,8,-1
 512 384 l 1,9,-1
 640 384 l 1,10,-1
 640 0 l 1,11,-1
 0 0 l 1,0,-1
128 512 m 1,12,-1
 128 640 l 1,13,-1
 512 640 l 1,14,-1
 512 512 l 1,15,-1
 128 512 l 1,12,-1
EndSplineSet
EndChar

StartChar: Ycircumflex
Encoding: 374 374 211
Width: 512
GlyphClass: 1
Flags: W
LayerCount: 2
Fore
SplineSet
128 0 m 1,0,-1
 128 256 l 1,1,-1
 0 256 l 1,2,-1
 0 512 l 1,3,-1
 128 512 l 1,4,-1
 128 384 l 1,5,-1
 256 384 l 1,6,-1
 256 512 l 1,7,-1
 384 512 l 1,8,-1
 384 256 l 1,9,-1
 256 256 l 1,10,-1
 256 0 l 1,11,-1
 128 0 l 1,0,-1
0 640 m 1,12,-1
 0 768 l 1,13,-1
 384 768 l 1,14,-1
 384 640 l 1,15,-1
 0 640 l 1,12,-1
EndSplineSet
EndChar

StartChar: ycircumflex
Encoding: 375 375 212
Width: 512
GlyphClass: 1
Flags: W
LayerCount: 2
Fore
SplineSet
0 -128 m 1,0,-1
 0 0 l 1,1,-1
 256 0 l 1,2,-1
 256 -128 l 1,3,-1
 0 -128 l 1,0,-1
256 0 m 1,4,-1
 256 128 l 1,5,-1
 0 128 l 1,6,-1
 0 384 l 1,7,-1
 128 384 l 1,8,-1
 128 256 l 1,9,-1
 256 256 l 1,10,-1
 256 384 l 1,11,-1
 384 384 l 1,12,-1
 384 0 l 1,13,-1
 256 0 l 1,4,-1
0 512 m 1,14,-1
 0 640 l 1,15,-1
 384 640 l 1,16,-1
 384 512 l 1,17,-1
 0 512 l 1,14,-1
EndSplineSet
EndChar

StartChar: Ydieresis
Encoding: 376 376 213
Width: 512
GlyphClass: 1
Flags: W
LayerCount: 2
Fore
SplineSet
128 0 m 1,0,-1
 128 256 l 1,1,-1
 0 256 l 1,2,-1
 0 512 l 1,3,-1
 128 512 l 1,4,-1
 128 384 l 1,5,-1
 256 384 l 1,6,-1
 256 512 l 1,7,-1
 384 512 l 1,8,-1
 384 256 l 1,9,-1
 256 256 l 1,10,-1
 256 0 l 1,11,-1
 128 0 l 1,0,-1
0 640 m 1,12,-1
 0 768 l 1,13,-1
 128 768 l 1,14,-1
 128 640 l 1,15,-1
 0 640 l 1,12,-1
256 640 m 1,16,-1
 256 768 l 1,17,-1
 384 768 l 1,18,-1
 384 640 l 1,19,-1
 256 640 l 1,16,-1
EndSplineSet
EndChar

StartChar: Zacute
Encoding: 377 377 214
Width: 512
GlyphClass: 1
Flags: W
LayerCount: 2
Fore
SplineSet
0 0 m 1,0,-1
 0 256 l 1,1,-1
 128 256 l 1,2,-1
 128 128 l 1,3,-1
 384 128 l 1,4,-1
 384 0 l 1,5,-1
 0 0 l 1,0,-1
256 256 m 1,6,-1
 256 384 l 1,7,-1
 0 384 l 1,8,-1
 0 512 l 1,9,-1
 384 512 l 1,10,-1
 384 256 l 1,11,-1
 256 256 l 1,6,-1
128 640 m 1,12,-1
 128 768 l 1,13,-1
 384 768 l 1,14,-1
 384 640 l 1,15,-1
 128 640 l 1,12,-1
EndSplineSet
EndChar

StartChar: zacute
Encoding: 378 378 215
Width: 512
GlyphClass: 1
Flags: W
LayerCount: 2
Fore
SplineSet
128 0 m 1,0,-1
 128 256 l 1,1,-1
 0 256 l 1,2,-1
 0 384 l 1,3,-1
 256 384 l 1,4,-1
 256 128 l 1,5,-1
 384 128 l 1,6,-1
 384 0 l 1,7,-1
 128 0 l 1,0,-1
128 512 m 1,8,-1
 128 640 l 1,9,-1
 384 640 l 1,10,-1
 384 512 l 1,11,-1
 128 512 l 1,8,-1
EndSplineSet
EndChar

StartChar: Zdotaccent
Encoding: 379 379 216
Width: 512
GlyphClass: 1
Flags: W
LayerCount: 2
Fore
SplineSet
0 0 m 1,0,-1
 0 256 l 1,1,-1
 128 256 l 1,2,-1
 128 128 l 1,3,-1
 384 128 l 1,4,-1
 384 0 l 1,5,-1
 0 0 l 1,0,-1
256 256 m 1,6,-1
 256 384 l 1,7,-1
 0 384 l 1,8,-1
 0 512 l 1,9,-1
 384 512 l 1,10,-1
 384 256 l 1,11,-1
 256 256 l 1,6,-1
128 640 m 1,12,-1
 128 768 l 1,13,-1
 256 768 l 1,14,-1
 256 640 l 1,15,-1
 128 640 l 1,12,-1
EndSplineSet
EndChar

StartChar: zdotaccent
Encoding: 380 380 217
Width: 512
GlyphClass: 1
Flags: W
LayerCount: 2
Fore
SplineSet
128 0 m 1,0,-1
 128 256 l 1,1,-1
 0 256 l 1,2,-1
 0 384 l 1,3,-1
 256 384 l 1,4,-1
 256 128 l 1,5,-1
 384 128 l 1,6,-1
 384 0 l 1,7,-1
 128 0 l 1,0,-1
128 512 m 1,8,-1
 128 640 l 1,9,-1
 256 640 l 1,10,-1
 256 512 l 1,11,-1
 128 512 l 1,8,-1
EndSplineSet
EndChar

StartChar: Alpha
Encoding: 913 913 218
Width: 512
GlyphClass: 1
Flags: W
LayerCount: 2
Fore
SplineSet
256 384 m 1,0,-1
 256 512 l 1,1,-1
 128 512 l 1,2,-1
 128 384 l 1,3,-1
 256 384 l 1,0,-1
0 0 m 1,4,-1
 0 640 l 1,5,-1
 384 640 l 1,6,-1
 384 0 l 1,7,-1
 256 0 l 1,8,-1
 256 256 l 1,9,-1
 128 256 l 1,10,-1
 128 0 l 1,11,-1
 0 0 l 1,4,-1
EndSplineSet
EndChar

StartChar: Beta
Encoding: 914 914 219
Width: 512
GlyphClass: 1
Flags: W
LayerCount: 2
Fore
SplineSet
0 0 m 1,0,-1
 0 640 l 1,1,-1
 384 640 l 1,2,-1
 384 384 l 1,3,-1
 256 384 l 1,4,-1
 256 512 l 1,5,-1
 128 512 l 1,6,-1
 128 384 l 1,7,-1
 256 384 l 1,8,-1
 256 256 l 1,9,-1
 128 256 l 1,10,-1
 128 128 l 1,11,-1
 256 128 l 1,12,-1
 256 256 l 1,13,-1
 384 256 l 1,14,-1
 384 0 l 1,15,-1
 0 0 l 1,0,-1
EndSplineSet
EndChar

StartChar: Gamma
Encoding: 915 915 220
Width: 512
GlyphClass: 1
Flags: W
LayerCount: 2
Fore
SplineSet
0 0 m 1,0,-1
 0 640 l 1,1,-1
 384 640 l 1,2,-1
 384 512 l 1,3,-1
 128 512 l 1,4,-1
 128 0 l 1,5,-1
 0 0 l 1,0,-1
EndSplineSet
EndChar

StartChar: uni0394
Encoding: 916 916 221
Width: 512
GlyphClass: 1
Flags: W
LayerCount: 2
Fore
SplineSet
0 0 m 1,0,-1
 0 512 l 1,1,-1
 128 512 l 1,2,-1
 128 128 l 1,3,-1
 256 128 l 1,4,-1
 256 512 l 1,5,-1
 384 512 l 1,6,-1
 384 0 l 1,7,-1
 0 0 l 1,0,-1
128 512 m 1,8,-1
 128 640 l 1,9,-1
 256 640 l 1,10,-1
 256 512 l 1,11,-1
 128 512 l 1,8,-1
EndSplineSet
EndChar

StartChar: Epsilon
Encoding: 917 917 222
Width: 512
GlyphClass: 1
Flags: W
LayerCount: 2
Fore
SplineSet
0 0 m 1,0,-1
 0 640 l 1,1,-1
 384 640 l 1,2,-1
 384 512 l 1,3,-1
 128 512 l 1,4,-1
 128 384 l 1,5,-1
 384 384 l 1,6,-1
 384 256 l 1,7,-1
 128 256 l 1,8,-1
 128 128 l 1,9,-1
 384 128 l 1,10,-1
 384 0 l 1,11,-1
 0 0 l 1,0,-1
EndSplineSet
EndChar

StartChar: Zeta
Encoding: 918 918 223
Width: 512
GlyphClass: 1
Flags: W
LayerCount: 2
Fore
SplineSet
0 0 m 1,0,-1
 0 256 l 1,1,-1
 128 256 l 1,2,-1
 128 128 l 1,3,-1
 384 128 l 1,4,-1
 384 0 l 1,5,-1
 0 0 l 1,0,-1
128 256 m 1,6,-1
 128 384 l 1,7,-1
 256 384 l 1,8,-1
 256 256 l 1,9,-1
 128 256 l 1,6,-1
256 384 m 1,10,-1
 256 512 l 1,11,-1
 0 512 l 1,12,-1
 0 640 l 1,13,-1
 384 640 l 1,14,-1
 384 384 l 1,15,-1
 256 384 l 1,10,-1
EndSplineSet
EndChar

StartChar: Eta
Encoding: 919 919 224
Width: 512
GlyphClass: 1
Flags: W
LayerCount: 2
Fore
SplineSet
0 0 m 1,0,-1
 0 640 l 1,1,-1
 128 640 l 1,2,-1
 128 384 l 1,3,-1
 256 384 l 1,4,-1
 256 640 l 1,5,-1
 384 640 l 1,6,-1
 384 0 l 1,7,-1
 256 0 l 1,8,-1
 256 256 l 1,9,-1
 128 256 l 1,10,-1
 128 0 l 1,11,-1
 0 0 l 1,0,-1
EndSplineSet
EndChar

StartChar: Theta
Encoding: 920 920 225
Width: 512
GlyphClass: 1
Flags: W
LayerCount: 2
Fore
SplineSet
256 128 m 1,0,-1
 256 256 l 1,1,-1
 128 256 l 1,2,-1
 128 128 l 1,3,-1
 256 128 l 1,0,-1
256 384 m 1,4,-1
 256 512 l 1,5,-1
 128 512 l 1,6,-1
 128 384 l 1,7,-1
 256 384 l 1,4,-1
0 0 m 1,8,-1
 0 640 l 1,9,-1
 384 640 l 1,10,-1
 384 0 l 1,11,-1
 0 0 l 1,8,-1
EndSplineSet
EndChar

StartChar: Iota
Encoding: 921 921 226
Width: 512
GlyphClass: 1
Flags: W
LayerCount: 2
Fore
SplineSet
0 0 m 1,0,-1
 0 128 l 1,1,-1
 128 128 l 1,2,-1
 128 512 l 1,3,-1
 0 512 l 1,4,-1
 0 640 l 1,5,-1
 384 640 l 1,6,-1
 384 512 l 1,7,-1
 256 512 l 1,8,-1
 256 128 l 1,9,-1
 384 128 l 1,10,-1
 384 0 l 1,11,-1
 0 0 l 1,0,-1
EndSplineSet
EndChar

StartChar: Kappa
Encoding: 922 922 227
Width: 512
GlyphClass: 1
Flags: W
LayerCount: 2
Fore
SplineSet
256 0 m 1,0,-1
 256 256 l 1,1,-1
 384 256 l 1,2,-1
 384 0 l 1,3,-1
 256 0 l 1,0,-1
0 0 m 1,4,-1
 0 640 l 1,5,-1
 128 640 l 1,6,-1
 128 384 l 1,7,-1
 256 384 l 1,8,-1
 256 256 l 1,9,-1
 128 256 l 1,10,-1
 128 0 l 1,11,-1
 0 0 l 1,4,-1
256 384 m 1,12,-1
 256 640 l 1,13,-1
 384 640 l 1,14,-1
 384 384 l 1,15,-1
 256 384 l 1,12,-1
EndSplineSet
EndChar

StartChar: Lambda
Encoding: 923 923 228
Width: 512
GlyphClass: 1
Flags: W
LayerCount: 2
Fore
SplineSet
0 0 m 1,0,-1
 0 512 l 1,1,-1
 128 512 l 1,2,-1
 128 0 l 1,3,-1
 0 0 l 1,0,-1
256 0 m 1,4,-1
 256 512 l 1,5,-1
 384 512 l 1,6,-1
 384 0 l 1,7,-1
 256 0 l 1,4,-1
128 512 m 1,8,-1
 128 640 l 1,9,-1
 256 640 l 1,10,-1
 256 512 l 1,11,-1
 128 512 l 1,8,-1
EndSplineSet
EndChar

StartChar: Mu
Encoding: 924 924 229
Width: 768
GlyphClass: 1
Flags: W
LayerCount: 2
Fore
SplineSet
0 0 m 1,0,-1
 0 640 l 1,1,-1
 640 640 l 1,2,-1
 640 0 l 1,3,-1
 512 0 l 1,4,-1
 512 512 l 1,5,-1
 384 512 l 1,6,-1
 384 0 l 1,7,-1
 256 0 l 1,8,-1
 256 512 l 1,9,-1
 128 512 l 1,10,-1
 128 0 l 1,11,-1
 0 0 l 1,0,-1
EndSplineSet
EndChar

StartChar: Nu
Encoding: 925 925 230
Width: 640
GlyphClass: 1
Flags: W
LayerCount: 2
Fore
SplineSet
0 0 m 1,0,-1
 0 640 l 1,1,-1
 128 640 l 1,2,-1
 128 512 l 1,3,-1
 256 512 l 1,4,-1
 256 384 l 1,5,-1
 128 384 l 1,6,-1
 128 0 l 1,7,-1
 0 0 l 1,0,-1
384 0 m 1,8,-1
 384 128 l 1,9,-1
 256 128 l 1,10,-1
 256 256 l 1,11,-1
 384 256 l 1,12,-1
 384 640 l 1,13,-1
 512 640 l 1,14,-1
 512 0 l 1,15,-1
 384 0 l 1,8,-1
EndSplineSet
EndChar

StartChar: Xi
Encoding: 926 926 231
Width: 512
GlyphClass: 1
Flags: W
LayerCount: 2
Fore
SplineSet
0 0 m 1,0,-1
 0 128 l 1,1,-1
 384 128 l 1,2,-1
 384 0 l 1,3,-1
 0 0 l 1,0,-1
0 256 m 1,4,-1
 0 384 l 1,5,-1
 384 384 l 1,6,-1
 384 256 l 1,7,-1
 0 256 l 1,4,-1
0 512 m 1,8,-1
 0 640 l 1,9,-1
 384 640 l 1,10,-1
 384 512 l 1,11,-1
 0 512 l 1,8,-1
EndSplineSet
EndChar

StartChar: Omicron
Encoding: 927 927 232
Width: 512
GlyphClass: 1
Flags: W
LayerCount: 2
Fore
SplineSet
256 128 m 1,0,-1
 256 512 l 1,1,-1
 128 512 l 1,2,-1
 128 128 l 1,3,-1
 256 128 l 1,0,-1
0 0 m 1,4,-1
 0 640 l 1,5,-1
 384 640 l 1,6,-1
 384 0 l 1,7,-1
 0 0 l 1,4,-1
EndSplineSet
EndChar

StartChar: Pi
Encoding: 928 928 233
Width: 512
GlyphClass: 1
Flags: W
LayerCount: 2
Fore
SplineSet
0 0 m 1,0,-1
 0 640 l 1,1,-1
 384 640 l 1,2,-1
 384 0 l 1,3,-1
 256 0 l 1,4,-1
 256 512 l 1,5,-1
 128 512 l 1,6,-1
 128 0 l 1,7,-1
 0 0 l 1,0,-1
EndSplineSet
EndChar

StartChar: Rho
Encoding: 929 929 234
Width: 512
GlyphClass: 1
Flags: W
LayerCount: 2
Fore
SplineSet
256 384 m 1,0,-1
 256 512 l 1,1,-1
 128 512 l 1,2,-1
 128 384 l 1,3,-1
 256 384 l 1,0,-1
0 0 m 1,4,-1
 0 640 l 1,5,-1
 384 640 l 1,6,-1
 384 256 l 1,7,-1
 128 256 l 1,8,-1
 128 0 l 1,9,-1
 0 0 l 1,4,-1
EndSplineSet
EndChar

StartChar: Sigma
Encoding: 931 931 235
Width: 512
GlyphClass: 1
Flags: W
LayerCount: 2
Fore
SplineSet
0 0 m 1,0,-1
 0 256 l 1,1,-1
 128 256 l 1,2,-1
 128 128 l 1,3,-1
 384 128 l 1,4,-1
 384 0 l 1,5,-1
 0 0 l 1,0,-1
128 256 m 1,6,-1
 128 384 l 1,7,-1
 256 384 l 1,8,-1
 256 256 l 1,9,-1
 128 256 l 1,6,-1
0 384 m 1,10,-1
 0 640 l 1,11,-1
 384 640 l 1,12,-1
 384 512 l 1,13,-1
 128 512 l 1,14,-1
 128 384 l 1,15,-1
 0 384 l 1,10,-1
EndSplineSet
EndChar

StartChar: Tau
Encoding: 932 932 236
Width: 512
GlyphClass: 1
Flags: W
LayerCount: 2
Fore
SplineSet
128 0 m 1,0,-1
 128 512 l 1,1,-1
 0 512 l 1,2,-1
 0 640 l 1,3,-1
 384 640 l 1,4,-1
 384 512 l 1,5,-1
 256 512 l 1,6,-1
 256 0 l 1,7,-1
 128 0 l 1,0,-1
EndSplineSet
EndChar

StartChar: Upsilon
Encoding: 933 933 237
Width: 512
GlyphClass: 1
Flags: W
LayerCount: 2
Fore
SplineSet
128 0 m 1,0,-1
 128 256 l 1,1,-1
 0 256 l 1,2,-1
 0 640 l 1,3,-1
 128 640 l 1,4,-1
 128 384 l 1,5,-1
 256 384 l 1,6,-1
 256 640 l 1,7,-1
 384 640 l 1,8,-1
 384 256 l 1,9,-1
 256 256 l 1,10,-1
 256 0 l 1,11,-1
 128 0 l 1,0,-1
EndSplineSet
EndChar

StartChar: Phi
Encoding: 934 934 238
Width: 512
GlyphClass: 1
Flags: W
LayerCount: 2
Fore
SplineSet
256 256 m 1,0,-1
 256 384 l 1,1,-1
 128 384 l 1,2,-1
 128 256 l 1,3,-1
 256 256 l 1,0,-1
128 0 m 1,4,-1
 128 128 l 1,5,-1
 0 128 l 1,6,-1
 0 512 l 1,7,-1
 128 512 l 1,8,-1
 128 640 l 1,9,-1
 256 640 l 1,10,-1
 256 512 l 1,11,-1
 384 512 l 1,12,-1
 384 128 l 1,13,-1
 256 128 l 1,14,-1
 256 0 l 1,15,-1
 128 0 l 1,4,-1
EndSplineSet
EndChar

StartChar: Chi
Encoding: 935 935 239
Width: 512
GlyphClass: 1
Flags: W
LayerCount: 2
Fore
SplineSet
0 0 m 1,0,-1
 0 256 l 1,1,-1
 128 256 l 1,2,-1
 128 0 l 1,3,-1
 0 0 l 1,0,-1
256 0 m 1,4,-1
 256 256 l 1,5,-1
 384 256 l 1,6,-1
 384 0 l 1,7,-1
 256 0 l 1,4,-1
128 256 m 1,8,-1
 128 384 l 1,9,-1
 256 384 l 1,10,-1
 256 256 l 1,11,-1
 128 256 l 1,8,-1
0 384 m 1,12,-1
 0 640 l 1,13,-1
 128 640 l 1,14,-1
 128 384 l 1,15,-1
 0 384 l 1,12,-1
256 384 m 1,16,-1
 256 640 l 1,17,-1
 384 640 l 1,18,-1
 384 384 l 1,19,-1
 256 384 l 1,16,-1
EndSplineSet
EndChar

StartChar: Psi
Encoding: 936 936 240
Width: 768
GlyphClass: 1
Flags: W
LayerCount: 2
Fore
SplineSet
256 0 m 1,0,-1
 256 256 l 1,1,-1
 0 256 l 1,2,-1
 0 640 l 1,3,-1
 128 640 l 1,4,-1
 128 384 l 1,5,-1
 256 384 l 1,6,-1
 256 640 l 1,7,-1
 384 640 l 1,8,-1
 384 384 l 1,9,-1
 512 384 l 1,10,-1
 512 640 l 1,11,-1
 640 640 l 1,12,-1
 640 256 l 1,13,-1
 384 256 l 1,14,-1
 384 0 l 1,15,-1
 256 0 l 1,0,-1
EndSplineSet
EndChar

StartChar: uni03A9
Encoding: 937 937 241
Width: 512
GlyphClass: 1
Flags: W
LayerCount: 2
Fore
SplineSet
0 0 m 1,0,-1
 0 128 l 1,1,-1
 128 128 l 1,2,-1
 128 256 l 1,3,-1
 256 256 l 1,4,-1
 256 128 l 1,5,-1
 384 128 l 1,6,-1
 384 0 l 1,7,-1
 0 0 l 1,0,-1
0 256 m 1,8,-1
 0 640 l 1,9,-1
 384 640 l 1,10,-1
 384 256 l 1,11,-1
 256 256 l 1,12,-1
 256 512 l 1,13,-1
 128 512 l 1,14,-1
 128 256 l 1,15,-1
 0 256 l 1,8,-1
EndSplineSet
EndChar

StartChar: alpha
Encoding: 945 945 242
Width: 512
GlyphClass: 1
Flags: W
LayerCount: 2
Fore
SplineSet
0 128 m 1,0,-1
 0 384 l 1,1,-1
 128 384 l 1,2,-1
 128 128 l 1,3,-1
 0 128 l 1,0,-1
128 0 m 1,4,-1
 128 128 l 1,5,-1
 256 128 l 1,6,-1
 256 384 l 1,7,-1
 128 384 l 1,8,-1
 128 512 l 1,9,-1
 384 512 l 1,10,-1
 384 0 l 1,11,-1
 128 0 l 1,4,-1
EndSplineSet
EndChar

StartChar: beta
Encoding: 946 946 243
Width: 512
GlyphClass: 1
Flags: W
LayerCount: 2
Fore
SplineSet
256 128 m 1,0,-1
 256 256 l 1,1,-1
 384 256 l 1,2,-1
 384 128 l 1,3,-1
 256 128 l 1,0,-1
256 384 m 1,4,-1
 256 512 l 1,5,-1
 384 512 l 1,6,-1
 384 384 l 1,7,-1
 256 384 l 1,4,-1
0 -128 m 1,8,-1
 0 640 l 1,9,-1
 256 640 l 1,10,-1
 256 512 l 1,11,-1
 128 512 l 1,12,-1
 128 384 l 1,13,-1
 256 384 l 1,14,-1
 256 256 l 1,15,-1
 128 256 l 1,16,-1
 128 128 l 1,17,-1
 256 128 l 1,18,-1
 256 0 l 1,19,-1
 128 0 l 1,20,-1
 128 -128 l 1,21,-1
 0 -128 l 1,8,-1
EndSplineSet
EndChar

StartChar: gamma
Encoding: 947 947 244
Width: 512
GlyphClass: 1
Flags: W
LayerCount: 2
Fore
SplineSet
128 -128 m 1,0,-1
 128 256 l 1,1,-1
 256 256 l 1,2,-1
 256 -128 l 1,3,-1
 128 -128 l 1,0,-1
0 256 m 1,4,-1
 0 512 l 1,5,-1
 128 512 l 1,6,-1
 128 256 l 1,7,-1
 0 256 l 1,4,-1
256 256 m 1,8,-1
 256 512 l 1,9,-1
 384 512 l 1,10,-1
 384 256 l 1,11,-1
 256 256 l 1,8,-1
EndSplineSet
EndChar

StartChar: delta
Encoding: 948 948 245
Width: 512
GlyphClass: 1
Flags: W
LayerCount: 2
Fore
SplineSet
0 0 m 1,0,-1
 0 256 l 1,1,-1
 128 256 l 1,2,-1
 128 128 l 1,3,-1
 256 128 l 1,4,-1
 256 256 l 1,5,-1
 128 256 l 1,6,-1
 128 384 l 1,7,-1
 384 384 l 1,8,-1
 384 0 l 1,9,-1
 0 0 l 1,0,-1
0 384 m 1,10,-1
 0 640 l 1,11,-1
 384 640 l 1,12,-1
 384 512 l 1,13,-1
 128 512 l 1,14,-1
 128 384 l 1,15,-1
 0 384 l 1,10,-1
EndSplineSet
EndChar

StartChar: epsilon
Encoding: 949 949 246
Width: 512
GlyphClass: 1
Flags: W
LayerCount: 2
Fore
SplineSet
128 0 m 1,0,-1
 128 128 l 1,1,-1
 384 128 l 1,2,-1
 384 0 l 1,3,-1
 128 0 l 1,0,-1
0 128 m 1,4,-1
 0 384 l 1,5,-1
 128 384 l 1,6,-1
 128 512 l 1,7,-1
 384 512 l 1,8,-1
 384 384 l 1,9,-1
 256 384 l 1,10,-1
 256 256 l 1,11,-1
 128 256 l 1,12,-1
 128 128 l 1,13,-1
 0 128 l 1,4,-1
EndSplineSet
EndChar

StartChar: zeta
Encoding: 950 950 247
Width: 512
GlyphClass: 1
Flags: W
LayerCount: 2
Fore
SplineSet
0 -128 m 1,0,-1
 0 0 l 1,1,-1
 256 0 l 1,2,-1
 256 128 l 1,3,-1
 128 128 l 1,4,-1
 128 256 l 1,5,-1
 384 256 l 1,6,-1
 384 -128 l 1,7,-1
 0 -128 l 1,0,-1
0 256 m 1,8,-1
 0 384 l 1,9,-1
 128 384 l 1,10,-1
 128 256 l 1,11,-1
 0 256 l 1,8,-1
128 384 m 1,12,-1
 128 512 l 1,13,-1
 256 512 l 1,14,-1
 256 384 l 1,15,-1
 128 384 l 1,12,-1
0 512 m 1,16,-1
 0 640 l 1,17,-1
 128 640 l 1,18,-1
 128 512 l 1,19,-1
 0 512 l 1,16,-1
256 512 m 1,20,-1
 256 640 l 1,21,-1
 384 640 l 1,22,-1
 384 512 l 1,23,-1
 256 512 l 1,20,-1
EndSplineSet
EndChar

StartChar: eta
Encoding: 951 951 248
Width: 512
GlyphClass: 1
Flags: W
LayerCount: 2
Fore
SplineSet
256 -128 m 1,0,-1
 256 384 l 1,1,-1
 128 384 l 1,2,-1
 128 0 l 1,3,-1
 0 0 l 1,4,-1
 0 512 l 1,5,-1
 384 512 l 1,6,-1
 384 -128 l 1,7,-1
 256 -128 l 1,0,-1
EndSplineSet
EndChar

StartChar: theta
Encoding: 952 952 249
Width: 512
GlyphClass: 1
Flags: W
LayerCount: 2
Fore
SplineSet
128 0 m 1,0,-1
 128 128 l 1,1,-1
 256 128 l 1,2,-1
 256 0 l 1,3,-1
 128 0 l 1,0,-1
0 128 m 1,4,-1
 0 512 l 1,5,-1
 128 512 l 1,6,-1
 128 384 l 1,7,-1
 256 384 l 1,8,-1
 256 512 l 1,9,-1
 384 512 l 1,10,-1
 384 128 l 1,11,-1
 256 128 l 1,12,-1
 256 256 l 1,13,-1
 128 256 l 1,14,-1
 128 128 l 1,15,-1
 0 128 l 1,4,-1
128 512 m 1,16,-1
 128 640 l 1,17,-1
 256 640 l 1,18,-1
 256 512 l 1,19,-1
 128 512 l 1,16,-1
EndSplineSet
EndChar

StartChar: iota
Encoding: 953 953 250
Width: 256
GlyphClass: 1
Flags: W
LayerCount: 2
Fore
SplineSet
0 0 m 1,0,-1
 0 512 l 1,1,-1
 128 512 l 1,2,-1
 128 0 l 1,3,-1
 0 0 l 1,0,-1
EndSplineSet
EndChar

StartChar: kappa
Encoding: 954 954 251
Width: 512
GlyphClass: 1
Flags: W
LayerCount: 2
Fore
SplineSet
256 0 m 1,0,-1
 256 256 l 1,1,-1
 384 256 l 1,2,-1
 384 0 l 1,3,-1
 256 0 l 1,0,-1
0 0 m 1,4,-1
 0 512 l 1,5,-1
 128 512 l 1,6,-1
 128 384 l 1,7,-1
 256 384 l 1,8,-1
 256 256 l 1,9,-1
 128 256 l 1,10,-1
 128 0 l 1,11,-1
 0 0 l 1,4,-1
256 384 m 1,12,-1
 256 512 l 1,13,-1
 384 512 l 1,14,-1
 384 384 l 1,15,-1
 256 384 l 1,12,-1
EndSplineSet
EndChar

StartChar: lambda
Encoding: 955 955 252
Width: 512
GlyphClass: 1
Flags: W
LayerCount: 2
Fore
SplineSet
0 0 m 1,0,-1
 0 384 l 1,1,-1
 256 384 l 1,2,-1
 256 640 l 1,3,-1
 384 640 l 1,4,-1
 384 0 l 1,5,-1
 256 0 l 1,6,-1
 256 256 l 1,7,-1
 128 256 l 1,8,-1
 128 0 l 1,9,-1
 0 0 l 1,0,-1
EndSplineSet
EndChar

StartChar: uni03BC
Encoding: 956 956 253
Width: 512
GlyphClass: 1
Flags: W
LayerCount: 2
Fore
SplineSet
0 -128 m 1,0,-1
 0 512 l 1,1,-1
 128 512 l 1,2,-1
 128 128 l 1,3,-1
 256 128 l 1,4,-1
 256 512 l 1,5,-1
 384 512 l 1,6,-1
 384 0 l 1,7,-1
 128 0 l 1,8,-1
 128 -128 l 1,9,-1
 0 -128 l 1,0,-1
EndSplineSet
EndChar

StartChar: nu
Encoding: 957 957 254
Width: 512
GlyphClass: 1
Flags: W
LayerCount: 2
Fore
SplineSet
128 0 m 1,0,-1
 128 128 l 1,1,-1
 256 128 l 1,2,-1
 256 0 l 1,3,-1
 128 0 l 1,0,-1
0 128 m 1,4,-1
 0 512 l 1,5,-1
 128 512 l 1,6,-1
 128 128 l 1,7,-1
 0 128 l 1,4,-1
256 128 m 1,8,-1
 256 512 l 1,9,-1
 384 512 l 1,10,-1
 384 128 l 1,11,-1
 256 128 l 1,8,-1
EndSplineSet
EndChar

StartChar: xi
Encoding: 958 958 255
Width: 512
GlyphClass: 1
Flags: W
LayerCount: 2
Fore
SplineSet
256 -128 m 1,0,-1
 256 0 l 1,1,-1
 128 0 l 1,2,-1
 128 512 l 1,3,-1
 0 512 l 1,4,-1
 0 640 l 1,5,-1
 384 640 l 1,6,-1
 384 512 l 1,7,-1
 256 512 l 1,8,-1
 256 384 l 1,9,-1
 384 384 l 1,10,-1
 384 256 l 1,11,-1
 256 256 l 1,12,-1
 256 128 l 1,13,-1
 384 128 l 1,14,-1
 384 -128 l 1,15,-1
 256 -128 l 1,0,-1
EndSplineSet
EndChar

StartChar: omicron
Encoding: 959 959 256
Width: 512
GlyphClass: 1
Flags: W
LayerCount: 2
Fore
SplineSet
256 128 m 1,0,-1
 256 384 l 1,1,-1
 128 384 l 1,2,-1
 128 128 l 1,3,-1
 256 128 l 1,0,-1
0 0 m 1,4,-1
 0 512 l 1,5,-1
 384 512 l 1,6,-1
 384 0 l 1,7,-1
 0 0 l 1,4,-1
EndSplineSet
EndChar

StartChar: pi
Encoding: 960 960 257
Width: 512
GlyphClass: 1
Flags: W
LayerCount: 2
Fore
SplineSet
0 0 m 1,0,-1
 0 512 l 1,1,-1
 384 512 l 1,2,-1
 384 0 l 1,3,-1
 256 0 l 1,4,-1
 256 384 l 1,5,-1
 128 384 l 1,6,-1
 128 0 l 1,7,-1
 0 0 l 1,0,-1
EndSplineSet
EndChar

StartChar: rho
Encoding: 961 961 258
Width: 512
GlyphClass: 1
Flags: W
LayerCount: 2
Fore
SplineSet
256 128 m 1,0,-1
 256 384 l 1,1,-1
 128 384 l 1,2,-1
 128 128 l 1,3,-1
 256 128 l 1,0,-1
0 -128 m 1,4,-1
 0 512 l 1,5,-1
 384 512 l 1,6,-1
 384 0 l 1,7,-1
 128 0 l 1,8,-1
 128 -128 l 1,9,-1
 0 -128 l 1,4,-1
EndSplineSet
EndChar

StartChar: sigma1
Encoding: 962 962 259
Width: 512
GlyphClass: 1
Flags: W
LayerCount: 2
Fore
SplineSet
256 -128 m 1,0,-1
 256 0 l 1,1,-1
 0 0 l 1,2,-1
 0 512 l 1,3,-1
 384 512 l 1,4,-1
 384 384 l 1,5,-1
 128 384 l 1,6,-1
 128 128 l 1,7,-1
 384 128 l 1,8,-1
 384 -128 l 1,9,-1
 256 -128 l 1,0,-1
EndSplineSet
EndChar

StartChar: sigma
Encoding: 963 963 260
Width: 640
GlyphClass: 1
Flags: W
LayerCount: 2
Fore
SplineSet
256 128 m 1,0,-1
 256 384 l 1,1,-1
 128 384 l 1,2,-1
 128 128 l 1,3,-1
 256 128 l 1,0,-1
0 0 m 1,4,-1
 0 512 l 1,5,-1
 512 512 l 1,6,-1
 512 384 l 1,7,-1
 384 384 l 1,8,-1
 384 0 l 1,9,-1
 0 0 l 1,4,-1
EndSplineSet
EndChar

StartChar: tau
Encoding: 964 964 261
Width: 512
GlyphClass: 1
Flags: W
LayerCount: 2
Fore
SplineSet
128 0 m 1,0,-1
 128 384 l 1,1,-1
 0 384 l 1,2,-1
 0 512 l 1,3,-1
 384 512 l 1,4,-1
 384 384 l 1,5,-1
 256 384 l 1,6,-1
 256 0 l 1,7,-1
 128 0 l 1,0,-1
EndSplineSet
EndChar

StartChar: upsilon
Encoding: 965 965 262
Width: 512
GlyphClass: 1
Flags: W
LayerCount: 2
Fore
SplineSet
0 0 m 1,0,-1
 0 512 l 1,1,-1
 128 512 l 1,2,-1
 128 128 l 1,3,-1
 256 128 l 1,4,-1
 256 512 l 1,5,-1
 384 512 l 1,6,-1
 384 0 l 1,7,-1
 0 0 l 1,0,-1
EndSplineSet
EndChar

StartChar: phi
Encoding: 966 966 263
Width: 512
GlyphClass: 1
Flags: W
LayerCount: 2
Fore
SplineSet
256 128 m 1,0,-1
 256 256 l 1,1,-1
 128 256 l 1,2,-1
 128 128 l 1,3,-1
 256 128 l 1,0,-1
128 -128 m 1,4,-1
 128 0 l 1,5,-1
 0 0 l 1,6,-1
 0 384 l 1,7,-1
 128 384 l 1,8,-1
 128 512 l 1,9,-1
 256 512 l 1,10,-1
 256 384 l 1,11,-1
 384 384 l 1,12,-1
 384 0 l 1,13,-1
 256 0 l 1,14,-1
 256 -128 l 1,15,-1
 128 -128 l 1,4,-1
EndSplineSet
EndChar

StartChar: chi
Encoding: 967 967 264
Width: 512
GlyphClass: 1
Flags: W
LayerCount: 2
Fore
SplineSet
0 -128 m 1,0,-1
 0 128 l 1,1,-1
 128 128 l 1,2,-1
 128 -128 l 1,3,-1
 0 -128 l 1,0,-1
256 -128 m 1,4,-1
 256 128 l 1,5,-1
 384 128 l 1,6,-1
 384 -128 l 1,7,-1
 256 -128 l 1,4,-1
128 128 m 1,8,-1
 128 256 l 1,9,-1
 256 256 l 1,10,-1
 256 128 l 1,11,-1
 128 128 l 1,8,-1
0 256 m 1,12,-1
 0 512 l 1,13,-1
 128 512 l 1,14,-1
 128 256 l 1,15,-1
 0 256 l 1,12,-1
256 256 m 1,16,-1
 256 512 l 1,17,-1
 384 512 l 1,18,-1
 384 256 l 1,19,-1
 256 256 l 1,16,-1
EndSplineSet
EndChar

StartChar: psi
Encoding: 968 968 265
Width: 768
GlyphClass: 1
Flags: W
LayerCount: 2
Fore
SplineSet
256 -128 m 1,0,-1
 256 0 l 1,1,-1
 0 0 l 1,2,-1
 0 512 l 1,3,-1
 128 512 l 1,4,-1
 128 128 l 1,5,-1
 256 128 l 1,6,-1
 256 512 l 1,7,-1
 384 512 l 1,8,-1
 384 128 l 1,9,-1
 512 128 l 1,10,-1
 512 512 l 1,11,-1
 640 512 l 1,12,-1
 640 0 l 1,13,-1
 384 0 l 1,14,-1
 384 -128 l 1,15,-1
 256 -128 l 1,0,-1
EndSplineSet
EndChar

StartChar: omega
Encoding: 969 969 266
Width: 768
GlyphClass: 1
Flags: W
LayerCount: 2
Fore
SplineSet
0 0 m 1,0,-1
 0 512 l 1,1,-1
 128 512 l 1,2,-1
 128 128 l 1,3,-1
 256 128 l 1,4,-1
 256 256 l 1,5,-1
 384 256 l 1,6,-1
 384 128 l 1,7,-1
 512 128 l 1,8,-1
 512 512 l 1,9,-1
 640 512 l 1,10,-1
 640 0 l 1,11,-1
 0 0 l 1,0,-1
EndSplineSet
EndChar

StartChar: uni0401
Encoding: 1025 1025 267
Width: 512
GlyphClass: 1
Flags: W
LayerCount: 2
Fore
SplineSet
0 0 m 1,0,-1
 0 512 l 1,1,-1
 384 512 l 1,2,-1
 384 384 l 1,3,-1
 256 384 l 1,4,-1
 256 256 l 1,5,-1
 128 256 l 1,6,-1
 128 128 l 1,7,-1
 384 128 l 1,8,-1
 384 0 l 1,9,-1
 0 0 l 1,0,-1
0 640 m 1,10,-1
 0 768 l 1,11,-1
 128 768 l 1,12,-1
 128 640 l 1,13,-1
 0 640 l 1,10,-1
256 640 m 1,14,-1
 256 768 l 1,15,-1
 384 768 l 1,16,-1
 384 640 l 1,17,-1
 256 640 l 1,14,-1
EndSplineSet
EndChar

StartChar: uni0410
Encoding: 1040 1040 268
Width: 512
GlyphClass: 1
Flags: W
LayerCount: 2
Fore
SplineSet
256 384 m 1,0,-1
 256 512 l 1,1,-1
 128 512 l 1,2,-1
 128 384 l 1,3,-1
 256 384 l 1,0,-1
0 0 m 1,4,-1
 0 640 l 1,5,-1
 384 640 l 1,6,-1
 384 0 l 1,7,-1
 256 0 l 1,8,-1
 256 256 l 1,9,-1
 128 256 l 1,10,-1
 128 0 l 1,11,-1
 0 0 l 1,4,-1
EndSplineSet
EndChar

StartChar: uni0411
Encoding: 1041 1041 269
Width: 512
GlyphClass: 1
Flags: W
LayerCount: 2
Fore
SplineSet
256 128 m 1,0,-1
 256 256 l 1,1,-1
 128 256 l 1,2,-1
 128 128 l 1,3,-1
 256 128 l 1,0,-1
0 0 m 1,4,-1
 0 640 l 1,5,-1
 384 640 l 1,6,-1
 384 512 l 1,7,-1
 128 512 l 1,8,-1
 128 384 l 1,9,-1
 384 384 l 1,10,-1
 384 0 l 1,11,-1
 0 0 l 1,4,-1
EndSplineSet
EndChar

StartChar: uni0412
Encoding: 1042 1042 270
Width: 512
GlyphClass: 1
Flags: W
LayerCount: 2
Fore
SplineSet
0 0 m 1,0,-1
 0 640 l 1,1,-1
 384 640 l 1,2,-1
 384 384 l 1,3,-1
 256 384 l 1,4,-1
 256 512 l 1,5,-1
 128 512 l 1,6,-1
 128 384 l 1,7,-1
 256 384 l 1,8,-1
 256 256 l 1,9,-1
 128 256 l 1,10,-1
 128 128 l 1,11,-1
 256 128 l 1,12,-1
 256 256 l 1,13,-1
 384 256 l 1,14,-1
 384 0 l 1,15,-1
 0 0 l 1,0,-1
EndSplineSet
EndChar

StartChar: uni0413
Encoding: 1043 1043 271
Width: 512
GlyphClass: 1
Flags: W
LayerCount: 2
Fore
SplineSet
0 0 m 1,0,-1
 0 640 l 1,1,-1
 384 640 l 1,2,-1
 384 512 l 1,3,-1
 128 512 l 1,4,-1
 128 0 l 1,5,-1
 0 0 l 1,0,-1
EndSplineSet
EndChar

StartChar: uni0414
Encoding: 1044 1044 272
Width: 512
GlyphClass: 1
Flags: W
LayerCount: 2
Fore
SplineSet
0 0 m 1,0,-1
 0 512 l 1,1,-1
 128 512 l 1,2,-1
 128 128 l 1,3,-1
 256 128 l 1,4,-1
 256 512 l 1,5,-1
 384 512 l 1,6,-1
 384 0 l 1,7,-1
 0 0 l 1,0,-1
128 512 m 1,8,-1
 128 640 l 1,9,-1
 256 640 l 1,10,-1
 256 512 l 1,11,-1
 128 512 l 1,8,-1
EndSplineSet
EndChar

StartChar: uni0415
Encoding: 1045 1045 273
Width: 512
GlyphClass: 1
Flags: W
LayerCount: 2
Fore
SplineSet
0 0 m 1,0,-1
 0 640 l 1,1,-1
 384 640 l 1,2,-1
 384 512 l 1,3,-1
 128 512 l 1,4,-1
 128 384 l 1,5,-1
 384 384 l 1,6,-1
 384 256 l 1,7,-1
 128 256 l 1,8,-1
 128 128 l 1,9,-1
 384 128 l 1,10,-1
 384 0 l 1,11,-1
 0 0 l 1,0,-1
EndSplineSet
EndChar

StartChar: uni0416
Encoding: 1046 1046 274
Width: 768
GlyphClass: 1
Flags: W
LayerCount: 2
Fore
SplineSet
0 0 m 1,0,-1
 0 256 l 1,1,-1
 128 256 l 1,2,-1
 128 0 l 1,3,-1
 0 0 l 1,0,-1
512 0 m 1,4,-1
 512 256 l 1,5,-1
 640 256 l 1,6,-1
 640 0 l 1,7,-1
 512 0 l 1,4,-1
0 384 m 1,8,-1
 0 640 l 1,9,-1
 128 640 l 1,10,-1
 128 384 l 1,11,-1
 0 384 l 1,8,-1
256 0 m 1,12,-1
 256 256 l 1,13,-1
 128 256 l 1,14,-1
 128 384 l 1,15,-1
 256 384 l 1,16,-1
 256 640 l 1,17,-1
 384 640 l 1,18,-1
 384 384 l 1,19,-1
 512 384 l 1,20,-1
 512 256 l 1,21,-1
 384 256 l 1,22,-1
 384 0 l 1,23,-1
 256 0 l 1,12,-1
512 384 m 1,24,-1
 512 640 l 1,25,-1
 640 640 l 1,26,-1
 640 384 l 1,27,-1
 512 384 l 1,24,-1
EndSplineSet
EndChar

StartChar: uni0417
Encoding: 1047 1047 275
Width: 512
GlyphClass: 1
Flags: W
LayerCount: 2
Fore
SplineSet
0 0 m 1,0,-1
 0 128 l 1,1,-1
 256 128 l 1,2,-1
 256 256 l 1,3,-1
 384 256 l 1,4,-1
 384 0 l 1,5,-1
 0 0 l 1,0,-1
0 256 m 1,6,-1
 0 384 l 1,7,-1
 256 384 l 1,8,-1
 256 256 l 1,9,-1
 0 256 l 1,6,-1
256 384 m 1,10,-1
 256 512 l 1,11,-1
 0 512 l 1,12,-1
 0 640 l 1,13,-1
 384 640 l 1,14,-1
 384 384 l 1,15,-1
 256 384 l 1,10,-1
EndSplineSet
EndChar

StartChar: uni0418
Encoding: 1048 1048 276
Width: 512
GlyphClass: 1
Flags: W
LayerCount: 2
Fore
SplineSet
0 0 m 1,0,-1
 0 640 l 1,1,-1
 128 640 l 1,2,-1
 128 128 l 1,3,-1
 256 128 l 1,4,-1
 256 640 l 1,5,-1
 384 640 l 1,6,-1
 384 0 l 1,7,-1
 0 0 l 1,0,-1
EndSplineSet
EndChar

StartChar: uni0419
Encoding: 1049 1049 277
Width: 512
GlyphClass: 1
Flags: W
LayerCount: 2
Fore
SplineSet
0 0 m 1,0,-1
 0 512 l 1,1,-1
 128 512 l 1,2,-1
 128 128 l 1,3,-1
 256 128 l 1,4,-1
 256 512 l 1,5,-1
 384 512 l 1,6,-1
 384 0 l 1,7,-1
 0 0 l 1,0,-1
0 640 m 1,8,-1
 0 768 l 1,9,-1
 384 768 l 1,10,-1
 384 640 l 1,11,-1
 0 640 l 1,8,-1
EndSplineSet
EndChar

StartChar: uni041A
Encoding: 1050 1050 278
Width: 512
GlyphClass: 1
Flags: W
LayerCount: 2
Fore
SplineSet
256 0 m 1,0,-1
 256 256 l 1,1,-1
 384 256 l 1,2,-1
 384 0 l 1,3,-1
 256 0 l 1,0,-1
0 0 m 1,4,-1
 0 640 l 1,5,-1
 128 640 l 1,6,-1
 128 384 l 1,7,-1
 256 384 l 1,8,-1
 256 256 l 1,9,-1
 128 256 l 1,10,-1
 128 0 l 1,11,-1
 0 0 l 1,4,-1
256 384 m 1,12,-1
 256 640 l 1,13,-1
 384 640 l 1,14,-1
 384 384 l 1,15,-1
 256 384 l 1,12,-1
EndSplineSet
EndChar

StartChar: uni041B
Encoding: 1051 1051 279
Width: 640
GlyphClass: 1
Flags: W
LayerCount: 2
Fore
SplineSet
0 0 m 1,0,-1
 0 128 l 1,1,-1
 128 128 l 1,2,-1
 128 0 l 1,3,-1
 0 0 l 1,0,-1
384 0 m 1,4,-1
 384 512 l 1,5,-1
 256 512 l 1,6,-1
 256 128 l 1,7,-1
 128 128 l 1,8,-1
 128 640 l 1,9,-1
 512 640 l 1,10,-1
 512 0 l 1,11,-1
 384 0 l 1,4,-1
EndSplineSet
EndChar

StartChar: uni041C
Encoding: 1052 1052 280
Width: 768
GlyphClass: 1
Flags: W
LayerCount: 2
Fore
SplineSet
0 0 m 1,0,-1
 0 640 l 1,1,-1
 640 640 l 1,2,-1
 640 0 l 1,3,-1
 512 0 l 1,4,-1
 512 512 l 1,5,-1
 384 512 l 1,6,-1
 384 0 l 1,7,-1
 256 0 l 1,8,-1
 256 512 l 1,9,-1
 128 512 l 1,10,-1
 128 0 l 1,11,-1
 0 0 l 1,0,-1
EndSplineSet
EndChar

StartChar: uni041D
Encoding: 1053 1053 281
Width: 512
GlyphClass: 1
Flags: W
LayerCount: 2
Fore
SplineSet
0 0 m 1,0,-1
 0 640 l 1,1,-1
 128 640 l 1,2,-1
 128 384 l 1,3,-1
 256 384 l 1,4,-1
 256 640 l 1,5,-1
 384 640 l 1,6,-1
 384 0 l 1,7,-1
 256 0 l 1,8,-1
 256 256 l 1,9,-1
 128 256 l 1,10,-1
 128 0 l 1,11,-1
 0 0 l 1,0,-1
EndSplineSet
EndChar

StartChar: uni041E
Encoding: 1054 1054 282
Width: 512
GlyphClass: 1
Flags: W
LayerCount: 2
Fore
SplineSet
256 128 m 1,0,-1
 256 512 l 1,1,-1
 128 512 l 1,2,-1
 128 128 l 1,3,-1
 256 128 l 1,0,-1
0 0 m 1,4,-1
 0 640 l 1,5,-1
 384 640 l 1,6,-1
 384 0 l 1,7,-1
 0 0 l 1,4,-1
EndSplineSet
EndChar

StartChar: uni041F
Encoding: 1055 1055 283
Width: 512
GlyphClass: 1
Flags: W
LayerCount: 2
Fore
SplineSet
0 0 m 1,0,-1
 0 640 l 1,1,-1
 384 640 l 1,2,-1
 384 0 l 1,3,-1
 256 0 l 1,4,-1
 256 512 l 1,5,-1
 128 512 l 1,6,-1
 128 0 l 1,7,-1
 0 0 l 1,0,-1
EndSplineSet
EndChar

StartChar: uni0420
Encoding: 1056 1056 284
Width: 512
GlyphClass: 1
Flags: W
LayerCount: 2
Fore
SplineSet
256 384 m 1,0,-1
 256 512 l 1,1,-1
 128 512 l 1,2,-1
 128 384 l 1,3,-1
 256 384 l 1,0,-1
0 0 m 1,4,-1
 0 640 l 1,5,-1
 384 640 l 1,6,-1
 384 256 l 1,7,-1
 128 256 l 1,8,-1
 128 0 l 1,9,-1
 0 0 l 1,4,-1
EndSplineSet
EndChar

StartChar: uni0421
Encoding: 1057 1057 285
Width: 512
GlyphClass: 1
Flags: W
LayerCount: 2
Fore
SplineSet
0 0 m 1,0,-1
 0 640 l 1,1,-1
 384 640 l 1,2,-1
 384 512 l 1,3,-1
 128 512 l 1,4,-1
 128 128 l 1,5,-1
 384 128 l 1,6,-1
 384 0 l 1,7,-1
 0 0 l 1,0,-1
EndSplineSet
EndChar

StartChar: uni0422
Encoding: 1058 1058 286
Width: 512
GlyphClass: 1
Flags: W
LayerCount: 2
Fore
SplineSet
128 0 m 1,0,-1
 128 512 l 1,1,-1
 0 512 l 1,2,-1
 0 640 l 1,3,-1
 384 640 l 1,4,-1
 384 512 l 1,5,-1
 256 512 l 1,6,-1
 256 0 l 1,7,-1
 128 0 l 1,0,-1
EndSplineSet
EndChar

StartChar: uni0423
Encoding: 1059 1059 287
Width: 512
GlyphClass: 1
Flags: W
LayerCount: 2
Fore
SplineSet
0 0 m 1,0,-1
 0 128 l 1,1,-1
 256 128 l 1,2,-1
 256 256 l 1,3,-1
 0 256 l 1,4,-1
 0 640 l 1,5,-1
 128 640 l 1,6,-1
 128 384 l 1,7,-1
 256 384 l 1,8,-1
 256 640 l 1,9,-1
 384 640 l 1,10,-1
 384 0 l 1,11,-1
 0 0 l 1,0,-1
EndSplineSet
EndChar

StartChar: uni0424
Encoding: 1060 1060 288
Width: 512
GlyphClass: 1
Flags: W
LayerCount: 2
Fore
SplineSet
256 256 m 1,0,-1
 256 384 l 1,1,-1
 128 384 l 1,2,-1
 128 256 l 1,3,-1
 256 256 l 1,0,-1
128 0 m 1,4,-1
 128 128 l 1,5,-1
 0 128 l 1,6,-1
 0 512 l 1,7,-1
 128 512 l 1,8,-1
 128 640 l 1,9,-1
 256 640 l 1,10,-1
 256 512 l 1,11,-1
 384 512 l 1,12,-1
 384 128 l 1,13,-1
 256 128 l 1,14,-1
 256 0 l 1,15,-1
 128 0 l 1,4,-1
EndSplineSet
EndChar

StartChar: uni0425
Encoding: 1061 1061 289
Width: 512
GlyphClass: 1
Flags: W
LayerCount: 2
Fore
SplineSet
0 0 m 1,0,-1
 0 256 l 1,1,-1
 128 256 l 1,2,-1
 128 0 l 1,3,-1
 0 0 l 1,0,-1
256 0 m 1,4,-1
 256 256 l 1,5,-1
 384 256 l 1,6,-1
 384 0 l 1,7,-1
 256 0 l 1,4,-1
128 256 m 1,8,-1
 128 384 l 1,9,-1
 256 384 l 1,10,-1
 256 256 l 1,11,-1
 128 256 l 1,8,-1
0 384 m 1,12,-1
 0 640 l 1,13,-1
 128 640 l 1,14,-1
 128 384 l 1,15,-1
 0 384 l 1,12,-1
256 384 m 1,16,-1
 256 640 l 1,17,-1
 384 640 l 1,18,-1
 384 384 l 1,19,-1
 256 384 l 1,16,-1
EndSplineSet
EndChar

StartChar: uni0426
Encoding: 1062 1062 290
Width: 512
GlyphClass: 1
Flags: W
LayerCount: 2
Fore
SplineSet
256 -128 m 1,0,-1
 256 0 l 1,1,-1
 0 0 l 1,2,-1
 0 640 l 1,3,-1
 128 640 l 1,4,-1
 128 128 l 1,5,-1
 256 128 l 1,6,-1
 256 640 l 1,7,-1
 384 640 l 1,8,-1
 384 -128 l 1,9,-1
 256 -128 l 1,0,-1
EndSplineSet
EndChar

StartChar: uni0427
Encoding: 1063 1063 291
Width: 512
GlyphClass: 1
Flags: W
LayerCount: 2
Fore
SplineSet
256 0 m 1,0,-1
 256 256 l 1,1,-1
 0 256 l 1,2,-1
 0 640 l 1,3,-1
 128 640 l 1,4,-1
 128 384 l 1,5,-1
 256 384 l 1,6,-1
 256 640 l 1,7,-1
 384 640 l 1,8,-1
 384 0 l 1,9,-1
 256 0 l 1,0,-1
EndSplineSet
EndChar

StartChar: uni0428
Encoding: 1064 1064 292
Width: 768
GlyphClass: 1
Flags: W
LayerCount: 2
Fore
SplineSet
0 0 m 1,0,-1
 0 640 l 1,1,-1
 128 640 l 1,2,-1
 128 128 l 1,3,-1
 256 128 l 1,4,-1
 256 640 l 1,5,-1
 384 640 l 1,6,-1
 384 128 l 1,7,-1
 512 128 l 1,8,-1
 512 640 l 1,9,-1
 640 640 l 1,10,-1
 640 0 l 1,11,-1
 0 0 l 1,0,-1
EndSplineSet
EndChar

StartChar: uni0429
Encoding: 1065 1065 293
Width: 768
GlyphClass: 1
Flags: W
LayerCount: 2
Fore
SplineSet
512 -128 m 1,0,-1
 512 0 l 1,1,-1
 0 0 l 1,2,-1
 0 640 l 1,3,-1
 128 640 l 1,4,-1
 128 128 l 1,5,-1
 256 128 l 1,6,-1
 256 640 l 1,7,-1
 384 640 l 1,8,-1
 384 128 l 1,9,-1
 512 128 l 1,10,-1
 512 640 l 1,11,-1
 640 640 l 1,12,-1
 640 -128 l 1,13,-1
 512 -128 l 1,0,-1
EndSplineSet
EndChar

StartChar: uni042A
Encoding: 1066 1066 294
Width: 640
GlyphClass: 1
Flags: W
LayerCount: 2
Fore
SplineSet
384 128 m 1,0,-1
 384 256 l 1,1,-1
 256 256 l 1,2,-1
 256 128 l 1,3,-1
 384 128 l 1,0,-1
128 0 m 1,4,-1
 128 512 l 1,5,-1
 0 512 l 1,6,-1
 0 640 l 1,7,-1
 256 640 l 1,8,-1
 256 384 l 1,9,-1
 512 384 l 1,10,-1
 512 0 l 1,11,-1
 128 0 l 1,4,-1
EndSplineSet
EndChar

StartChar: uni042B
Encoding: 1067 1067 295
Width: 768
GlyphClass: 1
Flags: W
LayerCount: 2
Fore
SplineSet
256 128 m 1,0,-1
 256 256 l 1,1,-1
 128 256 l 1,2,-1
 128 128 l 1,3,-1
 256 128 l 1,0,-1
0 0 m 1,4,-1
 0 640 l 1,5,-1
 128 640 l 1,6,-1
 128 384 l 1,7,-1
 384 384 l 1,8,-1
 384 0 l 1,9,-1
 0 0 l 1,4,-1
512 0 m 1,10,-1
 512 640 l 1,11,-1
 640 640 l 1,12,-1
 640 0 l 1,13,-1
 512 0 l 1,10,-1
EndSplineSet
EndChar

StartChar: uni042C
Encoding: 1068 1068 296
Width: 512
GlyphClass: 1
Flags: W
LayerCount: 2
Fore
SplineSet
256 128 m 1,0,-1
 256 256 l 1,1,-1
 128 256 l 1,2,-1
 128 128 l 1,3,-1
 256 128 l 1,0,-1
0 0 m 1,4,-1
 0 640 l 1,5,-1
 128 640 l 1,6,-1
 128 384 l 1,7,-1
 384 384 l 1,8,-1
 384 0 l 1,9,-1
 0 0 l 1,4,-1
EndSplineSet
EndChar

StartChar: uni042D
Encoding: 1069 1069 297
Width: 512
GlyphClass: 1
Flags: W
LayerCount: 2
Fore
SplineSet
0 0 m 1,0,-1
 0 128 l 1,1,-1
 256 128 l 1,2,-1
 256 0 l 1,3,-1
 0 0 l 1,0,-1
256 128 m 1,4,-1
 256 256 l 1,5,-1
 0 256 l 1,6,-1
 0 384 l 1,7,-1
 256 384 l 1,8,-1
 256 512 l 1,9,-1
 384 512 l 1,10,-1
 384 128 l 1,11,-1
 256 128 l 1,4,-1
0 512 m 1,12,-1
 0 640 l 1,13,-1
 256 640 l 1,14,-1
 256 512 l 1,15,-1
 0 512 l 1,12,-1
EndSplineSet
EndChar

StartChar: uni042E
Encoding: 1070 1070 298
Width: 768
GlyphClass: 1
Flags: W
LayerCount: 2
Fore
SplineSet
512 128 m 1,0,-1
 512 512 l 1,1,-1
 384 512 l 1,2,-1
 384 128 l 1,3,-1
 512 128 l 1,0,-1
0 0 m 1,4,-1
 0 640 l 1,5,-1
 128 640 l 1,6,-1
 128 384 l 1,7,-1
 256 384 l 1,8,-1
 256 640 l 1,9,-1
 640 640 l 1,10,-1
 640 0 l 1,11,-1
 256 0 l 1,12,-1
 256 256 l 1,13,-1
 128 256 l 1,14,-1
 128 0 l 1,15,-1
 0 0 l 1,4,-1
EndSplineSet
EndChar

StartChar: uni042F
Encoding: 1071 1071 299
Width: 512
GlyphClass: 1
Flags: W
LayerCount: 2
Fore
SplineSet
0 0 m 1,0,-1
 0 256 l 1,1,-1
 128 256 l 1,2,-1
 128 0 l 1,3,-1
 0 0 l 1,0,-1
256 0 m 1,4,-1
 256 256 l 1,5,-1
 128 256 l 1,6,-1
 128 384 l 1,7,-1
 256 384 l 1,8,-1
 256 512 l 1,9,-1
 128 512 l 1,10,-1
 128 384 l 1,11,-1
 0 384 l 1,12,-1
 0 640 l 1,13,-1
 384 640 l 1,14,-1
 384 0 l 1,15,-1
 256 0 l 1,4,-1
EndSplineSet
EndChar

StartChar: uni0430
Encoding: 1072 1072 300
Width: 512
GlyphClass: 1
Flags: W
LayerCount: 2
Fore
SplineSet
0 128 m 1,0,-1
 0 384 l 1,1,-1
 128 384 l 1,2,-1
 128 128 l 1,3,-1
 0 128 l 1,0,-1
128 0 m 1,4,-1
 128 128 l 1,5,-1
 256 128 l 1,6,-1
 256 384 l 1,7,-1
 128 384 l 1,8,-1
 128 512 l 1,9,-1
 384 512 l 1,10,-1
 384 0 l 1,11,-1
 128 0 l 1,4,-1
EndSplineSet
EndChar

StartChar: uni0431
Encoding: 1073 1073 301
Width: 512
GlyphClass: 1
Flags: W
LayerCount: 2
Fore
SplineSet
256 128 m 1,0,-1
 256 256 l 1,1,-1
 128 256 l 1,2,-1
 128 128 l 1,3,-1
 256 128 l 1,0,-1
0 0 m 1,4,-1
 0 512 l 1,5,-1
 128 512 l 1,6,-1
 128 384 l 1,7,-1
 384 384 l 1,8,-1
 384 0 l 1,9,-1
 0 0 l 1,4,-1
128 512 m 1,10,-1
 128 640 l 1,11,-1
 384 640 l 1,12,-1
 384 512 l 1,13,-1
 128 512 l 1,10,-1
EndSplineSet
EndChar

StartChar: uni0432
Encoding: 1074 1074 302
Width: 512
GlyphClass: 1
Flags: W
LayerCount: 2
Fore
SplineSet
0 0 m 1,0,-1
 0 512 l 1,1,-1
 256 512 l 1,2,-1
 256 384 l 1,3,-1
 384 384 l 1,4,-1
 384 128 l 1,5,-1
 256 128 l 1,6,-1
 256 256 l 1,7,-1
 128 256 l 1,8,-1
 128 128 l 1,9,-1
 256 128 l 1,10,-1
 256 0 l 1,11,-1
 0 0 l 1,0,-1
EndSplineSet
EndChar

StartChar: uni0433
Encoding: 1075 1075 303
Width: 512
GlyphClass: 1
Flags: W
LayerCount: 2
Fore
SplineSet
0 0 m 1,0,-1
 0 512 l 1,1,-1
 384 512 l 1,2,-1
 384 384 l 1,3,-1
 128 384 l 1,4,-1
 128 0 l 1,5,-1
 0 0 l 1,0,-1
EndSplineSet
EndChar

StartChar: uni0434
Encoding: 1076 1076 304
Width: 512
GlyphClass: 1
Flags: W
LayerCount: 2
Fore
SplineSet
0 0 m 1,0,-1
 0 384 l 1,1,-1
 128 384 l 1,2,-1
 128 128 l 1,3,-1
 256 128 l 1,4,-1
 256 384 l 1,5,-1
 384 384 l 1,6,-1
 384 0 l 1,7,-1
 0 0 l 1,0,-1
128 384 m 1,8,-1
 128 512 l 1,9,-1
 256 512 l 1,10,-1
 256 384 l 1,11,-1
 128 384 l 1,8,-1
EndSplineSet
EndChar

StartChar: uni0435
Encoding: 1077 1077 305
Width: 512
GlyphClass: 1
Flags: W
LayerCount: 2
Fore
SplineSet
128 0 m 1,0,-1
 128 128 l 1,1,-1
 0 128 l 1,2,-1
 0 384 l 1,3,-1
 128 384 l 1,4,-1
 128 256 l 1,5,-1
 256 256 l 1,6,-1
 256 128 l 1,7,-1
 384 128 l 1,8,-1
 384 0 l 1,9,-1
 128 0 l 1,0,-1
256 256 m 1,10,-1
 256 384 l 1,11,-1
 384 384 l 1,12,-1
 384 256 l 1,13,-1
 256 256 l 1,10,-1
128 384 m 1,14,-1
 128 512 l 1,15,-1
 256 512 l 1,16,-1
 256 384 l 1,17,-1
 128 384 l 1,14,-1
EndSplineSet
EndChar

StartChar: uni0436
Encoding: 1078 1078 306
Width: 768
GlyphClass: 1
Flags: W
LayerCount: 2
Fore
SplineSet
0 0 m 1,0,-1
 0 256 l 1,1,-1
 128 256 l 1,2,-1
 128 0 l 1,3,-1
 0 0 l 1,0,-1
512 0 m 1,4,-1
 512 256 l 1,5,-1
 640 256 l 1,6,-1
 640 0 l 1,7,-1
 512 0 l 1,4,-1
0 384 m 1,8,-1
 0 512 l 1,9,-1
 128 512 l 1,10,-1
 128 384 l 1,11,-1
 0 384 l 1,8,-1
256 0 m 1,12,-1
 256 256 l 1,13,-1
 128 256 l 1,14,-1
 128 384 l 1,15,-1
 256 384 l 1,16,-1
 256 512 l 1,17,-1
 384 512 l 1,18,-1
 384 384 l 1,19,-1
 512 384 l 1,20,-1
 512 256 l 1,21,-1
 384 256 l 1,22,-1
 384 0 l 1,23,-1
 256 0 l 1,12,-1
512 384 m 1,24,-1
 512 512 l 1,25,-1
 640 512 l 1,26,-1
 640 384 l 1,27,-1
 512 384 l 1,24,-1
EndSplineSet
EndChar

StartChar: uni0437
Encoding: 1079 1079 307
Width: 512
GlyphClass: 1
Flags: W
LayerCount: 2
Fore
SplineSet
0 0 m 1,0,-1
 0 128 l 1,1,-1
 256 128 l 1,2,-1
 256 256 l 1,3,-1
 128 256 l 1,4,-1
 128 384 l 1,5,-1
 0 384 l 1,6,-1
 0 512 l 1,7,-1
 384 512 l 1,8,-1
 384 0 l 1,9,-1
 0 0 l 1,0,-1
EndSplineSet
EndChar

StartChar: uni0438
Encoding: 1080 1080 308
Width: 512
GlyphClass: 1
Flags: W
LayerCount: 2
Fore
SplineSet
0 0 m 1,0,-1
 0 512 l 1,1,-1
 128 512 l 1,2,-1
 128 128 l 1,3,-1
 256 128 l 1,4,-1
 256 512 l 1,5,-1
 384 512 l 1,6,-1
 384 0 l 1,7,-1
 0 0 l 1,0,-1
EndSplineSet
EndChar

StartChar: uni0439
Encoding: 1081 1081 309
Width: 512
GlyphClass: 1
Flags: W
LayerCount: 2
Fore
SplineSet
0 0 m 1,0,-1
 0 384 l 1,1,-1
 128 384 l 1,2,-1
 128 128 l 1,3,-1
 256 128 l 1,4,-1
 256 384 l 1,5,-1
 384 384 l 1,6,-1
 384 0 l 1,7,-1
 0 0 l 1,0,-1
0 512 m 1,8,-1
 0 640 l 1,9,-1
 384 640 l 1,10,-1
 384 512 l 1,11,-1
 0 512 l 1,8,-1
EndSplineSet
EndChar

StartChar: uni043A
Encoding: 1082 1082 310
Width: 512
GlyphClass: 1
Flags: W
LayerCount: 2
Fore
SplineSet
256 0 m 1,0,-1
 256 256 l 1,1,-1
 384 256 l 1,2,-1
 384 0 l 1,3,-1
 256 0 l 1,0,-1
0 0 m 1,4,-1
 0 512 l 1,5,-1
 128 512 l 1,6,-1
 128 384 l 1,7,-1
 256 384 l 1,8,-1
 256 256 l 1,9,-1
 128 256 l 1,10,-1
 128 0 l 1,11,-1
 0 0 l 1,4,-1
256 384 m 1,12,-1
 256 512 l 1,13,-1
 384 512 l 1,14,-1
 384 384 l 1,15,-1
 256 384 l 1,12,-1
EndSplineSet
EndChar

StartChar: uni043B
Encoding: 1083 1083 311
Width: 640
GlyphClass: 1
Flags: W
LayerCount: 2
Fore
SplineSet
0 0 m 1,0,-1
 0 128 l 1,1,-1
 128 128 l 1,2,-1
 128 0 l 1,3,-1
 0 0 l 1,0,-1
384 0 m 1,4,-1
 384 384 l 1,5,-1
 256 384 l 1,6,-1
 256 128 l 1,7,-1
 128 128 l 1,8,-1
 128 512 l 1,9,-1
 512 512 l 1,10,-1
 512 0 l 1,11,-1
 384 0 l 1,4,-1
EndSplineSet
EndChar

StartChar: uni043C
Encoding: 1084 1084 312
Width: 768
GlyphClass: 1
Flags: W
LayerCount: 2
Fore
SplineSet
256 0 m 1,0,-1
 256 384 l 1,1,-1
 384 384 l 1,2,-1
 384 0 l 1,3,-1
 256 0 l 1,0,-1
0 0 m 1,4,-1
 0 512 l 1,5,-1
 256 512 l 1,6,-1
 256 384 l 1,7,-1
 128 384 l 1,8,-1
 128 0 l 1,9,-1
 0 0 l 1,4,-1
512 0 m 1,10,-1
 512 384 l 1,11,-1
 384 384 l 1,12,-1
 384 512 l 1,13,-1
 640 512 l 1,14,-1
 640 0 l 1,15,-1
 512 0 l 1,10,-1
EndSplineSet
EndChar

StartChar: uni043D
Encoding: 1085 1085 313
Width: 512
GlyphClass: 1
Flags: W
LayerCount: 2
Fore
SplineSet
0 0 m 1,0,-1
 0 512 l 1,1,-1
 128 512 l 1,2,-1
 128 384 l 1,3,-1
 256 384 l 1,4,-1
 256 512 l 1,5,-1
 384 512 l 1,6,-1
 384 0 l 1,7,-1
 256 0 l 1,8,-1
 256 256 l 1,9,-1
 128 256 l 1,10,-1
 128 0 l 1,11,-1
 0 0 l 1,0,-1
EndSplineSet
EndChar

StartChar: uni043E
Encoding: 1086 1086 314
Width: 512
GlyphClass: 1
Flags: W
LayerCount: 2
Fore
SplineSet
256 128 m 1,0,-1
 256 384 l 1,1,-1
 128 384 l 1,2,-1
 128 128 l 1,3,-1
 256 128 l 1,0,-1
0 0 m 1,4,-1
 0 512 l 1,5,-1
 384 512 l 1,6,-1
 384 0 l 1,7,-1
 0 0 l 1,4,-1
EndSplineSet
EndChar

StartChar: uni043F
Encoding: 1087 1087 315
Width: 512
GlyphClass: 1
Flags: W
LayerCount: 2
Fore
SplineSet
0 0 m 1,0,-1
 0 512 l 1,1,-1
 384 512 l 1,2,-1
 384 0 l 1,3,-1
 256 0 l 1,4,-1
 256 384 l 1,5,-1
 128 384 l 1,6,-1
 128 0 l 1,7,-1
 0 0 l 1,0,-1
EndSplineSet
EndChar

StartChar: uni0440
Encoding: 1088 1088 316
Width: 512
GlyphClass: 1
Flags: W
LayerCount: 2
Fore
SplineSet
256 128 m 1,0,-1
 256 384 l 1,1,-1
 384 384 l 1,2,-1
 384 128 l 1,3,-1
 256 128 l 1,0,-1
0 -128 m 1,4,-1
 0 512 l 1,5,-1
 256 512 l 1,6,-1
 256 384 l 1,7,-1
 128 384 l 1,8,-1
 128 128 l 1,9,-1
 256 128 l 1,10,-1
 256 0 l 1,11,-1
 128 0 l 1,12,-1
 128 -128 l 1,13,-1
 0 -128 l 1,4,-1
EndSplineSet
EndChar

StartChar: uni0441
Encoding: 1089 1089 317
Width: 512
GlyphClass: 1
Flags: W
LayerCount: 2
Fore
SplineSet
0 0 m 1,0,-1
 0 512 l 1,1,-1
 384 512 l 1,2,-1
 384 384 l 1,3,-1
 128 384 l 1,4,-1
 128 128 l 1,5,-1
 384 128 l 1,6,-1
 384 0 l 1,7,-1
 0 0 l 1,0,-1
EndSplineSet
EndChar

StartChar: uni0442
Encoding: 1090 1090 318
Width: 512
GlyphClass: 1
Flags: W
LayerCount: 2
Fore
SplineSet
128 0 m 1,0,-1
 128 384 l 1,1,-1
 0 384 l 1,2,-1
 0 512 l 1,3,-1
 384 512 l 1,4,-1
 384 384 l 1,5,-1
 256 384 l 1,6,-1
 256 0 l 1,7,-1
 128 0 l 1,0,-1
EndSplineSet
EndChar

StartChar: uni0443
Encoding: 1091 1091 319
Width: 512
GlyphClass: 1
Flags: W
LayerCount: 2
Fore
SplineSet
0 -128 m 1,0,-1
 0 0 l 1,1,-1
 256 0 l 1,2,-1
 256 -128 l 1,3,-1
 0 -128 l 1,0,-1
256 0 m 1,4,-1
 256 128 l 1,5,-1
 0 128 l 1,6,-1
 0 512 l 1,7,-1
 128 512 l 1,8,-1
 128 256 l 1,9,-1
 256 256 l 1,10,-1
 256 512 l 1,11,-1
 384 512 l 1,12,-1
 384 0 l 1,13,-1
 256 0 l 1,4,-1
EndSplineSet
EndChar

StartChar: uni0444
Encoding: 1092 1092 320
Width: 512
GlyphClass: 1
Flags: W
LayerCount: 2
Fore
SplineSet
256 128 m 1,0,-1
 256 384 l 1,1,-1
 128 384 l 1,2,-1
 128 128 l 1,3,-1
 256 128 l 1,0,-1
128 -128 m 1,4,-1
 128 0 l 1,5,-1
 0 0 l 1,6,-1
 0 512 l 1,7,-1
 128 512 l 1,8,-1
 128 640 l 1,9,-1
 256 640 l 1,10,-1
 256 512 l 1,11,-1
 384 512 l 1,12,-1
 384 0 l 1,13,-1
 256 0 l 1,14,-1
 256 -128 l 1,15,-1
 128 -128 l 1,4,-1
EndSplineSet
EndChar

StartChar: uni0445
Encoding: 1093 1093 321
Width: 512
GlyphClass: 1
Flags: W
LayerCount: 2
Fore
SplineSet
0 0 m 1,0,-1
 0 256 l 1,1,-1
 128 256 l 1,2,-1
 128 0 l 1,3,-1
 0 0 l 1,0,-1
256 0 m 1,4,-1
 256 256 l 1,5,-1
 384 256 l 1,6,-1
 384 0 l 1,7,-1
 256 0 l 1,4,-1
128 256 m 1,8,-1
 128 384 l 1,9,-1
 256 384 l 1,10,-1
 256 256 l 1,11,-1
 128 256 l 1,8,-1
0 384 m 1,12,-1
 0 512 l 1,13,-1
 128 512 l 1,14,-1
 128 384 l 1,15,-1
 0 384 l 1,12,-1
256 384 m 1,16,-1
 256 512 l 1,17,-1
 384 512 l 1,18,-1
 384 384 l 1,19,-1
 256 384 l 1,16,-1
EndSplineSet
EndChar

StartChar: uni0446
Encoding: 1094 1094 322
Width: 512
GlyphClass: 1
Flags: W
LayerCount: 2
Fore
SplineSet
256 -128 m 1,0,-1
 256 0 l 1,1,-1
 0 0 l 1,2,-1
 0 512 l 1,3,-1
 128 512 l 1,4,-1
 128 128 l 1,5,-1
 256 128 l 1,6,-1
 256 512 l 1,7,-1
 384 512 l 1,8,-1
 384 -128 l 1,9,-1
 256 -128 l 1,0,-1
EndSplineSet
EndChar

StartChar: uni0447
Encoding: 1095 1095 323
Width: 512
GlyphClass: 1
Flags: W
LayerCount: 2
Fore
SplineSet
256 0 m 1,0,-1
 256 256 l 1,1,-1
 0 256 l 1,2,-1
 0 512 l 1,3,-1
 128 512 l 1,4,-1
 128 384 l 1,5,-1
 256 384 l 1,6,-1
 256 512 l 1,7,-1
 384 512 l 1,8,-1
 384 0 l 1,9,-1
 256 0 l 1,0,-1
EndSplineSet
EndChar

StartChar: uni0448
Encoding: 1096 1096 324
Width: 768
GlyphClass: 1
Flags: W
LayerCount: 2
Fore
SplineSet
0 0 m 1,0,-1
 0 512 l 1,1,-1
 128 512 l 1,2,-1
 128 128 l 1,3,-1
 256 128 l 1,4,-1
 256 512 l 1,5,-1
 384 512 l 1,6,-1
 384 128 l 1,7,-1
 512 128 l 1,8,-1
 512 512 l 1,9,-1
 640 512 l 1,10,-1
 640 0 l 1,11,-1
 0 0 l 1,0,-1
EndSplineSet
EndChar

StartChar: uni0449
Encoding: 1097 1097 325
Width: 768
GlyphClass: 1
Flags: W
LayerCount: 2
Fore
SplineSet
512 -128 m 1,0,-1
 512 0 l 1,1,-1
 0 0 l 1,2,-1
 0 512 l 1,3,-1
 128 512 l 1,4,-1
 128 128 l 1,5,-1
 256 128 l 1,6,-1
 256 512 l 1,7,-1
 384 512 l 1,8,-1
 384 128 l 1,9,-1
 512 128 l 1,10,-1
 512 512 l 1,11,-1
 640 512 l 1,12,-1
 640 -128 l 1,13,-1
 512 -128 l 1,0,-1
EndSplineSet
EndChar

StartChar: uni044A
Encoding: 1098 1098 326
Width: 640
GlyphClass: 1
Flags: W
LayerCount: 2
Fore
SplineSet
384 128 m 1,0,-1
 384 256 l 1,1,-1
 512 256 l 1,2,-1
 512 128 l 1,3,-1
 384 128 l 1,0,-1
128 0 m 1,4,-1
 128 384 l 1,5,-1
 0 384 l 1,6,-1
 0 512 l 1,7,-1
 256 512 l 1,8,-1
 256 384 l 1,9,-1
 384 384 l 1,10,-1
 384 256 l 1,11,-1
 256 256 l 1,12,-1
 256 128 l 1,13,-1
 384 128 l 1,14,-1
 384 0 l 1,15,-1
 128 0 l 1,4,-1
EndSplineSet
EndChar

StartChar: uni044B
Encoding: 1099 1099 327
Width: 768
GlyphClass: 1
Flags: W
LayerCount: 2
Fore
SplineSet
256 128 m 1,0,-1
 256 256 l 1,1,-1
 384 256 l 1,2,-1
 384 128 l 1,3,-1
 256 128 l 1,0,-1
0 0 m 1,4,-1
 0 512 l 1,5,-1
 128 512 l 1,6,-1
 128 384 l 1,7,-1
 256 384 l 1,8,-1
 256 256 l 1,9,-1
 128 256 l 1,10,-1
 128 128 l 1,11,-1
 256 128 l 1,12,-1
 256 0 l 1,13,-1
 0 0 l 1,4,-1
512 0 m 1,14,-1
 512 512 l 1,15,-1
 640 512 l 1,16,-1
 640 0 l 1,17,-1
 512 0 l 1,14,-1
EndSplineSet
EndChar

StartChar: uni044C
Encoding: 1100 1100 328
Width: 512
GlyphClass: 1
Flags: W
LayerCount: 2
Fore
SplineSet
256 128 m 1,0,-1
 256 256 l 1,1,-1
 384 256 l 1,2,-1
 384 128 l 1,3,-1
 256 128 l 1,0,-1
0 0 m 1,4,-1
 0 512 l 1,5,-1
 128 512 l 1,6,-1
 128 384 l 1,7,-1
 256 384 l 1,8,-1
 256 256 l 1,9,-1
 128 256 l 1,10,-1
 128 128 l 1,11,-1
 256 128 l 1,12,-1
 256 0 l 1,13,-1
 0 0 l 1,4,-1
EndSplineSet
EndChar

StartChar: uni044D
Encoding: 1101 1101 329
Width: 512
GlyphClass: 1
Flags: W
LayerCount: 2
Fore
SplineSet
0 0 m 1,0,-1
 0 128 l 1,1,-1
 256 128 l 1,2,-1
 256 0 l 1,3,-1
 0 0 l 1,0,-1
256 128 m 1,4,-1
 256 256 l 1,5,-1
 128 256 l 1,6,-1
 128 384 l 1,7,-1
 0 384 l 1,8,-1
 0 512 l 1,9,-1
 256 512 l 1,10,-1
 256 384 l 1,11,-1
 384 384 l 1,12,-1
 384 128 l 1,13,-1
 256 128 l 1,4,-1
EndSplineSet
EndChar

StartChar: uni044E
Encoding: 1102 1102 330
Width: 768
GlyphClass: 1
Flags: W
LayerCount: 2
Fore
SplineSet
512 128 m 1,0,-1
 512 384 l 1,1,-1
 384 384 l 1,2,-1
 384 128 l 1,3,-1
 512 128 l 1,0,-1
0 0 m 1,4,-1
 0 512 l 1,5,-1
 128 512 l 1,6,-1
 128 384 l 1,7,-1
 256 384 l 1,8,-1
 256 512 l 1,9,-1
 640 512 l 1,10,-1
 640 0 l 1,11,-1
 256 0 l 1,12,-1
 256 256 l 1,13,-1
 128 256 l 1,14,-1
 128 0 l 1,15,-1
 0 0 l 1,4,-1
EndSplineSet
EndChar

StartChar: uni044F
Encoding: 1103 1103 331
Width: 512
GlyphClass: 1
Flags: W
LayerCount: 2
Fore
SplineSet
0 0 m 1,0,-1
 0 128 l 1,1,-1
 128 128 l 1,2,-1
 128 0 l 1,3,-1
 0 0 l 1,0,-1
0 256 m 1,4,-1
 0 384 l 1,5,-1
 128 384 l 1,6,-1
 128 256 l 1,7,-1
 0 256 l 1,4,-1
256 0 m 1,8,-1
 256 128 l 1,9,-1
 128 128 l 1,10,-1
 128 256 l 1,11,-1
 256 256 l 1,12,-1
 256 384 l 1,13,-1
 128 384 l 1,14,-1
 128 512 l 1,15,-1
 384 512 l 1,16,-1
 384 0 l 1,17,-1
 256 0 l 1,8,-1
EndSplineSet
EndChar

StartChar: uni0451
Encoding: 1105 1105 332
Width: 512
GlyphClass: 1
Flags: W
LayerCount: 2
Fore
SplineSet
128 0 m 1,0,-1
 128 128 l 1,1,-1
 384 128 l 1,2,-1
 384 0 l 1,3,-1
 128 0 l 1,0,-1
0 128 m 1,4,-1
 0 256 l 1,5,-1
 128 256 l 1,6,-1
 128 128 l 1,7,-1
 0 128 l 1,4,-1
128 256 m 1,8,-1
 128 384 l 1,9,-1
 384 384 l 1,10,-1
 384 256 l 1,11,-1
 128 256 l 1,8,-1
0 512 m 1,12,-1
 0 640 l 1,13,-1
 128 640 l 1,14,-1
 128 512 l 1,15,-1
 0 512 l 1,12,-1
256 512 m 1,16,-1
 256 640 l 1,17,-1
 384 640 l 1,18,-1
 384 512 l 1,19,-1
 256 512 l 1,16,-1
EndSplineSet
EndChar

StartChar: uni0464
Encoding: 1124 1124 333
Width: 512
GlyphClass: 1
Flags: W
LayerCount: 2
Fore
SplineSet
256 256 m 1,0,-1
 256 384 l 1,1,-1
 128 384 l 1,2,-1
 128 256 l 1,3,-1
 256 256 l 1,0,-1
0 0 m 1,4,-1
 0 512 l 1,5,-1
 384 512 l 1,6,-1
 384 0 l 1,7,-1
 256 0 l 1,8,-1
 256 128 l 1,9,-1
 128 128 l 1,10,-1
 128 0 l 1,11,-1
 0 0 l 1,4,-1
128 640 m 1,12,-1
 128 768 l 1,13,-1
 384 768 l 1,14,-1
 384 640 l 1,15,-1
 128 640 l 1,12,-1
EndSplineSet
EndChar

StartChar: uni0465
Encoding: 1125 1125 334
Width: 512
GlyphClass: 1
Flags: W
LayerCount: 2
Fore
SplineSet
0 128 m 1,0,-1
 0 256 l 1,1,-1
 128 256 l 1,2,-1
 128 128 l 1,3,-1
 0 128 l 1,0,-1
128 0 m 1,4,-1
 128 128 l 1,5,-1
 256 128 l 1,6,-1
 256 256 l 1,7,-1
 128 256 l 1,8,-1
 128 384 l 1,9,-1
 384 384 l 1,10,-1
 384 0 l 1,11,-1
 128 0 l 1,4,-1
128 512 m 1,12,-1
 128 640 l 1,13,-1
 384 640 l 1,14,-1
 384 512 l 1,15,-1
 128 512 l 1,12,-1
EndSplineSet
EndChar

StartChar: uni0466
Encoding: 1126 1126 335
Width: 512
GlyphClass: 1
Flags: W
LayerCount: 2
Fore
SplineSet
0 0 m 1,0,-1
 0 512 l 1,1,-1
 384 512 l 1,2,-1
 384 384 l 1,3,-1
 256 384 l 1,4,-1
 256 256 l 1,5,-1
 128 256 l 1,6,-1
 128 128 l 1,7,-1
 384 128 l 1,8,-1
 384 0 l 1,9,-1
 0 0 l 1,0,-1
128 640 m 1,10,-1
 128 768 l 1,11,-1
 384 768 l 1,12,-1
 384 640 l 1,13,-1
 128 640 l 1,10,-1
EndSplineSet
EndChar

StartChar: uni0467
Encoding: 1127 1127 336
Width: 512
GlyphClass: 1
Flags: W
LayerCount: 2
Fore
SplineSet
128 0 m 1,0,-1
 128 128 l 1,1,-1
 384 128 l 1,2,-1
 384 0 l 1,3,-1
 128 0 l 1,0,-1
0 128 m 1,4,-1
 0 256 l 1,5,-1
 128 256 l 1,6,-1
 128 128 l 1,7,-1
 0 128 l 1,4,-1
128 256 m 1,8,-1
 128 384 l 1,9,-1
 384 384 l 1,10,-1
 384 256 l 1,11,-1
 128 256 l 1,8,-1
128 512 m 1,12,-1
 128 640 l 1,13,-1
 384 640 l 1,14,-1
 384 512 l 1,15,-1
 128 512 l 1,12,-1
EndSplineSet
EndChar

StartChar: uni0468
Encoding: 1128 1128 337
Width: 512
GlyphClass: 1
Flags: W
LayerCount: 2
Fore
SplineSet
0 0 m 1,0,-1
 0 512 l 1,1,-1
 128 512 l 1,2,-1
 128 128 l 1,3,-1
 256 128 l 1,4,-1
 256 512 l 1,5,-1
 384 512 l 1,6,-1
 384 0 l 1,7,-1
 0 0 l 1,0,-1
128 640 m 1,8,-1
 128 768 l 1,9,-1
 384 768 l 1,10,-1
 384 640 l 1,11,-1
 128 640 l 1,8,-1
EndSplineSet
EndChar

StartChar: uni0469
Encoding: 1129 1129 338
Width: 512
GlyphClass: 1
Flags: W
LayerCount: 2
Fore
SplineSet
0 0 m 1,0,-1
 0 384 l 1,1,-1
 128 384 l 1,2,-1
 128 128 l 1,3,-1
 256 128 l 1,4,-1
 256 384 l 1,5,-1
 384 384 l 1,6,-1
 384 0 l 1,7,-1
 0 0 l 1,0,-1
128 512 m 1,8,-1
 128 640 l 1,9,-1
 384 640 l 1,10,-1
 384 512 l 1,11,-1
 128 512 l 1,8,-1
EndSplineSet
EndChar

StartChar: uni046A
Encoding: 1130 1130 339
Width: 512
GlyphClass: 1
Flags: W
LayerCount: 2
Fore
SplineSet
256 128 m 1,0,-1
 256 384 l 1,1,-1
 128 384 l 1,2,-1
 128 128 l 1,3,-1
 256 128 l 1,0,-1
0 0 m 1,4,-1
 0 512 l 1,5,-1
 384 512 l 1,6,-1
 384 0 l 1,7,-1
 0 0 l 1,4,-1
128 640 m 1,8,-1
 128 768 l 1,9,-1
 384 768 l 1,10,-1
 384 640 l 1,11,-1
 128 640 l 1,8,-1
EndSplineSet
EndChar

StartChar: uni046B
Encoding: 1131 1131 340
Width: 512
GlyphClass: 1
Flags: W
LayerCount: 2
Fore
SplineSet
256 128 m 1,0,-1
 256 256 l 1,1,-1
 128 256 l 1,2,-1
 128 128 l 1,3,-1
 256 128 l 1,0,-1
0 0 m 1,4,-1
 0 384 l 1,5,-1
 384 384 l 1,6,-1
 384 0 l 1,7,-1
 0 0 l 1,4,-1
128 512 m 1,8,-1
 128 640 l 1,9,-1
 384 640 l 1,10,-1
 384 512 l 1,11,-1
 128 512 l 1,8,-1
EndSplineSet
EndChar

StartChar: uni046C
Encoding: 1132 1132 341
Width: 512
GlyphClass: 1
Flags: W
LayerCount: 2
Fore
SplineSet
0 0 m 1,0,-1
 0 128 l 1,1,-1
 256 128 l 1,2,-1
 256 256 l 1,3,-1
 0 256 l 1,4,-1
 0 512 l 1,5,-1
 128 512 l 1,6,-1
 128 384 l 1,7,-1
 256 384 l 1,8,-1
 256 512 l 1,9,-1
 384 512 l 1,10,-1
 384 0 l 1,11,-1
 0 0 l 1,0,-1
128 640 m 1,12,-1
 128 768 l 1,13,-1
 384 768 l 1,14,-1
 384 640 l 1,15,-1
 128 640 l 1,12,-1
EndSplineSet
EndChar

StartChar: uni046D
Encoding: 1133 1133 342
Width: 512
GlyphClass: 1
Flags: W
LayerCount: 2
Fore
SplineSet
0 -128 m 1,0,-1
 0 0 l 1,1,-1
 256 0 l 1,2,-1
 256 -128 l 1,3,-1
 0 -128 l 1,0,-1
256 0 m 1,4,-1
 256 128 l 1,5,-1
 0 128 l 1,6,-1
 0 384 l 1,7,-1
 128 384 l 1,8,-1
 128 256 l 1,9,-1
 256 256 l 1,10,-1
 256 384 l 1,11,-1
 384 384 l 1,12,-1
 384 0 l 1,13,-1
 256 0 l 1,4,-1
128 512 m 1,14,-1
 128 640 l 1,15,-1
 384 640 l 1,16,-1
 384 512 l 1,17,-1
 128 512 l 1,14,-1
EndSplineSet
EndChar

StartChar: uni046E
Encoding: 1134 1134 343
Width: 512
GlyphClass: 1
Flags: W
LayerCount: 2
Fore
SplineSet
0 0 m 1,0,-1
 0 128 l 1,1,-1
 256 128 l 1,2,-1
 256 0 l 1,3,-1
 0 0 l 1,0,-1
256 128 m 1,4,-1
 256 256 l 1,5,-1
 128 256 l 1,6,-1
 128 384 l 1,7,-1
 0 384 l 1,8,-1
 0 512 l 1,9,-1
 256 512 l 1,10,-1
 256 384 l 1,11,-1
 384 384 l 1,12,-1
 384 128 l 1,13,-1
 256 128 l 1,4,-1
128 640 m 1,14,-1
 128 768 l 1,15,-1
 384 768 l 1,16,-1
 384 640 l 1,17,-1
 128 640 l 1,14,-1
EndSplineSet
EndChar

StartChar: uni046F
Encoding: 1135 1135 344
Width: 512
GlyphClass: 1
Flags: W
LayerCount: 2
Fore
SplineSet
0 0 m 1,0,-1
 0 128 l 1,1,-1
 128 128 l 1,2,-1
 128 256 l 1,3,-1
 0 256 l 1,4,-1
 0 384 l 1,5,-1
 256 384 l 1,6,-1
 256 256 l 1,7,-1
 384 256 l 1,8,-1
 384 128 l 1,9,-1
 256 128 l 1,10,-1
 256 0 l 1,11,-1
 0 0 l 1,0,-1
128 512 m 1,12,-1
 128 640 l 1,13,-1
 384 640 l 1,14,-1
 384 512 l 1,15,-1
 128 512 l 1,12,-1
EndSplineSet
EndChar

StartChar: uni0470
Encoding: 1136 1136 345
Width: 768
GlyphClass: 1
Flags: W
LayerCount: 2
Fore
SplineSet
512 128 m 1,0,-1
 512 384 l 1,1,-1
 384 384 l 1,2,-1
 384 128 l 1,3,-1
 512 128 l 1,0,-1
0 0 m 1,4,-1
 0 512 l 1,5,-1
 128 512 l 1,6,-1
 128 384 l 1,7,-1
 256 384 l 1,8,-1
 256 512 l 1,9,-1
 640 512 l 1,10,-1
 640 0 l 1,11,-1
 256 0 l 1,12,-1
 256 256 l 1,13,-1
 128 256 l 1,14,-1
 128 0 l 1,15,-1
 0 0 l 1,4,-1
256 640 m 1,16,-1
 256 768 l 1,17,-1
 512 768 l 1,18,-1
 512 640 l 1,19,-1
 256 640 l 1,16,-1
EndSplineSet
EndChar

StartChar: uni0471
Encoding: 1137 1137 346
Width: 768
GlyphClass: 1
Flags: W
LayerCount: 2
Fore
SplineSet
512 128 m 1,0,-1
 512 256 l 1,1,-1
 384 256 l 1,2,-1
 384 128 l 1,3,-1
 512 128 l 1,0,-1
0 0 m 1,4,-1
 0 384 l 1,5,-1
 128 384 l 1,6,-1
 128 256 l 1,7,-1
 256 256 l 1,8,-1
 256 384 l 1,9,-1
 640 384 l 1,10,-1
 640 0 l 1,11,-1
 256 0 l 1,12,-1
 256 128 l 1,13,-1
 128 128 l 1,14,-1
 128 0 l 1,15,-1
 0 0 l 1,4,-1
256 512 m 1,16,-1
 256 640 l 1,17,-1
 512 640 l 1,18,-1
 512 512 l 1,19,-1
 256 512 l 1,16,-1
EndSplineSet
EndChar

StartChar: uni0472
Encoding: 1138 1138 347
Width: 512
GlyphClass: 1
Flags: W
LayerCount: 2
Fore
SplineSet
0 0 m 1,0,-1
 0 128 l 1,1,-1
 128 128 l 1,2,-1
 128 0 l 1,3,-1
 0 0 l 1,0,-1
0 256 m 1,4,-1
 0 384 l 1,5,-1
 128 384 l 1,6,-1
 128 256 l 1,7,-1
 0 256 l 1,4,-1
256 0 m 1,8,-1
 256 128 l 1,9,-1
 128 128 l 1,10,-1
 128 256 l 1,11,-1
 256 256 l 1,12,-1
 256 384 l 1,13,-1
 128 384 l 1,14,-1
 128 512 l 1,15,-1
 384 512 l 1,16,-1
 384 0 l 1,17,-1
 256 0 l 1,8,-1
128 640 m 1,18,-1
 128 768 l 1,19,-1
 384 768 l 1,20,-1
 384 640 l 1,21,-1
 128 640 l 1,18,-1
EndSplineSet
EndChar

StartChar: uni0473
Encoding: 1139 1139 348
Width: 512
GlyphClass: 1
Flags: W
LayerCount: 2
Fore
SplineSet
0 0 m 1,0,-1
 0 256 l 1,1,-1
 128 256 l 1,2,-1
 128 384 l 1,3,-1
 384 384 l 1,4,-1
 384 0 l 1,5,-1
 256 0 l 1,6,-1
 256 128 l 1,7,-1
 128 128 l 1,8,-1
 128 0 l 1,9,-1
 0 0 l 1,0,-1
128 512 m 1,10,-1
 128 640 l 1,11,-1
 384 640 l 1,12,-1
 384 512 l 1,13,-1
 128 512 l 1,10,-1
EndSplineSet
EndChar

StartChar: emdash
Encoding: 8212 8212 349
Width: 768
GlyphClass: 1
Flags: W
LayerCount: 2
Fore
SplineSet
0 256 m 1,0,-1
 0 384 l 1,1,-1
 640 384 l 1,2,-1
 640 256 l 1,3,-1
 0 256 l 1,0,-1
EndSplineSet
EndChar

StartChar: quoteleft
Encoding: 8216 8216 350
Width: 384
GlyphClass: 1
Flags: W
LayerCount: 2
Fore
SplineSet
0 384 m 1,0,-1
 0 640 l 1,1,-1
 128 640 l 1,2,-1
 128 512 l 1,3,-1
 256 512 l 1,4,-1
 256 384 l 1,5,-1
 0 384 l 1,0,-1
EndSplineSet
EndChar

StartChar: quoteright
Encoding: 8217 8217 351
Width: 384
GlyphClass: 1
Flags: W
LayerCount: 2
Fore
SplineSet
128 384 m 1,0,-1
 128 512 l 1,1,-1
 0 512 l 1,2,-1
 0 640 l 1,3,-1
 256 640 l 1,4,-1
 256 384 l 1,5,-1
 128 384 l 1,0,-1
EndSplineSet
EndChar

StartChar: quotereversed
Encoding: 8219 8219 352
Width: 384
GlyphClass: 1
Flags: W
LayerCount: 2
Fore
SplineSet
0 384 m 1,0,-1
 0 640 l 1,1,-1
 256 640 l 1,2,-1
 256 512 l 1,3,-1
 128 512 l 1,4,-1
 128 384 l 1,5,-1
 0 384 l 1,0,-1
EndSplineSet
EndChar

StartChar: quotedblleft
Encoding: 8220 8220 353
Width: 512
GlyphClass: 1
Flags: W
LayerCount: 2
Fore
SplineSet
0 384 m 1,0,-1
 0 640 l 1,1,-1
 128 640 l 1,2,-1
 128 384 l 1,3,-1
 0 384 l 1,0,-1
256 384 m 1,4,-1
 256 640 l 1,5,-1
 384 640 l 1,6,-1
 384 384 l 1,7,-1
 256 384 l 1,4,-1
EndSplineSet
EndChar

StartChar: quotedblright
Encoding: 8221 8221 354
Width: 512
GlyphClass: 1
Flags: W
LayerCount: 2
Fore
SplineSet
0 384 m 1,0,-1
 0 640 l 1,1,-1
 128 640 l 1,2,-1
 128 384 l 1,3,-1
 0 384 l 1,0,-1
256 384 m 1,4,-1
 256 640 l 1,5,-1
 384 640 l 1,6,-1
 384 384 l 1,7,-1
 256 384 l 1,4,-1
EndSplineSet
EndChar

StartChar: dagger
Encoding: 8224 8224 355
Width: 512
GlyphClass: 1
Flags: W
LayerCount: 2
Fore
SplineSet
128 0 m 1,0,-1
 128 384 l 1,1,-1
 0 384 l 1,2,-1
 0 512 l 1,3,-1
 128 512 l 1,4,-1
 128 640 l 1,5,-1
 256 640 l 1,6,-1
 256 512 l 1,7,-1
 384 512 l 1,8,-1
 384 384 l 1,9,-1
 256 384 l 1,10,-1
 256 0 l 1,11,-1
 128 0 l 1,0,-1
EndSplineSet
EndChar

StartChar: bullet
Encoding: 8226 8226 356
Width: 384
GlyphClass: 1
Flags: W
LayerCount: 2
Fore
SplineSet
0 128 m 1,0,-1
 0 384 l 1,1,-1
 256 384 l 1,2,-1
 256 128 l 1,3,-1
 0 128 l 1,0,-1
EndSplineSet
EndChar

StartChar: ellipsis
Encoding: 8230 8230 357
Width: 768
GlyphClass: 1
Flags: W
LayerCount: 2
Fore
SplineSet
0 0 m 1,0,-1
 0 128 l 1,1,-1
 128 128 l 1,2,-1
 128 0 l 1,3,-1
 0 0 l 1,0,-1
256 0 m 1,4,-1
 256 128 l 1,5,-1
 384 128 l 1,6,-1
 384 0 l 1,7,-1
 256 0 l 1,4,-1
512 0 m 1,8,-1
 512 128 l 1,9,-1
 640 128 l 1,10,-1
 640 0 l 1,11,-1
 512 0 l 1,8,-1
EndSplineSet
EndChar

StartChar: Euro
Encoding: 8364 8364 358
Width: 512
GlyphClass: 1
Flags: W
LayerCount: 2
Fore
SplineSet
128 0 m 1,0,-1
 128 256 l 1,1,-1
 0 256 l 1,2,-1
 0 384 l 1,3,-1
 128 384 l 1,4,-1
 128 640 l 1,5,-1
 384 640 l 1,6,-1
 384 512 l 1,7,-1
 256 512 l 1,8,-1
 256 384 l 1,9,-1
 384 384 l 1,10,-1
 384 256 l 1,11,-1
 256 256 l 1,12,-1
 256 128 l 1,13,-1
 384 128 l 1,14,-1
 384 0 l 1,15,-1
 128 0 l 1,0,-1
EndSplineSet
EndChar

StartChar: trademark
Encoding: 8482 8482 359
Width: 768
GlyphClass: 1
Flags: W
LayerCount: 2
Fore
SplineSet
128 128 m 1,0,-1
 128 384 l 1,1,-1
 0 384 l 1,2,-1
 0 512 l 1,3,-1
 640 512 l 1,4,-1
 640 128 l 1,5,-1
 384 128 l 1,6,-1
 384 384 l 1,7,-1
 256 384 l 1,8,-1
 256 128 l 1,9,-1
 128 128 l 1,0,-1
EndSplineSet
EndChar
